solid ascii
  facet normal -1.000000e+000 -0.000000e+000 -0.000000e+000
    outer loop
      vertex   -9.163857e+001 1.412933e+002 3.600000e+001
      vertex   -9.163857e+001 1.412933e+002 1.800000e+001
      vertex   -9.163857e+001 1.408945e+002 3.600000e+001
    endloop
  endfacet
  facet normal -1.000000e+000 0.000000e+000 0.000000e+000
    outer loop
      vertex   -9.163857e+001 1.408945e+002 3.600000e+001
      vertex   -9.163857e+001 1.412933e+002 1.800000e+001
      vertex   -9.163857e+001 1.408945e+002 1.800000e+001
    endloop
  endfacet
  facet normal 0.000000e+000 -1.000000e+000 0.000000e+000
    outer loop
      vertex   -1.116407e+002 1.567633e+002 6.000000e+000
      vertex   -9.664073e+001 1.567633e+002 6.000000e+000
      vertex   -1.116407e+002 1.567633e+002 1.800000e+001
    endloop
  endfacet
  facet normal 0.000000e+000 -1.000000e+000 0.000000e+000
    outer loop
      vertex   -1.116407e+002 1.567633e+002 1.800000e+001
      vertex   -9.664073e+001 1.567633e+002 6.000000e+000
      vertex   -9.664073e+001 1.567633e+002 1.800000e+001
    endloop
  endfacet
  facet normal -1.000000e+000 0.000000e+000 0.000000e+000
    outer loop
      vertex   -9.664073e+001 1.567633e+002 6.000000e+000
      vertex   -9.664073e+001 1.328055e+002 6.000000e+000
      vertex   -9.664073e+001 1.567633e+002 1.800000e+001
    endloop
  endfacet
  facet normal -1.000000e+000 -0.000000e+000 0.000000e+000
    outer loop
      vertex   -9.664073e+001 1.567633e+002 1.800000e+001
      vertex   -9.664073e+001 1.328055e+002 6.000000e+000
      vertex   -9.664073e+001 1.328055e+002 1.800000e+001
    endloop
  endfacet
  facet normal 0.000000e+000 0.000000e+000 1.000000e+000
    outer loop
      vertex   -9.664073e+001 1.567633e+002 6.000000e+000
      vertex   -1.116407e+002 1.567633e+002 6.000000e+000
      vertex   -9.664073e+001 1.328055e+002 6.000000e+000
    endloop
  endfacet
  facet normal 0.000000e+000 0.000000e+000 1.000000e+000
    outer loop
      vertex   -9.664073e+001 1.328055e+002 6.000000e+000
      vertex   -1.116407e+002 1.567633e+002 6.000000e+000
      vertex   -1.116407e+002 1.328055e+002 6.000000e+000
    endloop
  endfacet
  facet normal 0.000000e+000 0.000000e+000 1.000000e+000
    outer loop
      vertex   -9.664073e+001 1.328055e+002 6.000000e+000
      vertex   -1.116407e+002 1.328055e+002 6.000000e+000
      vertex   -1.191262e+002 8.942046e+001 6.000000e+000
    endloop
  endfacet
  facet normal 0.000000e+000 0.000000e+000 1.000000e+000
    outer loop
      vertex   -1.191262e+002 8.942046e+001 6.000000e+000
      vertex   -1.116407e+002 1.328055e+002 6.000000e+000
      vertex   -1.191262e+002 1.328055e+002 6.000000e+000
    endloop
  endfacet
  facet normal 0.000000e+000 0.000000e+000 1.000000e+000
    outer loop
      vertex   -1.191262e+002 8.942046e+001 6.000000e+000
      vertex   -8.912623e+001 8.942046e+001 6.000000e+000
      vertex   -9.664073e+001 1.328055e+002 6.000000e+000
    endloop
  endfacet
  facet normal -0.000000e+000 0.000000e+000 1.000000e+000
    outer loop
      vertex   -9.664073e+001 1.328055e+002 6.000000e+000
      vertex   -8.912623e+001 8.942046e+001 6.000000e+000
      vertex   -8.912623e+001 1.328055e+002 6.000000e+000
    endloop
  endfacet
  facet normal 1.000000e+000 0.000000e+000 0.000000e+000
    outer loop
      vertex   -8.912623e+001 1.387633e+002 3.600000e+001
      vertex   -8.912623e+001 1.328055e+002 3.600000e+001
      vertex   -8.912623e+001 1.387633e+002 1.800000e+001
    endloop
  endfacet
  facet normal 1.000000e+000 0.000000e+000 0.000000e+000
    outer loop
      vertex   -8.912623e+001 1.387633e+002 1.800000e+001
      vertex   -8.912623e+001 1.328055e+002 3.600000e+001
      vertex   -8.912623e+001 1.328055e+002 6.000000e+000
    endloop
  endfacet
  facet normal 1.000000e+000 -0.000000e+000 0.000000e+000
    outer loop
      vertex   -8.912623e+001 1.387633e+002 1.800000e+001
      vertex   -8.912623e+001 1.328055e+002 6.000000e+000
      vertex   -8.912623e+001 1.408945e+002 1.800000e+001
    endloop
  endfacet
  facet normal 1.000000e+000 0.000000e+000 0.000000e+000
    outer loop
      vertex   -8.912623e+001 1.408945e+002 1.800000e+001
      vertex   -8.912623e+001 1.328055e+002 6.000000e+000
      vertex   -8.912623e+001 1.634205e+002 4.000000e+000
    endloop
  endfacet
  facet normal 1.000000e+000 -0.000000e+000 0.000000e+000
    outer loop
      vertex   -8.912623e+001 1.408945e+002 1.800000e+001
      vertex   -8.912623e+001 1.634205e+002 4.000000e+000
      vertex   -8.912623e+001 1.634205e+002 3.600000e+001
    endloop
  endfacet
  facet normal 1.000000e+000 0.000000e+000 0.000000e+000
    outer loop
      vertex   -8.912623e+001 1.634205e+002 4.000000e+000
      vertex   -8.912623e+001 1.328055e+002 6.000000e+000
      vertex   -8.912623e+001 1.264205e+002 4.000000e+000
    endloop
  endfacet
  facet normal 1.000000e+000 0.000000e+000 -0.000000e+000
    outer loop
      vertex   -8.912623e+001 1.264205e+002 4.000000e+000
      vertex   -8.912623e+001 1.328055e+002 6.000000e+000
      vertex   -8.912623e+001 8.942046e+001 6.000000e+000
    endloop
  endfacet
  facet normal 1.000000e+000 0.000000e+000 0.000000e+000
    outer loop
      vertex   -8.912623e+001 1.264205e+002 4.000000e+000
      vertex   -8.912623e+001 8.942046e+001 6.000000e+000
      vertex   -8.912623e+001 8.942046e+001 4.000000e+000
    endloop
  endfacet
  facet normal 1.000000e+000 0.000000e+000 0.000000e+000
    outer loop
      vertex   -8.912623e+001 1.634205e+002 3.600000e+001
      vertex   -8.912623e+001 1.408945e+002 3.600000e+001
      vertex   -8.912623e+001 1.408945e+002 1.800000e+001
    endloop
  endfacet
  facet normal -0.000000e+000 -1.000000e+000 -0.000000e+000
    outer loop
      vertex   -8.912623e+001 8.942046e+001 6.000000e+000
      vertex   -1.191262e+002 8.942046e+001 6.000000e+000
      vertex   -8.912623e+001 8.942046e+001 4.000000e+000
    endloop
  endfacet
  facet normal 0.000000e+000 -1.000000e+000 0.000000e+000
    outer loop
      vertex   -8.912623e+001 8.942046e+001 4.000000e+000
      vertex   -1.191262e+002 8.942046e+001 6.000000e+000
      vertex   -1.191262e+002 8.942046e+001 4.000000e+000
    endloop
  endfacet
  facet normal -1.000000e+000 0.000000e+000 0.000000e+000
    outer loop
      vertex   -1.191262e+002 8.942046e+001 4.000000e+000
      vertex   -1.191262e+002 8.942046e+001 6.000000e+000
      vertex   -1.191262e+002 1.264205e+002 4.000000e+000
    endloop
  endfacet
  facet normal -1.000000e+000 0.000000e+000 0.000000e+000
    outer loop
      vertex   -1.191262e+002 1.264205e+002 4.000000e+000
      vertex   -1.191262e+002 8.942046e+001 6.000000e+000
      vertex   -1.191262e+002 1.328055e+002 6.000000e+000
    endloop
  endfacet
  facet normal -1.000000e+000 0.000000e+000 0.000000e+000
    outer loop
      vertex   -1.191262e+002 1.264205e+002 4.000000e+000
      vertex   -1.191262e+002 1.328055e+002 6.000000e+000
      vertex   -1.191262e+002 1.634205e+002 4.000000e+000
    endloop
  endfacet
  facet normal -1.000000e+000 0.000000e+000 0.000000e+000
    outer loop
      vertex   -1.191262e+002 1.634205e+002 4.000000e+000
      vertex   -1.191262e+002 1.328055e+002 6.000000e+000
      vertex   -1.191262e+002 1.408945e+002 1.800000e+001
    endloop
  endfacet
  facet normal -1.000000e+000 0.000000e+000 0.000000e+000
    outer loop
      vertex   -1.191262e+002 1.634205e+002 4.000000e+000
      vertex   -1.191262e+002 1.408945e+002 1.800000e+001
      vertex   -1.191262e+002 1.493363e+002 1.999414e+001
    endloop
  endfacet
  facet normal -1.000000e+000 -0.000000e+000 0.000000e+000
    outer loop
      vertex   -1.191262e+002 1.493363e+002 1.999414e+001
      vertex   -1.191262e+002 1.408945e+002 1.800000e+001
      vertex   -1.191262e+002 1.408945e+002 3.600000e+001
    endloop
  endfacet
  facet normal -1.000000e+000 0.000000e+000 0.000000e+000
    outer loop
      vertex   -1.191262e+002 1.493363e+002 1.999414e+001
      vertex   -1.191262e+002 1.408945e+002 3.600000e+001
      vertex   -1.191262e+002 1.493363e+002 3.600000e+001
    endloop
  endfacet
  facet normal -1.000000e+000 -0.000000e+000 0.000000e+000
    outer loop
      vertex   -1.191262e+002 1.408945e+002 1.800000e+001
      vertex   -1.191262e+002 1.328055e+002 6.000000e+000
      vertex   -1.191262e+002 1.387633e+002 1.800000e+001
    endloop
  endfacet
  facet normal -1.000000e+000 -0.000000e+000 0.000000e+000
    outer loop
      vertex   -1.191262e+002 1.387633e+002 1.800000e+001
      vertex   -1.191262e+002 1.328055e+002 6.000000e+000
      vertex   -1.191262e+002 1.328055e+002 3.600000e+001
    endloop
  endfacet
  facet normal -1.000000e+000 0.000000e+000 0.000000e+000
    outer loop
      vertex   -1.191262e+002 1.387633e+002 1.800000e+001
      vertex   -1.191262e+002 1.328055e+002 3.600000e+001
      vertex   -1.191262e+002 1.387633e+002 3.600000e+001
    endloop
  endfacet
  facet normal -1.000000e+000 0.000000e+000 0.000000e+000
    outer loop
      vertex   -1.191262e+002 1.493363e+002 1.999414e+001
      vertex   -1.191262e+002 1.523363e+002 1.999414e+001
      vertex   -1.191262e+002 1.634205e+002 4.000000e+000
    endloop
  endfacet
  facet normal -1.000000e+000 0.000000e+000 0.000000e+000
    outer loop
      vertex   -1.191262e+002 1.634205e+002 4.000000e+000
      vertex   -1.191262e+002 1.523363e+002 1.999414e+001
      vertex   -1.191262e+002 1.555248e+002 2.000000e+001
    endloop
  endfacet
  facet normal -1.000000e+000 0.000000e+000 0.000000e+000
    outer loop
      vertex   -1.191262e+002 1.634205e+002 4.000000e+000
      vertex   -1.191262e+002 1.555248e+002 2.000000e+001
      vertex   -1.191262e+002 1.634205e+002 3.600000e+001
    endloop
  endfacet
  facet normal -1.000000e+000 -0.000000e+000 0.000000e+000
    outer loop
      vertex   -1.191262e+002 1.634205e+002 3.600000e+001
      vertex   -1.191262e+002 1.555248e+002 2.000000e+001
      vertex   -1.191262e+002 1.555248e+002 3.600000e+001
    endloop
  endfacet
  facet normal -1.000000e+000 0.000000e+000 0.000000e+000
    outer loop
      vertex   -1.191262e+002 1.523363e+002 1.999414e+001
      vertex   -1.191262e+002 1.523363e+002 2.000000e+001
      vertex   -1.191262e+002 1.555248e+002 2.000000e+001
    endloop
  endfacet
  facet normal 0.000000e+000 -1.000000e+000 0.000000e+000
    outer loop
      vertex   -9.664073e+001 1.328055e+002 1.800000e+001
      vertex   -9.664073e+001 1.328055e+002 6.000000e+000
      vertex   -9.164073e+001 1.328055e+002 1.800000e+001
    endloop
  endfacet
  facet normal 0.000000e+000 -1.000000e+000 -0.000000e+000
    outer loop
      vertex   -9.164073e+001 1.328055e+002 1.800000e+001
      vertex   -9.664073e+001 1.328055e+002 6.000000e+000
      vertex   -8.912623e+001 1.328055e+002 6.000000e+000
    endloop
  endfacet
  facet normal 0.000000e+000 -1.000000e+000 0.000000e+000
    outer loop
      vertex   -9.164073e+001 1.328055e+002 1.800000e+001
      vertex   -8.912623e+001 1.328055e+002 6.000000e+000
      vertex   -8.912623e+001 1.328055e+002 3.600000e+001
    endloop
  endfacet
  facet normal -0.000000e+000 -1.000000e+000 0.000000e+000
    outer loop
      vertex   -8.912623e+001 1.328055e+002 3.600000e+001
      vertex   -9.164073e+001 1.328055e+002 3.600000e+001
      vertex   -9.164073e+001 1.328055e+002 1.800000e+001
    endloop
  endfacet
  facet normal -0.000000e+000 -1.000000e+000 -0.000000e+000
    outer loop
      vertex   -1.166107e+002 1.328055e+002 3.600000e+001
      vertex   -1.191262e+002 1.328055e+002 3.600000e+001
      vertex   -1.166107e+002 1.328055e+002 1.800000e+001
    endloop
  endfacet
  facet normal -0.000000e+000 -1.000000e+000 0.000000e+000
    outer loop
      vertex   -1.166107e+002 1.328055e+002 1.800000e+001
      vertex   -1.191262e+002 1.328055e+002 3.600000e+001
      vertex   -1.191262e+002 1.328055e+002 6.000000e+000
    endloop
  endfacet
  facet normal 0.000000e+000 -1.000000e+000 -0.000000e+000
    outer loop
      vertex   -1.166107e+002 1.328055e+002 1.800000e+001
      vertex   -1.191262e+002 1.328055e+002 6.000000e+000
      vertex   -1.116407e+002 1.328055e+002 6.000000e+000
    endloop
  endfacet
  facet normal 0.000000e+000 -1.000000e+000 0.000000e+000
    outer loop
      vertex   -1.116407e+002 1.328055e+002 6.000000e+000
      vertex   -1.116407e+002 1.328055e+002 1.800000e+001
      vertex   -1.166107e+002 1.328055e+002 1.800000e+001
    endloop
  endfacet
  facet normal 0.000000e+000 0.000000e+000 1.000000e+000
    outer loop
      vertex   -1.191262e+002 1.328055e+002 3.600000e+001
      vertex   -1.166107e+002 1.328055e+002 3.600000e+001
      vertex   -1.191262e+002 1.387633e+002 3.600000e+001
    endloop
  endfacet
  facet normal -0.000000e+000 0.000000e+000 1.000000e+000
    outer loop
      vertex   -1.191262e+002 1.387633e+002 3.600000e+001
      vertex   -1.166107e+002 1.328055e+002 3.600000e+001
      vertex   -1.166107e+002 1.387633e+002 3.600000e+001
    endloop
  endfacet
  facet normal 1.000000e+000 -0.000000e+000 0.000000e+000
    outer loop
      vertex   -1.166107e+002 1.328055e+002 3.600000e+001
      vertex   -1.166107e+002 1.328055e+002 1.800000e+001
      vertex   -1.166107e+002 1.387633e+002 3.600000e+001
    endloop
  endfacet
  facet normal 1.000000e+000 0.000000e+000 0.000000e+000
    outer loop
      vertex   -1.166107e+002 1.387633e+002 3.600000e+001
      vertex   -1.166107e+002 1.328055e+002 1.800000e+001
      vertex   -1.166107e+002 1.387633e+002 1.800000e+001
    endloop
  endfacet
  facet normal 1.000000e+000 0.000000e+000 -0.000000e+000
    outer loop
      vertex   -1.116407e+002 1.567633e+002 6.000000e+000
      vertex   -1.116407e+002 1.567633e+002 1.800000e+001
      vertex   -1.116407e+002 1.328055e+002 6.000000e+000
    endloop
  endfacet
  facet normal 1.000000e+000 0.000000e+000 0.000000e+000
    outer loop
      vertex   -1.116407e+002 1.328055e+002 6.000000e+000
      vertex   -1.116407e+002 1.567633e+002 1.800000e+001
      vertex   -1.116407e+002 1.328055e+002 1.800000e+001
    endloop
  endfacet
  facet normal 0.000000e+000 0.000000e+000 1.000000e+000
    outer loop
      vertex   -9.163857e+001 1.412933e+002 1.800000e+001
      vertex   -9.164073e+001 1.412933e+002 1.800000e+001
      vertex   -9.163857e+001 1.408945e+002 1.800000e+001
    endloop
  endfacet
  facet normal 0.000000e+000 0.000000e+000 1.000000e+000
    outer loop
      vertex   -9.163857e+001 1.408945e+002 1.800000e+001
      vertex   -9.164073e+001 1.412933e+002 1.800000e+001
      vertex   -9.664073e+001 1.328055e+002 1.800000e+001
    endloop
  endfacet
  facet normal 0.000000e+000 0.000000e+000 1.000000e+000
    outer loop
      vertex   -9.163857e+001 1.408945e+002 1.800000e+001
      vertex   -9.664073e+001 1.328055e+002 1.800000e+001
      vertex   -9.164073e+001 1.387633e+002 1.800000e+001
    endloop
  endfacet
  facet normal 0.000000e+000 0.000000e+000 1.000000e+000
    outer loop
      vertex   -9.164073e+001 1.387633e+002 1.800000e+001
      vertex   -9.664073e+001 1.328055e+002 1.800000e+001
      vertex   -9.164073e+001 1.328055e+002 1.800000e+001
    endloop
  endfacet
  facet normal 0.000000e+000 0.000000e+000 1.000000e+000
    outer loop
      vertex   -9.664073e+001 1.328055e+002 1.800000e+001
      vertex   -9.164073e+001 1.412933e+002 1.800000e+001
      vertex   -9.664073e+001 1.567633e+002 1.800000e+001
    endloop
  endfacet
  facet normal -0.000000e+000 0.000000e+000 1.000000e+000
    outer loop
      vertex   -9.664073e+001 1.567633e+002 1.800000e+001
      vertex   -9.164073e+001 1.412933e+002 1.800000e+001
      vertex   -9.164073e+001 1.591133e+002 1.800000e+001
    endloop
  endfacet
  facet normal 0.000000e+000 -0.000000e+000 1.000000e+000
    outer loop
      vertex   -9.664073e+001 1.567633e+002 1.800000e+001
      vertex   -9.164073e+001 1.591133e+002 1.800000e+001
      vertex   -1.166107e+002 1.591133e+002 1.800000e+001
    endloop
  endfacet
  facet normal 0.000000e+000 0.000000e+000 1.000000e+000
    outer loop
      vertex   -9.664073e+001 1.567633e+002 1.800000e+001
      vertex   -1.166107e+002 1.591133e+002 1.800000e+001
      vertex   -1.116407e+002 1.567633e+002 1.800000e+001
    endloop
  endfacet
  facet normal 0.000000e+000 0.000000e+000 1.000000e+000
    outer loop
      vertex   -1.116407e+002 1.567633e+002 1.800000e+001
      vertex   -1.166107e+002 1.591133e+002 1.800000e+001
      vertex   -1.166107e+002 1.412933e+002 1.800000e+001
    endloop
  endfacet
  facet normal 0.000000e+000 0.000000e+000 1.000000e+000
    outer loop
      vertex   -1.116407e+002 1.567633e+002 1.800000e+001
      vertex   -1.166107e+002 1.412933e+002 1.800000e+001
      vertex   -1.116407e+002 1.328055e+002 1.800000e+001
    endloop
  endfacet
  facet normal 0.000000e+000 0.000000e+000 1.000000e+000
    outer loop
      vertex   -1.116407e+002 1.328055e+002 1.800000e+001
      vertex   -1.166107e+002 1.412933e+002 1.800000e+001
      vertex   -1.166286e+002 1.408945e+002 1.800000e+001
    endloop
  endfacet
  facet normal 0.000000e+000 0.000000e+000 1.000000e+000
    outer loop
      vertex   -1.116407e+002 1.328055e+002 1.800000e+001
      vertex   -1.166286e+002 1.408945e+002 1.800000e+001
      vertex   -1.166107e+002 1.387633e+002 1.800000e+001
    endloop
  endfacet
  facet normal 0.000000e+000 0.000000e+000 1.000000e+000
    outer loop
      vertex   -1.166107e+002 1.387633e+002 1.800000e+001
      vertex   -1.166286e+002 1.408945e+002 1.800000e+001
      vertex   -1.191262e+002 1.387633e+002 1.800000e+001
    endloop
  endfacet
  facet normal 0.000000e+000 0.000000e+000 1.000000e+000
    outer loop
      vertex   -1.191262e+002 1.387633e+002 1.800000e+001
      vertex   -1.166286e+002 1.408945e+002 1.800000e+001
      vertex   -1.191262e+002 1.408945e+002 1.800000e+001
    endloop
  endfacet
  facet normal 0.000000e+000 0.000000e+000 1.000000e+000
    outer loop
      vertex   -1.166107e+002 1.412933e+002 1.800000e+001
      vertex   -1.166286e+002 1.412933e+002 1.800000e+001
      vertex   -1.166286e+002 1.408945e+002 1.800000e+001
    endloop
  endfacet
  facet normal 0.000000e+000 0.000000e+000 1.000000e+000
    outer loop
      vertex   -1.166107e+002 1.387633e+002 1.800000e+001
      vertex   -1.166107e+002 1.328055e+002 1.800000e+001
      vertex   -1.116407e+002 1.328055e+002 1.800000e+001
    endloop
  endfacet
  facet normal 0.000000e+000 0.000000e+000 1.000000e+000
    outer loop
      vertex   -9.164073e+001 1.387633e+002 1.800000e+001
      vertex   -8.912623e+001 1.387633e+002 1.800000e+001
      vertex   -9.163857e+001 1.408945e+002 1.800000e+001
    endloop
  endfacet
  facet normal -0.000000e+000 0.000000e+000 1.000000e+000
    outer loop
      vertex   -9.163857e+001 1.408945e+002 1.800000e+001
      vertex   -8.912623e+001 1.387633e+002 1.800000e+001
      vertex   -8.912623e+001 1.408945e+002 1.800000e+001
    endloop
  endfacet
  facet normal -1.000000e+000 0.000000e+000 0.000000e+000
    outer loop
      vertex   -9.164073e+001 1.328055e+002 3.600000e+001
      vertex   -9.164073e+001 1.387633e+002 3.600000e+001
      vertex   -9.164073e+001 1.328055e+002 1.800000e+001
    endloop
  endfacet
  facet normal -1.000000e+000 0.000000e+000 0.000000e+000
    outer loop
      vertex   -9.164073e+001 1.328055e+002 1.800000e+001
      vertex   -9.164073e+001 1.387633e+002 3.600000e+001
      vertex   -9.164073e+001 1.387633e+002 1.800000e+001
    endloop
  endfacet
  facet normal 0.000000e+000 -0.000000e+000 1.000000e+000
    outer loop
      vertex   -1.166107e+002 1.412933e+002 3.600000e+001
      vertex   -1.166107e+002 1.493363e+002 3.600000e+001
      vertex   -1.166286e+002 1.412933e+002 3.600000e+001
    endloop
  endfacet
  facet normal 0.000000e+000 -0.000000e+000 1.000000e+000
    outer loop
      vertex   -1.166286e+002 1.412933e+002 3.600000e+001
      vertex   -1.166107e+002 1.493363e+002 3.600000e+001
      vertex   -1.191262e+002 1.493363e+002 3.600000e+001
    endloop
  endfacet
  facet normal 0.000000e+000 0.000000e+000 1.000000e+000
    outer loop
      vertex   -1.166286e+002 1.412933e+002 3.600000e+001
      vertex   -1.191262e+002 1.493363e+002 3.600000e+001
      vertex   -1.191262e+002 1.408945e+002 3.600000e+001
    endloop
  endfacet
  facet normal 0.000000e+000 0.000000e+000 1.000000e+000
    outer loop
      vertex   -1.191262e+002 1.408945e+002 3.600000e+001
      vertex   -1.166286e+002 1.408945e+002 3.600000e+001
      vertex   -1.166286e+002 1.412933e+002 3.600000e+001
    endloop
  endfacet
  facet normal 0.000000e+000 0.000000e+000 1.000000e+000
    outer loop
      vertex   -1.166107e+002 1.523363e+002 1.999414e+001
      vertex   -1.191262e+002 1.523363e+002 1.999414e+001
      vertex   -1.166107e+002 1.493363e+002 1.999414e+001
    endloop
  endfacet
  facet normal 0.000000e+000 0.000000e+000 1.000000e+000
    outer loop
      vertex   -1.166107e+002 1.493363e+002 1.999414e+001
      vertex   -1.191262e+002 1.523363e+002 1.999414e+001
      vertex   -1.191262e+002 1.493363e+002 1.999414e+001
    endloop
  endfacet
  facet normal 0.000000e+000 1.000000e+000 0.000000e+000
    outer loop
      vertex   -1.166107e+002 1.493363e+002 3.600000e+001
      vertex   -1.166107e+002 1.493363e+002 1.999414e+001
      vertex   -1.191262e+002 1.493363e+002 3.600000e+001
    endloop
  endfacet
  facet normal 0.000000e+000 1.000000e+000 0.000000e+000
    outer loop
      vertex   -1.191262e+002 1.493363e+002 3.600000e+001
      vertex   -1.166107e+002 1.493363e+002 1.999414e+001
      vertex   -1.191262e+002 1.493363e+002 1.999414e+001
    endloop
  endfacet
  facet normal -0.000000e+000 -1.000000e+000 -0.000000e+000
    outer loop
      vertex   -1.166107e+002 1.523363e+002 2.000000e+001
      vertex   -1.191262e+002 1.523363e+002 2.000000e+001
      vertex   -1.166107e+002 1.523363e+002 1.999414e+001
    endloop
  endfacet
  facet normal 0.000000e+000 -1.000000e+000 0.000000e+000
    outer loop
      vertex   -1.166107e+002 1.523363e+002 1.999414e+001
      vertex   -1.191262e+002 1.523363e+002 2.000000e+001
      vertex   -1.191262e+002 1.523363e+002 1.999414e+001
    endloop
  endfacet
  facet normal 1.000000e+000 0.000000e+000 0.000000e+000
    outer loop
      vertex   -1.166107e+002 1.493363e+002 3.600000e+001
      vertex   -1.166107e+002 1.412933e+002 3.600000e+001
      vertex   -1.166107e+002 1.493363e+002 1.999414e+001
    endloop
  endfacet
  facet normal 1.000000e+000 0.000000e+000 0.000000e+000
    outer loop
      vertex   -1.166107e+002 1.493363e+002 1.999414e+001
      vertex   -1.166107e+002 1.412933e+002 3.600000e+001
      vertex   -1.166107e+002 1.412933e+002 1.800000e+001
    endloop
  endfacet
  facet normal 1.000000e+000 0.000000e+000 0.000000e+000
    outer loop
      vertex   -1.166107e+002 1.493363e+002 1.999414e+001
      vertex   -1.166107e+002 1.412933e+002 1.800000e+001
      vertex   -1.166107e+002 1.591133e+002 1.800000e+001
    endloop
  endfacet
  facet normal 1.000000e+000 0.000000e+000 0.000000e+000
    outer loop
      vertex   -1.166107e+002 1.591133e+002 3.600000e+001
      vertex   -1.166107e+002 1.555248e+002 2.000000e+001
      vertex   -1.166107e+002 1.591133e+002 1.800000e+001
    endloop
  endfacet
  facet normal 1.000000e+000 0.000000e+000 0.000000e+000
    outer loop
      vertex   -1.166107e+002 1.591133e+002 1.800000e+001
      vertex   -1.166107e+002 1.555248e+002 2.000000e+001
      vertex   -1.166107e+002 1.523363e+002 1.999414e+001
    endloop
  endfacet
  facet normal 1.000000e+000 0.000000e+000 0.000000e+000
    outer loop
      vertex   -1.166107e+002 1.591133e+002 1.800000e+001
      vertex   -1.166107e+002 1.523363e+002 1.999414e+001
      vertex   -1.166107e+002 1.493363e+002 1.999414e+001
    endloop
  endfacet
  facet normal 1.000000e+000 0.000000e+000 0.000000e+000
    outer loop
      vertex   -1.166107e+002 1.591133e+002 3.600000e+001
      vertex   -1.166107e+002 1.555248e+002 3.600000e+001
      vertex   -1.166107e+002 1.555248e+002 2.000000e+001
    endloop
  endfacet
  facet normal 1.000000e+000 0.000000e+000 0.000000e+000
    outer loop
      vertex   -1.166107e+002 1.555248e+002 2.000000e+001
      vertex   -1.166107e+002 1.523363e+002 2.000000e+001
      vertex   -1.166107e+002 1.523363e+002 1.999414e+001
    endloop
  endfacet
  facet normal 0.000000e+000 0.000000e+000 1.000000e+000
    outer loop
      vertex   -9.164073e+001 1.328055e+002 3.600000e+001
      vertex   -8.912623e+001 1.328055e+002 3.600000e+001
      vertex   -9.164073e+001 1.387633e+002 3.600000e+001
    endloop
  endfacet
  facet normal -0.000000e+000 0.000000e+000 1.000000e+000
    outer loop
      vertex   -9.164073e+001 1.387633e+002 3.600000e+001
      vertex   -8.912623e+001 1.328055e+002 3.600000e+001
      vertex   -8.912623e+001 1.387633e+002 3.600000e+001
    endloop
  endfacet
  facet normal 0.000000e+000 -0.000000e+000 1.000000e+000
    outer loop
      vertex   -1.166107e+002 1.555248e+002 3.600000e+001
      vertex   -1.166107e+002 1.591133e+002 3.600000e+001
      vertex   -1.191262e+002 1.555248e+002 3.600000e+001
    endloop
  endfacet
  facet normal 0.000000e+000 0.000000e+000 1.000000e+000
    outer loop
      vertex   -1.191262e+002 1.555248e+002 3.600000e+001
      vertex   -1.166107e+002 1.591133e+002 3.600000e+001
      vertex   -1.191262e+002 1.634205e+002 3.600000e+001
    endloop
  endfacet
  facet normal -0.000000e+000 0.000000e+000 1.000000e+000
    outer loop
      vertex   -1.191262e+002 1.634205e+002 3.600000e+001
      vertex   -1.166107e+002 1.591133e+002 3.600000e+001
      vertex   -8.912623e+001 1.634205e+002 3.600000e+001
    endloop
  endfacet
  facet normal 0.000000e+000 0.000000e+000 1.000000e+000
    outer loop
      vertex   -8.912623e+001 1.634205e+002 3.600000e+001
      vertex   -1.166107e+002 1.591133e+002 3.600000e+001
      vertex   -9.164073e+001 1.591133e+002 3.600000e+001
    endloop
  endfacet
  facet normal 0.000000e+000 0.000000e+000 1.000000e+000
    outer loop
      vertex   -8.912623e+001 1.634205e+002 3.600000e+001
      vertex   -9.164073e+001 1.591133e+002 3.600000e+001
      vertex   -8.912623e+001 1.408945e+002 3.600000e+001
    endloop
  endfacet
  facet normal 0.000000e+000 0.000000e+000 1.000000e+000
    outer loop
      vertex   -8.912623e+001 1.408945e+002 3.600000e+001
      vertex   -9.164073e+001 1.591133e+002 3.600000e+001
      vertex   -9.163857e+001 1.412933e+002 3.600000e+001
    endloop
  endfacet
  facet normal 0.000000e+000 0.000000e+000 1.000000e+000
    outer loop
      vertex   -8.912623e+001 1.408945e+002 3.600000e+001
      vertex   -9.163857e+001 1.412933e+002 3.600000e+001
      vertex   -9.163857e+001 1.408945e+002 3.600000e+001
    endloop
  endfacet
  facet normal 0.000000e+000 0.000000e+000 1.000000e+000
    outer loop
      vertex   -9.164073e+001 1.591133e+002 3.600000e+001
      vertex   -9.164073e+001 1.412933e+002 3.600000e+001
      vertex   -9.163857e+001 1.412933e+002 3.600000e+001
    endloop
  endfacet
  facet normal 0.000000e+000 -1.000000e+000 0.000000e+000
    outer loop
      vertex   -1.166107e+002 1.555248e+002 2.000000e+001
      vertex   -1.166107e+002 1.555248e+002 3.600000e+001
      vertex   -1.191262e+002 1.555248e+002 2.000000e+001
    endloop
  endfacet
  facet normal 0.000000e+000 -1.000000e+000 0.000000e+000
    outer loop
      vertex   -1.191262e+002 1.555248e+002 2.000000e+001
      vertex   -1.166107e+002 1.555248e+002 3.600000e+001
      vertex   -1.191262e+002 1.555248e+002 3.600000e+001
    endloop
  endfacet
  facet normal 0.000000e+000 -0.000000e+000 1.000000e+000
    outer loop
      vertex   -1.166107e+002 1.523363e+002 2.000000e+001
      vertex   -1.166107e+002 1.555248e+002 2.000000e+001
      vertex   -1.191262e+002 1.523363e+002 2.000000e+001
    endloop
  endfacet
  facet normal 0.000000e+000 0.000000e+000 1.000000e+000
    outer loop
      vertex   -1.191262e+002 1.523363e+002 2.000000e+001
      vertex   -1.166107e+002 1.555248e+002 2.000000e+001
      vertex   -1.191262e+002 1.555248e+002 2.000000e+001
    endloop
  endfacet
  facet normal 0.000000e+000 1.000000e+000 0.000000e+000
    outer loop
      vertex   -8.912623e+001 1.387633e+002 3.600000e+001
      vertex   -8.912623e+001 1.387633e+002 1.800000e+001
      vertex   -9.164073e+001 1.387633e+002 3.600000e+001
    endloop
  endfacet
  facet normal 0.000000e+000 1.000000e+000 0.000000e+000
    outer loop
      vertex   -9.164073e+001 1.387633e+002 3.600000e+001
      vertex   -8.912623e+001 1.387633e+002 1.800000e+001
      vertex   -9.164073e+001 1.387633e+002 1.800000e+001
    endloop
  endfacet
  facet normal 0.000000e+000 1.000000e+000 0.000000e+000
    outer loop
      vertex   -1.166107e+002 1.387633e+002 3.600000e+001
      vertex   -1.166107e+002 1.387633e+002 1.800000e+001
      vertex   -1.191262e+002 1.387633e+002 3.600000e+001
    endloop
  endfacet
  facet normal 0.000000e+000 1.000000e+000 0.000000e+000
    outer loop
      vertex   -1.191262e+002 1.387633e+002 3.600000e+001
      vertex   -1.166107e+002 1.387633e+002 1.800000e+001
      vertex   -1.191262e+002 1.387633e+002 1.800000e+001
    endloop
  endfacet
  facet normal -0.000000e+000 -1.000000e+000 -0.000000e+000
    outer loop
      vertex   -8.912623e+001 1.408945e+002 3.600000e+001
      vertex   -9.163857e+001 1.408945e+002 3.600000e+001
      vertex   -8.912623e+001 1.408945e+002 1.800000e+001
    endloop
  endfacet
  facet normal 0.000000e+000 -1.000000e+000 0.000000e+000
    outer loop
      vertex   -8.912623e+001 1.408945e+002 1.800000e+001
      vertex   -9.163857e+001 1.408945e+002 3.600000e+001
      vertex   -9.163857e+001 1.408945e+002 1.800000e+001
    endloop
  endfacet
  facet normal 0.000000e+000 -1.000000e+000 0.000000e+000
    outer loop
      vertex   -9.163857e+001 1.412933e+002 1.800000e+001
      vertex   -9.163857e+001 1.412933e+002 3.600000e+001
      vertex   -9.164073e+001 1.412933e+002 1.800000e+001
    endloop
  endfacet
  facet normal 0.000000e+000 -1.000000e+000 0.000000e+000
    outer loop
      vertex   -9.164073e+001 1.412933e+002 1.800000e+001
      vertex   -9.163857e+001 1.412933e+002 3.600000e+001
      vertex   -9.164073e+001 1.412933e+002 3.600000e+001
    endloop
  endfacet
  facet normal -0.000000e+000 -1.000000e+000 -0.000000e+000
    outer loop
      vertex   -1.166286e+002 1.408945e+002 3.600000e+001
      vertex   -1.191262e+002 1.408945e+002 3.600000e+001
      vertex   -1.166286e+002 1.408945e+002 1.800000e+001
    endloop
  endfacet
  facet normal 0.000000e+000 -1.000000e+000 0.000000e+000
    outer loop
      vertex   -1.166286e+002 1.408945e+002 1.800000e+001
      vertex   -1.191262e+002 1.408945e+002 3.600000e+001
      vertex   -1.191262e+002 1.408945e+002 1.800000e+001
    endloop
  endfacet
  facet normal 1.000000e+000 -0.000000e+000 0.000000e+000
    outer loop
      vertex   -1.166286e+002 1.408945e+002 3.600000e+001
      vertex   -1.166286e+002 1.408945e+002 1.800000e+001
      vertex   -1.166286e+002 1.412933e+002 3.600000e+001
    endloop
  endfacet
  facet normal 1.000000e+000 0.000000e+000 0.000000e+000
    outer loop
      vertex   -1.166286e+002 1.412933e+002 3.600000e+001
      vertex   -1.166286e+002 1.408945e+002 1.800000e+001
      vertex   -1.166286e+002 1.412933e+002 1.800000e+001
    endloop
  endfacet
  facet normal 0.000000e+000 -1.000000e+000 0.000000e+000
    outer loop
      vertex   -1.166286e+002 1.412933e+002 3.600000e+001
      vertex   -1.166286e+002 1.412933e+002 1.800000e+001
      vertex   -1.166107e+002 1.412933e+002 3.600000e+001
    endloop
  endfacet
  facet normal 0.000000e+000 -1.000000e+000 -0.000000e+000
    outer loop
      vertex   -1.166107e+002 1.412933e+002 3.600000e+001
      vertex   -1.166286e+002 1.412933e+002 1.800000e+001
      vertex   -1.166107e+002 1.412933e+002 1.800000e+001
    endloop
  endfacet
  facet normal -1.000000e+000 0.000000e+000 0.000000e+000
    outer loop
      vertex   -9.164073e+001 1.412933e+002 3.600000e+001
      vertex   -9.164073e+001 1.591133e+002 3.600000e+001
      vertex   -9.164073e+001 1.412933e+002 1.800000e+001
    endloop
  endfacet
  facet normal -1.000000e+000 0.000000e+000 0.000000e+000
    outer loop
      vertex   -9.164073e+001 1.412933e+002 1.800000e+001
      vertex   -9.164073e+001 1.591133e+002 3.600000e+001
      vertex   -9.164073e+001 1.591133e+002 1.800000e+001
    endloop
  endfacet
  facet normal 0.000000e+000 -1.000000e+000 0.000000e+000
    outer loop
      vertex   -1.166107e+002 1.591133e+002 3.600000e+001
      vertex   -1.166107e+002 1.591133e+002 1.800000e+001
      vertex   -9.164073e+001 1.591133e+002 3.600000e+001
    endloop
  endfacet
  facet normal 0.000000e+000 -1.000000e+000 -0.000000e+000
    outer loop
      vertex   -9.164073e+001 1.591133e+002 3.600000e+001
      vertex   -1.166107e+002 1.591133e+002 1.800000e+001
      vertex   -9.164073e+001 1.591133e+002 1.800000e+001
    endloop
  endfacet
  facet normal 0.000000e+000 1.000000e+000 -0.000000e+000
    outer loop
      vertex   -8.912623e+001 1.634205e+002 4.000000e+000
      vertex   -1.191262e+002 1.634205e+002 4.000000e+000
      vertex   -8.912623e+001 1.634205e+002 3.600000e+001
    endloop
  endfacet
  facet normal 0.000000e+000 1.000000e+000 0.000000e+000
    outer loop
      vertex   -8.912623e+001 1.634205e+002 3.600000e+001
      vertex   -1.191262e+002 1.634205e+002 4.000000e+000
      vertex   -1.191262e+002 1.634205e+002 3.600000e+001
    endloop
  endfacet
  facet normal 0.000000e+000 0.000000e+000 -1.000000e+000
    outer loop
      vertex   -1.191262e+002 1.634205e+002 4.000000e+000
      vertex   -8.912623e+001 1.634205e+002 4.000000e+000
      vertex   -1.191262e+002 1.264205e+002 4.000000e+000
    endloop
  endfacet
  facet normal 0.000000e+000 0.000000e+000 -1.000000e+000
    outer loop
      vertex   -1.191262e+002 1.264205e+002 4.000000e+000
      vertex   -8.912623e+001 1.634205e+002 4.000000e+000
      vertex   -8.912623e+001 1.264205e+002 4.000000e+000
    endloop
  endfacet
  facet normal 0.000000e+000 0.000000e+000 -1.000000e+000
    outer loop
      vertex   -1.191262e+002 1.264205e+002 4.000000e+000
      vertex   -8.912623e+001 1.264205e+002 4.000000e+000
      vertex   -1.191262e+002 8.942046e+001 4.000000e+000
    endloop
  endfacet
  facet normal 0.000000e+000 0.000000e+000 -1.000000e+000
    outer loop
      vertex   -1.191262e+002 8.942046e+001 4.000000e+000
      vertex   -8.912623e+001 1.264205e+002 4.000000e+000
      vertex   -8.912623e+001 8.942046e+001 4.000000e+000
    endloop
  endfacet
endsolid
