solid ascii
  facet normal -0.000000e+000 -1.000000e+000 -0.000000e+000
    outer loop
      vertex   -1.318591e+002 9.021530e+001 4.000000e+000
      vertex   -1.353591e+002 9.021530e+001 4.000000e+000
      vertex   -1.318591e+002 9.021530e+001 2.000000e+000
    endloop
  endfacet
  facet normal 0.000000e+000 -1.000000e+000 0.000000e+000
    outer loop
      vertex   -1.318591e+002 9.021530e+001 2.000000e+000
      vertex   -1.353591e+002 9.021530e+001 4.000000e+000
      vertex   -1.353591e+002 9.021530e+001 2.000000e+000
    endloop
  endfacet
  facet normal 1.000000e+000 0.000000e+000 0.000000e+000
    outer loop
      vertex   -1.353591e+002 9.021530e+001 4.000000e+000
      vertex   -1.353591e+002 8.471530e+001 4.000000e+000
      vertex   -1.353591e+002 9.021530e+001 2.000000e+000
    endloop
  endfacet
  facet normal 1.000000e+000 0.000000e+000 0.000000e+000
    outer loop
      vertex   -1.353591e+002 9.021530e+001 2.000000e+000
      vertex   -1.353591e+002 8.471530e+001 4.000000e+000
      vertex   -1.353591e+002 8.471530e+001 2.000000e+000
    endloop
  endfacet
  facet normal -0.000000e+000 1.000000e+000 0.000000e+000
    outer loop
      vertex   -1.353591e+002 8.471530e+001 4.000000e+000
      vertex   -1.318591e+002 8.471530e+001 4.000000e+000
      vertex   -1.353591e+002 8.471530e+001 2.000000e+000
    endloop
  endfacet
  facet normal 0.000000e+000 1.000000e+000 0.000000e+000
    outer loop
      vertex   -1.353591e+002 8.471530e+001 2.000000e+000
      vertex   -1.318591e+002 8.471530e+001 4.000000e+000
      vertex   -1.318591e+002 8.471530e+001 2.000000e+000
    endloop
  endfacet
  facet normal 0.000000e+000 0.000000e+000 1.000000e+000
    outer loop
      vertex   -1.318591e+002 8.471530e+001 4.000000e+000
      vertex   -1.353591e+002 8.471530e+001 4.000000e+000
      vertex   -1.318591e+002 6.521530e+001 4.000000e+000
    endloop
  endfacet
  facet normal 0.000000e+000 0.000000e+000 1.000000e+000
    outer loop
      vertex   -1.318591e+002 6.521530e+001 4.000000e+000
      vertex   -1.353591e+002 8.471530e+001 4.000000e+000
      vertex   -1.353591e+002 6.521530e+001 4.000000e+000
    endloop
  endfacet
  facet normal 0.000000e+000 -0.000000e+000 1.000000e+000
    outer loop
      vertex   -1.353591e+002 6.521530e+001 4.000000e+000
      vertex   -1.353591e+002 8.471530e+001 4.000000e+000
      vertex   -1.583591e+002 8.471530e+001 4.000000e+000
    endloop
  endfacet
  facet normal 0.000000e+000 0.000000e+000 1.000000e+000
    outer loop
      vertex   -1.353591e+002 6.521530e+001 4.000000e+000
      vertex   -1.583591e+002 8.471530e+001 4.000000e+000
      vertex   -1.583591e+002 6.521530e+001 4.000000e+000
    endloop
  endfacet
  facet normal 0.000000e+000 -0.000000e+000 1.000000e+000
    outer loop
      vertex   -1.583591e+002 6.521530e+001 4.000000e+000
      vertex   -1.583591e+002 8.471530e+001 4.000000e+000
      vertex   -1.618591e+002 8.471530e+001 4.000000e+000
    endloop
  endfacet
  facet normal 0.000000e+000 0.000000e+000 1.000000e+000
    outer loop
      vertex   -1.583591e+002 6.521530e+001 4.000000e+000
      vertex   -1.618591e+002 8.471530e+001 4.000000e+000
      vertex   -1.618591e+002 6.521530e+001 4.000000e+000
    endloop
  endfacet
  facet normal 0.000000e+000 0.000000e+000 1.000000e+000
    outer loop
      vertex   -1.583591e+002 8.471530e+001 4.000000e+000
      vertex   -1.353591e+002 8.471530e+001 4.000000e+000
      vertex   -1.583591e+002 9.021530e+001 4.000000e+000
    endloop
  endfacet
  facet normal -0.000000e+000 0.000000e+000 1.000000e+000
    outer loop
      vertex   -1.583591e+002 9.021530e+001 4.000000e+000
      vertex   -1.353591e+002 8.471530e+001 4.000000e+000
      vertex   -1.353591e+002 9.021530e+001 4.000000e+000
    endloop
  endfacet
  facet normal 0.000000e+000 -0.000000e+000 1.000000e+000
    outer loop
      vertex   -1.583591e+002 9.021530e+001 4.000000e+000
      vertex   -1.353591e+002 9.021530e+001 4.000000e+000
      vertex   -1.618591e+002 1.119553e+002 4.000000e+000
    endloop
  endfacet
  facet normal -0.000000e+000 0.000000e+000 1.000000e+000
    outer loop
      vertex   -1.618591e+002 1.119553e+002 4.000000e+000
      vertex   -1.353591e+002 9.021530e+001 4.000000e+000
      vertex   -1.318591e+002 1.119553e+002 4.000000e+000
    endloop
  endfacet
  facet normal 0.000000e+000 0.000000e+000 1.000000e+000
    outer loop
      vertex   -1.318591e+002 1.119553e+002 4.000000e+000
      vertex   -1.353591e+002 9.021530e+001 4.000000e+000
      vertex   -1.318591e+002 9.021530e+001 4.000000e+000
    endloop
  endfacet
  facet normal 0.000000e+000 0.000000e+000 1.000000e+000
    outer loop
      vertex   -1.618591e+002 1.119553e+002 4.000000e+000
      vertex   -1.618591e+002 9.021530e+001 4.000000e+000
      vertex   -1.583591e+002 9.021530e+001 4.000000e+000
    endloop
  endfacet
  facet normal 0.000000e+000 0.000000e+000 1.000000e+000
    outer loop
      vertex   -1.353591e+002 6.521530e+001 4.000000e+000
      vertex   -1.583591e+002 6.521530e+001 4.000000e+000
      vertex   -1.353591e+002 5.971531e+001 4.000000e+000
    endloop
  endfacet
  facet normal 0.000000e+000 0.000000e+000 1.000000e+000
    outer loop
      vertex   -1.353591e+002 5.971531e+001 4.000000e+000
      vertex   -1.583591e+002 6.521530e+001 4.000000e+000
      vertex   -1.583591e+002 5.971531e+001 4.000000e+000
    endloop
  endfacet
  facet normal 0.000000e+000 0.000000e+000 1.000000e+000
    outer loop
      vertex   -1.353591e+002 5.971531e+001 4.000000e+000
      vertex   -1.583591e+002 5.971531e+001 4.000000e+000
      vertex   -1.618591e+002 3.795530e+001 4.000000e+000
    endloop
  endfacet
  facet normal 0.000000e+000 0.000000e+000 1.000000e+000
    outer loop
      vertex   -1.618591e+002 3.795530e+001 4.000000e+000
      vertex   -1.583591e+002 5.971531e+001 4.000000e+000
      vertex   -1.618591e+002 5.971531e+001 4.000000e+000
    endloop
  endfacet
  facet normal 0.000000e+000 0.000000e+000 1.000000e+000
    outer loop
      vertex   -1.618591e+002 3.795530e+001 4.000000e+000
      vertex   -1.318591e+002 3.795530e+001 4.000000e+000
      vertex   -1.353591e+002 5.971531e+001 4.000000e+000
    endloop
  endfacet
  facet normal -0.000000e+000 0.000000e+000 1.000000e+000
    outer loop
      vertex   -1.353591e+002 5.971531e+001 4.000000e+000
      vertex   -1.318591e+002 3.795530e+001 4.000000e+000
      vertex   -1.318591e+002 5.971531e+001 4.000000e+000
    endloop
  endfacet
  facet normal 1.000000e+000 0.000000e+000 0.000000e+000
    outer loop
      vertex   -1.318591e+002 9.021530e+001 2.000000e+000
      vertex   -1.318591e+002 1.119553e+002 2.000000e+000
      vertex   -1.318591e+002 9.021530e+001 4.000000e+000
    endloop
  endfacet
  facet normal 1.000000e+000 -0.000000e+000 0.000000e+000
    outer loop
      vertex   -1.318591e+002 9.021530e+001 4.000000e+000
      vertex   -1.318591e+002 1.119553e+002 2.000000e+000
      vertex   -1.318591e+002 1.119553e+002 4.000000e+000
    endloop
  endfacet
  facet normal -0.000000e+000 -1.000000e+000 -0.000000e+000
    outer loop
      vertex   -1.318591e+002 6.521530e+001 4.000000e+000
      vertex   -1.353591e+002 6.521530e+001 4.000000e+000
      vertex   -1.318591e+002 6.521530e+001 2.000000e+000
    endloop
  endfacet
  facet normal 0.000000e+000 -1.000000e+000 0.000000e+000
    outer loop
      vertex   -1.318591e+002 6.521530e+001 2.000000e+000
      vertex   -1.353591e+002 6.521530e+001 4.000000e+000
      vertex   -1.353591e+002 6.521530e+001 2.000000e+000
    endloop
  endfacet
  facet normal 1.000000e+000 0.000000e+000 0.000000e+000
    outer loop
      vertex   -1.353591e+002 6.521530e+001 4.000000e+000
      vertex   -1.353591e+002 5.971531e+001 4.000000e+000
      vertex   -1.353591e+002 6.521530e+001 2.000000e+000
    endloop
  endfacet
  facet normal 1.000000e+000 0.000000e+000 0.000000e+000
    outer loop
      vertex   -1.353591e+002 6.521530e+001 2.000000e+000
      vertex   -1.353591e+002 5.971531e+001 4.000000e+000
      vertex   -1.353591e+002 5.971531e+001 2.000000e+000
    endloop
  endfacet
  facet normal -0.000000e+000 1.000000e+000 0.000000e+000
    outer loop
      vertex   -1.353591e+002 5.971531e+001 4.000000e+000
      vertex   -1.318591e+002 5.971531e+001 4.000000e+000
      vertex   -1.353591e+002 5.971531e+001 2.000000e+000
    endloop
  endfacet
  facet normal 0.000000e+000 1.000000e+000 0.000000e+000
    outer loop
      vertex   -1.353591e+002 5.971531e+001 2.000000e+000
      vertex   -1.318591e+002 5.971531e+001 4.000000e+000
      vertex   -1.318591e+002 5.971531e+001 2.000000e+000
    endloop
  endfacet
  facet normal 1.000000e+000 0.000000e+000 0.000000e+000
    outer loop
      vertex   -1.318591e+002 8.471530e+001 4.000000e+000
      vertex   -1.318591e+002 6.521530e+001 4.000000e+000
      vertex   -1.318591e+002 8.471530e+001 2.000000e+000
    endloop
  endfacet
  facet normal 1.000000e+000 0.000000e+000 0.000000e+000
    outer loop
      vertex   -1.318591e+002 8.471530e+001 2.000000e+000
      vertex   -1.318591e+002 6.521530e+001 4.000000e+000
      vertex   -1.318591e+002 6.521530e+001 2.000000e+000
    endloop
  endfacet
  facet normal 0.000000e+000 -1.000000e+000 0.000000e+000
    outer loop
      vertex   -1.618591e+002 6.521530e+001 2.000000e+000
      vertex   -1.583591e+002 6.521530e+001 2.000000e+000
      vertex   -1.618591e+002 6.521530e+001 4.000000e+000
    endloop
  endfacet
  facet normal 0.000000e+000 -1.000000e+000 0.000000e+000
    outer loop
      vertex   -1.618591e+002 6.521530e+001 4.000000e+000
      vertex   -1.583591e+002 6.521530e+001 2.000000e+000
      vertex   -1.583591e+002 6.521530e+001 4.000000e+000
    endloop
  endfacet
  facet normal 0.000000e+000 1.000000e+000 -0.000000e+000
    outer loop
      vertex   -1.583591e+002 5.971531e+001 2.000000e+000
      vertex   -1.618591e+002 5.971531e+001 2.000000e+000
      vertex   -1.583591e+002 5.971531e+001 4.000000e+000
    endloop
  endfacet
  facet normal 0.000000e+000 1.000000e+000 0.000000e+000
    outer loop
      vertex   -1.583591e+002 5.971531e+001 4.000000e+000
      vertex   -1.618591e+002 5.971531e+001 2.000000e+000
      vertex   -1.618591e+002 5.971531e+001 4.000000e+000
    endloop
  endfacet
  facet normal -1.000000e+000 0.000000e+000 0.000000e+000
    outer loop
      vertex   -1.583591e+002 6.521530e+001 2.000000e+000
      vertex   -1.583591e+002 5.971531e+001 2.000000e+000
      vertex   -1.583591e+002 6.521530e+001 4.000000e+000
    endloop
  endfacet
  facet normal -1.000000e+000 -0.000000e+000 0.000000e+000
    outer loop
      vertex   -1.583591e+002 6.521530e+001 4.000000e+000
      vertex   -1.583591e+002 5.971531e+001 2.000000e+000
      vertex   -1.583591e+002 5.971531e+001 4.000000e+000
    endloop
  endfacet
  facet normal -1.000000e+000 0.000000e+000 0.000000e+000
    outer loop
      vertex   -1.618591e+002 5.971531e+001 2.000000e+000
      vertex   -1.618591e+002 3.795530e+001 2.000000e+000
      vertex   -1.618591e+002 5.971531e+001 4.000000e+000
    endloop
  endfacet
  facet normal -1.000000e+000 -0.000000e+000 0.000000e+000
    outer loop
      vertex   -1.618591e+002 5.971531e+001 4.000000e+000
      vertex   -1.618591e+002 3.795530e+001 2.000000e+000
      vertex   -1.618591e+002 3.795530e+001 4.000000e+000
    endloop
  endfacet
  facet normal -1.000000e+000 0.000000e+000 0.000000e+000
    outer loop
      vertex   -1.618591e+002 6.521530e+001 4.000000e+000
      vertex   -1.618591e+002 8.471530e+001 4.000000e+000
      vertex   -1.618591e+002 6.521530e+001 2.000000e+000
    endloop
  endfacet
  facet normal -1.000000e+000 0.000000e+000 0.000000e+000
    outer loop
      vertex   -1.618591e+002 6.521530e+001 2.000000e+000
      vertex   -1.618591e+002 8.471530e+001 4.000000e+000
      vertex   -1.618591e+002 8.471530e+001 2.000000e+000
    endloop
  endfacet
  facet normal -0.000000e+000 1.000000e+000 0.000000e+000
    outer loop
      vertex   -1.618591e+002 8.471530e+001 4.000000e+000
      vertex   -1.583591e+002 8.471530e+001 4.000000e+000
      vertex   -1.618591e+002 8.471530e+001 2.000000e+000
    endloop
  endfacet
  facet normal 0.000000e+000 1.000000e+000 0.000000e+000
    outer loop
      vertex   -1.618591e+002 8.471530e+001 2.000000e+000
      vertex   -1.583591e+002 8.471530e+001 4.000000e+000
      vertex   -1.583591e+002 8.471530e+001 2.000000e+000
    endloop
  endfacet
  facet normal -1.000000e+000 0.000000e+000 0.000000e+000
    outer loop
      vertex   -1.583591e+002 8.471530e+001 4.000000e+000
      vertex   -1.583591e+002 9.021530e+001 4.000000e+000
      vertex   -1.583591e+002 8.471530e+001 2.000000e+000
    endloop
  endfacet
  facet normal -1.000000e+000 0.000000e+000 0.000000e+000
    outer loop
      vertex   -1.583591e+002 8.471530e+001 2.000000e+000
      vertex   -1.583591e+002 9.021530e+001 4.000000e+000
      vertex   -1.583591e+002 9.021530e+001 2.000000e+000
    endloop
  endfacet
  facet normal -0.000000e+000 -1.000000e+000 -0.000000e+000
    outer loop
      vertex   -1.583591e+002 9.021530e+001 4.000000e+000
      vertex   -1.618591e+002 9.021530e+001 4.000000e+000
      vertex   -1.583591e+002 9.021530e+001 2.000000e+000
    endloop
  endfacet
  facet normal 0.000000e+000 -1.000000e+000 0.000000e+000
    outer loop
      vertex   -1.583591e+002 9.021530e+001 2.000000e+000
      vertex   -1.618591e+002 9.021530e+001 4.000000e+000
      vertex   -1.618591e+002 9.021530e+001 2.000000e+000
    endloop
  endfacet
  facet normal -1.000000e+000 0.000000e+000 0.000000e+000
    outer loop
      vertex   -1.618591e+002 9.021530e+001 4.000000e+000
      vertex   -1.618591e+002 1.119553e+002 4.000000e+000
      vertex   -1.618591e+002 9.021530e+001 2.000000e+000
    endloop
  endfacet
  facet normal -1.000000e+000 0.000000e+000 0.000000e+000
    outer loop
      vertex   -1.618591e+002 9.021530e+001 2.000000e+000
      vertex   -1.618591e+002 1.119553e+002 4.000000e+000
      vertex   -1.618591e+002 1.119553e+002 2.000000e+000
    endloop
  endfacet
  facet normal -0.000000e+000 -0.000000e+000 -1.000000e+000
    outer loop
      vertex   -1.318591e+002 8.471530e+001 2.000000e+000
      vertex   -1.318591e+002 6.521530e+001 2.000000e+000
      vertex   -1.353591e+002 8.471530e+001 2.000000e+000
    endloop
  endfacet
  facet normal 0.000000e+000 0.000000e+000 -1.000000e+000
    outer loop
      vertex   -1.353591e+002 8.471530e+001 2.000000e+000
      vertex   -1.318591e+002 6.521530e+001 2.000000e+000
      vertex   -1.353591e+002 6.521530e+001 2.000000e+000
    endloop
  endfacet
  facet normal 0.000000e+000 -0.000000e+000 -1.000000e+000
    outer loop
      vertex   -1.353591e+002 8.471530e+001 2.000000e+000
      vertex   -1.353591e+002 6.521530e+001 2.000000e+000
      vertex   -1.583591e+002 6.521530e+001 2.000000e+000
    endloop
  endfacet
  facet normal 0.000000e+000 0.000000e+000 -1.000000e+000
    outer loop
      vertex   -1.583591e+002 6.521530e+001 2.000000e+000
      vertex   -1.353591e+002 6.521530e+001 2.000000e+000
      vertex   -1.583591e+002 5.971531e+001 2.000000e+000
    endloop
  endfacet
  facet normal 0.000000e+000 0.000000e+000 -1.000000e+000
    outer loop
      vertex   -1.583591e+002 5.971531e+001 2.000000e+000
      vertex   -1.353591e+002 6.521530e+001 2.000000e+000
      vertex   -1.353591e+002 5.971531e+001 2.000000e+000
    endloop
  endfacet
  facet normal 0.000000e+000 -0.000000e+000 -1.000000e+000
    outer loop
      vertex   -1.583591e+002 5.971531e+001 2.000000e+000
      vertex   -1.353591e+002 5.971531e+001 2.000000e+000
      vertex   -1.618591e+002 3.795530e+001 2.000000e+000
    endloop
  endfacet
  facet normal 0.000000e+000 0.000000e+000 -1.000000e+000
    outer loop
      vertex   -1.618591e+002 3.795530e+001 2.000000e+000
      vertex   -1.353591e+002 5.971531e+001 2.000000e+000
      vertex   -1.318591e+002 3.795530e+001 2.000000e+000
    endloop
  endfacet
  facet normal 0.000000e+000 0.000000e+000 -1.000000e+000
    outer loop
      vertex   -1.318591e+002 3.795530e+001 2.000000e+000
      vertex   -1.353591e+002 5.971531e+001 2.000000e+000
      vertex   -1.318591e+002 5.971531e+001 2.000000e+000
    endloop
  endfacet
  facet normal 0.000000e+000 0.000000e+000 -1.000000e+000
    outer loop
      vertex   -1.618591e+002 3.795530e+001 2.000000e+000
      vertex   -1.618591e+002 5.971531e+001 2.000000e+000
      vertex   -1.583591e+002 5.971531e+001 2.000000e+000
    endloop
  endfacet
  facet normal -0.000000e+000 0.000000e+000 -1.000000e+000
    outer loop
      vertex   -1.353591e+002 8.471530e+001 2.000000e+000
      vertex   -1.583591e+002 6.521530e+001 2.000000e+000
      vertex   -1.583591e+002 8.471530e+001 2.000000e+000
    endloop
  endfacet
  facet normal 0.000000e+000 -0.000000e+000 -1.000000e+000
    outer loop
      vertex   -1.583591e+002 8.471530e+001 2.000000e+000
      vertex   -1.583591e+002 6.521530e+001 2.000000e+000
      vertex   -1.618591e+002 6.521530e+001 2.000000e+000
    endloop
  endfacet
  facet normal -0.000000e+000 0.000000e+000 -1.000000e+000
    outer loop
      vertex   -1.583591e+002 8.471530e+001 2.000000e+000
      vertex   -1.618591e+002 6.521530e+001 2.000000e+000
      vertex   -1.618591e+002 8.471530e+001 2.000000e+000
    endloop
  endfacet
  facet normal 0.000000e+000 0.000000e+000 -1.000000e+000
    outer loop
      vertex   -1.353591e+002 8.471530e+001 2.000000e+000
      vertex   -1.583591e+002 8.471530e+001 2.000000e+000
      vertex   -1.353591e+002 9.021530e+001 2.000000e+000
    endloop
  endfacet
  facet normal -0.000000e+000 0.000000e+000 -1.000000e+000
    outer loop
      vertex   -1.353591e+002 9.021530e+001 2.000000e+000
      vertex   -1.583591e+002 8.471530e+001 2.000000e+000
      vertex   -1.583591e+002 9.021530e+001 2.000000e+000
    endloop
  endfacet
  facet normal 0.000000e+000 0.000000e+000 -1.000000e+000
    outer loop
      vertex   -1.353591e+002 9.021530e+001 2.000000e+000
      vertex   -1.583591e+002 9.021530e+001 2.000000e+000
      vertex   -1.618591e+002 1.119553e+002 2.000000e+000
    endloop
  endfacet
  facet normal 0.000000e+000 0.000000e+000 -1.000000e+000
    outer loop
      vertex   -1.618591e+002 1.119553e+002 2.000000e+000
      vertex   -1.583591e+002 9.021530e+001 2.000000e+000
      vertex   -1.618591e+002 9.021530e+001 2.000000e+000
    endloop
  endfacet
  facet normal 0.000000e+000 0.000000e+000 -1.000000e+000
    outer loop
      vertex   -1.618591e+002 1.119553e+002 2.000000e+000
      vertex   -1.318591e+002 1.119553e+002 2.000000e+000
      vertex   -1.353591e+002 9.021530e+001 2.000000e+000
    endloop
  endfacet
  facet normal 0.000000e+000 0.000000e+000 -1.000000e+000
    outer loop
      vertex   -1.353591e+002 9.021530e+001 2.000000e+000
      vertex   -1.318591e+002 1.119553e+002 2.000000e+000
      vertex   -1.318591e+002 9.021530e+001 2.000000e+000
    endloop
  endfacet
  facet normal 0.000000e+000 -1.000000e+000 0.000000e+000
    outer loop
      vertex   -1.618591e+002 3.795530e+001 2.000000e+000
      vertex   -1.318591e+002 3.795530e+001 2.000000e+000
      vertex   -1.618591e+002 3.795530e+001 4.000000e+000
    endloop
  endfacet
  facet normal 0.000000e+000 -1.000000e+000 0.000000e+000
    outer loop
      vertex   -1.618591e+002 3.795530e+001 4.000000e+000
      vertex   -1.318591e+002 3.795530e+001 2.000000e+000
      vertex   -1.318591e+002 3.795530e+001 4.000000e+000
    endloop
  endfacet
  facet normal 0.000000e+000 1.000000e+000 -0.000000e+000
    outer loop
      vertex   -1.318591e+002 1.119553e+002 2.000000e+000
      vertex   -1.618591e+002 1.119553e+002 2.000000e+000
      vertex   -1.318591e+002 1.119553e+002 4.000000e+000
    endloop
  endfacet
  facet normal 0.000000e+000 1.000000e+000 0.000000e+000
    outer loop
      vertex   -1.318591e+002 1.119553e+002 4.000000e+000
      vertex   -1.618591e+002 1.119553e+002 2.000000e+000
      vertex   -1.618591e+002 1.119553e+002 4.000000e+000
    endloop
  endfacet
  facet normal 1.000000e+000 0.000000e+000 0.000000e+000
    outer loop
      vertex   -1.318591e+002 5.971531e+001 4.000000e+000
      vertex   -1.318591e+002 3.795530e+001 4.000000e+000
      vertex   -1.318591e+002 5.971531e+001 2.000000e+000
    endloop
  endfacet
  facet normal 1.000000e+000 0.000000e+000 0.000000e+000
    outer loop
      vertex   -1.318591e+002 5.971531e+001 2.000000e+000
      vertex   -1.318591e+002 3.795530e+001 4.000000e+000
      vertex   -1.318591e+002 3.795530e+001 2.000000e+000
    endloop
  endfacet
endsolid
