solid ascii
  facet normal 9.990209e-001 -4.424088e-002 0.000000e+000
    outer loop
      vertex   -1.828389e+002 2.417519e+002 -3.885781e-015
      vertex   -1.828389e+002 2.417519e+002 4.000000e+000
      vertex   -1.828500e+002 2.415000e+002 -3.885781e-015
    endloop
  endfacet
  facet normal 9.990209e-001 -4.424088e-002 0.000000e+000
    outer loop
      vertex   -1.828500e+002 2.415000e+002 -3.885781e-015
      vertex   -1.828389e+002 2.417519e+002 4.000000e+000
      vertex   -1.828500e+002 2.415000e+002 4.000000e+000
    endloop
  endfacet
  facet normal 9.990209e-001 4.424088e-002 -0.000000e+000
    outer loop
      vertex   -1.828500e+002 2.415000e+002 -3.885781e-015
      vertex   -1.828500e+002 2.415000e+002 4.000000e+000
      vertex   -1.828389e+002 2.412481e+002 4.000000e+000
    endloop
  endfacet
  facet normal 9.912031e-001 -1.323500e-001 0.000000e+000
    outer loop
      vertex   -1.828389e+002 2.417519e+002 4.000000e+000
      vertex   -1.828389e+002 2.417519e+002 -3.885781e-015
      vertex   -1.828055e+002 2.420018e+002 4.000000e+000
    endloop
  endfacet
  facet normal 9.912031e-001 -1.323500e-001 0.000000e+000
    outer loop
      vertex   -1.828055e+002 2.420018e+002 4.000000e+000
      vertex   -1.828389e+002 2.417519e+002 -3.885781e-015
      vertex   -1.828055e+002 2.420018e+002 -3.885781e-015
    endloop
  endfacet
  facet normal 9.756256e-001 -2.194416e-001 0.000000e+000
    outer loop
      vertex   -1.828055e+002 2.420018e+002 4.000000e+000
      vertex   -1.828055e+002 2.420018e+002 -3.885781e-015
      vertex   -1.827502e+002 2.422478e+002 4.000000e+000
    endloop
  endfacet
  facet normal 9.756256e-001 -2.194416e-001 0.000000e+000
    outer loop
      vertex   -1.827502e+002 2.422478e+002 4.000000e+000
      vertex   -1.828055e+002 2.420018e+002 -3.885781e-015
      vertex   -1.827502e+002 2.422478e+002 -3.885781e-015
    endloop
  endfacet
  facet normal 9.524038e-001 -3.048394e-001 0.000000e+000
    outer loop
      vertex   -1.827502e+002 2.422478e+002 4.000000e+000
      vertex   -1.827502e+002 2.422478e+002 -3.885781e-015
      vertex   -1.826733e+002 2.424879e+002 4.000000e+000
    endloop
  endfacet
  facet normal 9.524038e-001 -3.048394e-001 0.000000e+000
    outer loop
      vertex   -1.826733e+002 2.424879e+002 4.000000e+000
      vertex   -1.827502e+002 2.422478e+002 -3.885781e-015
      vertex   -1.826733e+002 2.424879e+002 -3.885781e-015
    endloop
  endfacet
  facet normal 9.217572e-001 -3.877675e-001 0.000000e+000
    outer loop
      vertex   -1.826733e+002 2.424879e+002 4.000000e+000
      vertex   -1.826733e+002 2.424879e+002 -3.885781e-015
      vertex   -1.825755e+002 2.427203e+002 4.000000e+000
    endloop
  endfacet
  facet normal 9.217572e-001 -3.877675e-001 0.000000e+000
    outer loop
      vertex   -1.825755e+002 2.427203e+002 4.000000e+000
      vertex   -1.826733e+002 2.424879e+002 -3.885781e-015
      vertex   -1.825755e+002 2.427203e+002 -3.885781e-015
    endloop
  endfacet
  facet normal 8.838645e-001 -4.677431e-001 0.000000e+000
    outer loop
      vertex   -1.825755e+002 2.427203e+002 4.000000e+000
      vertex   -1.825755e+002 2.427203e+002 -3.885781e-015
      vertex   -1.824576e+002 2.429432e+002 4.000000e+000
    endloop
  endfacet
  facet normal 8.838645e-001 -4.677431e-001 0.000000e+000
    outer loop
      vertex   -1.824576e+002 2.429432e+002 4.000000e+000
      vertex   -1.825755e+002 2.427203e+002 -3.885781e-015
      vertex   -1.824576e+002 2.429432e+002 -3.885781e-015
    endloop
  endfacet
  facet normal 8.390860e-001 -5.439988e-001 0.000000e+000
    outer loop
      vertex   -1.824576e+002 2.429432e+002 4.000000e+000
      vertex   -1.824576e+002 2.429432e+002 -3.885781e-015
      vertex   -1.823204e+002 2.431547e+002 4.000000e+000
    endloop
  endfacet
  facet normal 8.390860e-001 -5.439988e-001 0.000000e+000
    outer loop
      vertex   -1.823204e+002 2.431547e+002 4.000000e+000
      vertex   -1.824576e+002 2.429432e+002 -3.885781e-015
      vertex   -1.823204e+002 2.431547e+002 -3.885781e-015
    endloop
  endfacet
  facet normal 7.877004e-001 -6.160585e-001 0.000000e+000
    outer loop
      vertex   -1.823204e+002 2.431547e+002 4.000000e+000
      vertex   -1.823204e+002 2.431547e+002 -3.885781e-015
      vertex   -1.821651e+002 2.433533e+002 4.000000e+000
    endloop
  endfacet
  facet normal 7.877004e-001 -6.160585e-001 0.000000e+000
    outer loop
      vertex   -1.821651e+002 2.433533e+002 4.000000e+000
      vertex   -1.823204e+002 2.431547e+002 -3.885781e-015
      vertex   -1.821651e+002 2.433533e+002 -3.885781e-015
    endloop
  endfacet
  facet normal 7.301974e-001 -6.832362e-001 0.000000e+000
    outer loop
      vertex   -1.821651e+002 2.433533e+002 4.000000e+000
      vertex   -1.821651e+002 2.433533e+002 -3.885781e-015
      vertex   -1.819928e+002 2.435374e+002 4.000000e+000
    endloop
  endfacet
  facet normal 7.301974e-001 -6.832362e-001 0.000000e+000
    outer loop
      vertex   -1.819928e+002 2.435374e+002 4.000000e+000
      vertex   -1.821651e+002 2.433533e+002 -3.885781e-015
      vertex   -1.819928e+002 2.435374e+002 -3.885781e-015
    endloop
  endfacet
  facet normal 6.669293e-001 -7.451210e-001 0.000000e+000
    outer loop
      vertex   -1.819928e+002 2.435374e+002 4.000000e+000
      vertex   -1.819928e+002 2.435374e+002 -3.885781e-015
      vertex   -1.818050e+002 2.437056e+002 4.000000e+000
    endloop
  endfacet
  facet normal 6.669293e-001 -7.451210e-001 0.000000e+000
    outer loop
      vertex   -1.818050e+002 2.437056e+002 4.000000e+000
      vertex   -1.819928e+002 2.435374e+002 -3.885781e-015
      vertex   -1.818050e+002 2.437056e+002 -3.885781e-015
    endloop
  endfacet
  facet normal 5.984690e-001 -8.011460e-001 0.000000e+000
    outer loop
      vertex   -1.818050e+002 2.437056e+002 4.000000e+000
      vertex   -1.818050e+002 2.437056e+002 -3.885781e-015
      vertex   -1.816030e+002 2.438565e+002 4.000000e+000
    endloop
  endfacet
  facet normal 5.984690e-001 -8.011460e-001 0.000000e+000
    outer loop
      vertex   -1.816030e+002 2.438565e+002 4.000000e+000
      vertex   -1.818050e+002 2.437056e+002 -3.885781e-015
      vertex   -1.816030e+002 2.438565e+002 -3.885781e-015
    endloop
  endfacet
  facet normal 5.253125e-001 -8.509094e-001 0.000000e+000
    outer loop
      vertex   -1.816030e+002 2.438565e+002 4.000000e+000
      vertex   -1.816030e+002 2.438565e+002 -3.885781e-015
      vertex   -1.813884e+002 2.439889e+002 4.000000e+000
    endloop
  endfacet
  facet normal 5.253125e-001 -8.509094e-001 0.000000e+000
    outer loop
      vertex   -1.813884e+002 2.439889e+002 4.000000e+000
      vertex   -1.816030e+002 2.438565e+002 -3.885781e-015
      vertex   -1.813884e+002 2.439889e+002 -3.885781e-015
    endloop
  endfacet
  facet normal 4.480849e-001 -8.939911e-001 0.000000e+000
    outer loop
      vertex   -1.813884e+002 2.439889e+002 4.000000e+000
      vertex   -1.813884e+002 2.439889e+002 -3.885781e-015
      vertex   -1.811630e+002 2.441019e+002 4.000000e+000
    endloop
  endfacet
  facet normal 4.480849e-001 -8.939911e-001 0.000000e+000
    outer loop
      vertex   -1.811630e+002 2.441019e+002 4.000000e+000
      vertex   -1.813884e+002 2.439889e+002 -3.885781e-015
      vertex   -1.811630e+002 2.441019e+002 -3.885781e-015
    endloop
  endfacet
  facet normal 3.672864e-001 -9.301079e-001 0.000000e+000
    outer loop
      vertex   -1.811630e+002 2.441019e+002 4.000000e+000
      vertex   -1.811630e+002 2.441019e+002 -3.885781e-015
      vertex   -1.809285e+002 2.441945e+002 4.000000e+000
    endloop
  endfacet
  facet normal 3.672864e-001 -9.301079e-001 0.000000e+000
    outer loop
      vertex   -1.809285e+002 2.441945e+002 4.000000e+000
      vertex   -1.811630e+002 2.441019e+002 -3.885781e-015
      vertex   -1.809285e+002 2.441945e+002 -3.885781e-015
    endloop
  endfacet
  facet normal 2.836535e-001 -9.589269e-001 0.000000e+000
    outer loop
      vertex   -1.809285e+002 2.441945e+002 4.000000e+000
      vertex   -1.809285e+002 2.441945e+002 -3.885781e-015
      vertex   -1.806868e+002 2.442660e+002 4.000000e+000
    endloop
  endfacet
  facet normal 2.836535e-001 -9.589269e-001 0.000000e+000
    outer loop
      vertex   -1.806868e+002 2.442660e+002 4.000000e+000
      vertex   -1.809285e+002 2.441945e+002 -3.885781e-015
      vertex   -1.806868e+002 2.442660e+002 -3.885781e-015
    endloop
  endfacet
  facet normal 1.977802e-001 -9.802464e-001 0.000000e+000
    outer loop
      vertex   -1.806868e+002 2.442660e+002 4.000000e+000
      vertex   -1.806868e+002 2.442660e+002 -3.885781e-015
      vertex   -1.804396e+002 2.443159e+002 4.000000e+000
    endloop
  endfacet
  facet normal 1.977802e-001 -9.802464e-001 0.000000e+000
    outer loop
      vertex   -1.804396e+002 2.443159e+002 4.000000e+000
      vertex   -1.806868e+002 2.442660e+002 -3.885781e-015
      vertex   -1.804396e+002 2.443159e+002 -3.885781e-015
    endloop
  endfacet
  facet normal 1.103917e-001 -9.938881e-001 0.000000e+000
    outer loop
      vertex   -1.804396e+002 2.443159e+002 4.000000e+000
      vertex   -1.804396e+002 2.443159e+002 -3.885781e-015
      vertex   -1.801890e+002 2.443437e+002 4.000000e+000
    endloop
  endfacet
  facet normal 1.103917e-001 -9.938881e-001 0.000000e+000
    outer loop
      vertex   -1.801890e+002 2.443437e+002 4.000000e+000
      vertex   -1.804396e+002 2.443159e+002 -3.885781e-015
      vertex   -1.801890e+002 2.443437e+002 -3.885781e-015
    endloop
  endfacet
  facet normal 2.214953e-002 -9.997547e-001 0.000000e+000
    outer loop
      vertex   -1.801890e+002 2.443437e+002 4.000000e+000
      vertex   -1.801890e+002 2.443437e+002 -3.885781e-015
      vertex   -1.799370e+002 2.443493e+002 4.000000e+000
    endloop
  endfacet
  facet normal 2.214953e-002 -9.997547e-001 0.000000e+000
    outer loop
      vertex   -1.799370e+002 2.443493e+002 4.000000e+000
      vertex   -1.801890e+002 2.443437e+002 -3.885781e-015
      vertex   -1.799370e+002 2.443493e+002 -3.885781e-015
    endloop
  endfacet
  facet normal -6.633022e-002 -9.977977e-001 -0.000000e+000
    outer loop
      vertex   -1.799370e+002 2.443493e+002 4.000000e+000
      vertex   -1.799370e+002 2.443493e+002 -3.885781e-015
      vertex   -1.796854e+002 2.443326e+002 4.000000e+000
    endloop
  endfacet
  facet normal -6.633022e-002 -9.977977e-001 -0.000000e+000
    outer loop
      vertex   -1.796854e+002 2.443326e+002 4.000000e+000
      vertex   -1.799370e+002 2.443493e+002 -3.885781e-015
      vertex   -1.796854e+002 2.443326e+002 -3.885781e-015
    endloop
  endfacet
  facet normal -1.542624e-001 -9.880299e-001 -0.000000e+000
    outer loop
      vertex   -1.796854e+002 2.443326e+002 4.000000e+000
      vertex   -1.796854e+002 2.443326e+002 -3.885781e-015
      vertex   -1.794363e+002 2.442937e+002 4.000000e+000
    endloop
  endfacet
  facet normal -1.542624e-001 -9.880299e-001 -0.000000e+000
    outer loop
      vertex   -1.794363e+002 2.442937e+002 4.000000e+000
      vertex   -1.796854e+002 2.443326e+002 -3.885781e-015
      vertex   -1.794363e+002 2.442937e+002 -3.885781e-015
    endloop
  endfacet
  facet normal -2.409262e-001 -9.705434e-001 -0.000000e+000
    outer loop
      vertex   -1.794363e+002 2.442937e+002 4.000000e+000
      vertex   -1.794363e+002 2.442937e+002 -3.885781e-015
      vertex   -1.791916e+002 2.442329e+002 4.000000e+000
    endloop
  endfacet
  facet normal -2.409262e-001 -9.705434e-001 -0.000000e+000
    outer loop
      vertex   -1.791916e+002 2.442329e+002 4.000000e+000
      vertex   -1.794363e+002 2.442937e+002 -3.885781e-015
      vertex   -1.791916e+002 2.442329e+002 -3.885781e-015
    endloop
  endfacet
  facet normal -3.258340e-001 -9.454270e-001 -0.000000e+000
    outer loop
      vertex   -1.791916e+002 2.442329e+002 4.000000e+000
      vertex   -1.791916e+002 2.442329e+002 -3.885781e-015
      vertex   -1.789532e+002 2.441508e+002 4.000000e+000
    endloop
  endfacet
  facet normal -3.258340e-001 -9.454270e-001 -0.000000e+000
    outer loop
      vertex   -1.789532e+002 2.441508e+002 4.000000e+000
      vertex   -1.791916e+002 2.442329e+002 -3.885781e-015
      vertex   -1.789532e+002 2.441508e+002 -3.885781e-015
    endloop
  endfacet
  facet normal -4.080860e-001 -9.129435e-001 -0.000000e+000
    outer loop
      vertex   -1.789532e+002 2.441508e+002 4.000000e+000
      vertex   -1.789532e+002 2.441508e+002 -3.885781e-015
      vertex   -1.787230e+002 2.440479e+002 4.000000e+000
    endloop
  endfacet
  facet normal -4.080860e-001 -9.129435e-001 -0.000000e+000
    outer loop
      vertex   -1.787230e+002 2.440479e+002 4.000000e+000
      vertex   -1.789532e+002 2.441508e+002 -3.885781e-015
      vertex   -1.787230e+002 2.440479e+002 -3.885781e-015
    endloop
  endfacet
  facet normal -4.871837e-001 -8.732995e-001 -0.000000e+000
    outer loop
      vertex   -1.787230e+002 2.440479e+002 4.000000e+000
      vertex   -1.787230e+002 2.440479e+002 -3.885781e-015
      vertex   -1.785028e+002 2.439251e+002 4.000000e+000
    endloop
  endfacet
  facet normal -4.871837e-001 -8.732995e-001 -0.000000e+000
    outer loop
      vertex   -1.785028e+002 2.439251e+002 4.000000e+000
      vertex   -1.787230e+002 2.440479e+002 -3.885781e-015
      vertex   -1.785028e+002 2.439251e+002 -3.885781e-015
    endloop
  endfacet
  facet normal -5.624275e-001 -8.268466e-001 -0.000000e+000
    outer loop
      vertex   -1.785028e+002 2.439251e+002 4.000000e+000
      vertex   -1.785028e+002 2.439251e+002 -3.885781e-015
      vertex   -1.782944e+002 2.437833e+002 4.000000e+000
    endloop
  endfacet
  facet normal -5.624275e-001 -8.268466e-001 -0.000000e+000
    outer loop
      vertex   -1.782944e+002 2.437833e+002 4.000000e+000
      vertex   -1.785028e+002 2.439251e+002 -3.885781e-015
      vertex   -1.782944e+002 2.437833e+002 -3.885781e-015
    endloop
  endfacet
  facet normal -6.333136e-001 -7.738953e-001 -0.000000e+000
    outer loop
      vertex   -1.782944e+002 2.437833e+002 4.000000e+000
      vertex   -1.782944e+002 2.437833e+002 -3.885781e-015
      vertex   -1.780992e+002 2.436236e+002 4.000000e+000
    endloop
  endfacet
  facet normal -6.333136e-001 -7.738953e-001 -0.000000e+000
    outer loop
      vertex   -1.780992e+002 2.436236e+002 4.000000e+000
      vertex   -1.782944e+002 2.437833e+002 -3.885781e-015
      vertex   -1.780992e+002 2.436236e+002 -3.885781e-015
    endloop
  endfacet
  facet normal -6.992565e-001 -7.148709e-001 -0.000000e+000
    outer loop
      vertex   -1.780992e+002 2.436236e+002 4.000000e+000
      vertex   -1.780992e+002 2.436236e+002 -3.885781e-015
      vertex   -1.779190e+002 2.434473e+002 4.000000e+000
    endloop
  endfacet
  facet normal -6.992565e-001 -7.148709e-001 -0.000000e+000
    outer loop
      vertex   -1.779190e+002 2.434473e+002 4.000000e+000
      vertex   -1.780992e+002 2.436236e+002 -3.885781e-015
      vertex   -1.779190e+002 2.434473e+002 -3.885781e-015
    endloop
  endfacet
  facet normal -7.596964e-001 -6.502779e-001 -0.000000e+000
    outer loop
      vertex   -1.779190e+002 2.434473e+002 4.000000e+000
      vertex   -1.779190e+002 2.434473e+002 -3.885781e-015
      vertex   -1.777550e+002 2.432557e+002 4.000000e+000
    endloop
  endfacet
  facet normal -7.596964e-001 -6.502779e-001 -0.000000e+000
    outer loop
      vertex   -1.777550e+002 2.432557e+002 4.000000e+000
      vertex   -1.779190e+002 2.434473e+002 -3.885781e-015
      vertex   -1.777550e+002 2.432557e+002 -3.885781e-015
    endloop
  endfacet
  facet normal -8.141708e-001 -5.806255e-001 -0.000000e+000
    outer loop
      vertex   -1.777550e+002 2.432557e+002 4.000000e+000
      vertex   -1.777550e+002 2.432557e+002 -3.885781e-015
      vertex   -1.776086e+002 2.430505e+002 4.000000e+000
    endloop
  endfacet
  facet normal -8.141708e-001 -5.806255e-001 -0.000000e+000
    outer loop
      vertex   -1.776086e+002 2.430505e+002 4.000000e+000
      vertex   -1.777550e+002 2.432557e+002 -3.885781e-015
      vertex   -1.776086e+002 2.430505e+002 -3.885781e-015
    endloop
  endfacet
  facet normal -8.623245e-001 -5.063561e-001 -0.000000e+000
    outer loop
      vertex   -1.776086e+002 2.430505e+002 4.000000e+000
      vertex   -1.776086e+002 2.430505e+002 -3.885781e-015
      vertex   -1.774810e+002 2.428330e+002 4.000000e+000
    endloop
  endfacet
  facet normal -8.623245e-001 -5.063561e-001 -0.000000e+000
    outer loop
      vertex   -1.774810e+002 2.428330e+002 4.000000e+000
      vertex   -1.776086e+002 2.430505e+002 -3.885781e-015
      vertex   -1.774810e+002 2.428330e+002 -3.885781e-015
    endloop
  endfacet
  facet normal -9.036922e-001 -4.281826e-001 -0.000000e+000
    outer loop
      vertex   -1.774810e+002 2.428330e+002 4.000000e+000
      vertex   -1.774810e+002 2.428330e+002 -3.885781e-015
      vertex   -1.773730e+002 2.426052e+002 4.000000e+000
    endloop
  endfacet
  facet normal -9.036922e-001 -4.281826e-001 -0.000000e+000
    outer loop
      vertex   -1.773730e+002 2.426052e+002 4.000000e+000
      vertex   -1.774810e+002 2.428330e+002 -3.885781e-015
      vertex   -1.773730e+002 2.426052e+002 -3.885781e-015
    endloop
  endfacet
  facet normal -9.379923e-001 -3.466559e-001 -0.000000e+000
    outer loop
      vertex   -1.773730e+002 2.426052e+002 4.000000e+000
      vertex   -1.773730e+002 2.426052e+002 -3.885781e-015
      vertex   -1.772856e+002 2.423687e+002 4.000000e+000
    endloop
  endfacet
  facet normal -9.379923e-001 -3.466559e-001 -0.000000e+000
    outer loop
      vertex   -1.772856e+002 2.423687e+002 4.000000e+000
      vertex   -1.773730e+002 2.426052e+002 -3.885781e-015
      vertex   -1.772856e+002 2.423687e+002 -3.885781e-015
    endloop
  endfacet
  facet normal -9.649730e-001 -2.623492e-001 -0.000000e+000
    outer loop
      vertex   -1.772856e+002 2.423687e+002 4.000000e+000
      vertex   -1.772856e+002 2.423687e+002 -3.885781e-015
      vertex   -1.772195e+002 2.421254e+002 4.000000e+000
    endloop
  endfacet
  facet normal -9.649730e-001 -2.623492e-001 -0.000000e+000
    outer loop
      vertex   -1.772195e+002 2.421254e+002 4.000000e+000
      vertex   -1.772856e+002 2.423687e+002 -3.885781e-015
      vertex   -1.772195e+002 2.421254e+002 -3.885781e-015
    endloop
  endfacet
  facet normal -9.843800e-001 -1.760567e-001 -0.000000e+000
    outer loop
      vertex   -1.772195e+002 2.421254e+002 4.000000e+000
      vertex   -1.772195e+002 2.421254e+002 -3.885781e-015
      vertex   -1.771751e+002 2.418772e+002 4.000000e+000
    endloop
  endfacet
  facet normal -9.843800e-001 -1.760567e-001 -0.000000e+000
    outer loop
      vertex   -1.771751e+002 2.418772e+002 4.000000e+000
      vertex   -1.772195e+002 2.421254e+002 -3.885781e-015
      vertex   -1.771751e+002 2.418772e+002 -3.885781e-015
    endloop
  endfacet
  facet normal -9.960834e-001 -8.841836e-002 -0.000000e+000
    outer loop
      vertex   -1.771751e+002 2.418772e+002 4.000000e+000
      vertex   -1.771751e+002 2.418772e+002 -3.885781e-015
      vertex   -1.771528e+002 2.416261e+002 4.000000e+000
    endloop
  endfacet
  facet normal -9.960834e-001 -8.841836e-002 -0.000000e+000
    outer loop
      vertex   -1.771528e+002 2.416261e+002 4.000000e+000
      vertex   -1.771751e+002 2.418772e+002 -3.885781e-015
      vertex   -1.771528e+002 2.416261e+002 -3.885781e-015
    endloop
  endfacet
  facet normal -1.000000e+000 -0.000000e+000 -0.000000e+000
    outer loop
      vertex   -1.771528e+002 2.416261e+002 4.000000e+000
      vertex   -1.771528e+002 2.416261e+002 -3.885781e-015
      vertex   -1.771528e+002 2.413739e+002 4.000000e+000
    endloop
  endfacet
  facet normal -1.000000e+000 0.000000e+000 0.000000e+000
    outer loop
      vertex   -1.771528e+002 2.413739e+002 4.000000e+000
      vertex   -1.771528e+002 2.416261e+002 -3.885781e-015
      vertex   -1.771528e+002 2.413739e+002 -3.885781e-015
    endloop
  endfacet
  facet normal -9.960834e-001 8.841836e-002 0.000000e+000
    outer loop
      vertex   -1.771528e+002 2.413739e+002 4.000000e+000
      vertex   -1.771528e+002 2.413739e+002 -3.885781e-015
      vertex   -1.771751e+002 2.411228e+002 4.000000e+000
    endloop
  endfacet
  facet normal -9.960834e-001 8.841836e-002 0.000000e+000
    outer loop
      vertex   -1.771751e+002 2.411228e+002 4.000000e+000
      vertex   -1.771528e+002 2.413739e+002 -3.885781e-015
      vertex   -1.771751e+002 2.411228e+002 -3.885781e-015
    endloop
  endfacet
  facet normal -9.843800e-001 1.760567e-001 0.000000e+000
    outer loop
      vertex   -1.771751e+002 2.411228e+002 4.000000e+000
      vertex   -1.771751e+002 2.411228e+002 -3.885781e-015
      vertex   -1.772195e+002 2.408746e+002 4.000000e+000
    endloop
  endfacet
  facet normal -9.843800e-001 1.760567e-001 0.000000e+000
    outer loop
      vertex   -1.772195e+002 2.408746e+002 4.000000e+000
      vertex   -1.771751e+002 2.411228e+002 -3.885781e-015
      vertex   -1.772195e+002 2.408746e+002 -3.885781e-015
    endloop
  endfacet
  facet normal -9.649730e-001 2.623492e-001 0.000000e+000
    outer loop
      vertex   -1.772195e+002 2.408746e+002 4.000000e+000
      vertex   -1.772195e+002 2.408746e+002 -3.885781e-015
      vertex   -1.772856e+002 2.406313e+002 4.000000e+000
    endloop
  endfacet
  facet normal -9.649730e-001 2.623492e-001 0.000000e+000
    outer loop
      vertex   -1.772856e+002 2.406313e+002 4.000000e+000
      vertex   -1.772195e+002 2.408746e+002 -3.885781e-015
      vertex   -1.772856e+002 2.406313e+002 -3.885781e-015
    endloop
  endfacet
  facet normal -9.379923e-001 3.466559e-001 0.000000e+000
    outer loop
      vertex   -1.772856e+002 2.406313e+002 4.000000e+000
      vertex   -1.772856e+002 2.406313e+002 -3.885781e-015
      vertex   -1.773730e+002 2.403948e+002 4.000000e+000
    endloop
  endfacet
  facet normal -9.379923e-001 3.466559e-001 0.000000e+000
    outer loop
      vertex   -1.773730e+002 2.403948e+002 4.000000e+000
      vertex   -1.772856e+002 2.406313e+002 -3.885781e-015
      vertex   -1.773730e+002 2.403948e+002 -3.885781e-015
    endloop
  endfacet
  facet normal -9.036922e-001 4.281826e-001 0.000000e+000
    outer loop
      vertex   -1.773730e+002 2.403948e+002 4.000000e+000
      vertex   -1.773730e+002 2.403948e+002 -3.885781e-015
      vertex   -1.774810e+002 2.401670e+002 4.000000e+000
    endloop
  endfacet
  facet normal -9.036922e-001 4.281826e-001 0.000000e+000
    outer loop
      vertex   -1.774810e+002 2.401670e+002 4.000000e+000
      vertex   -1.773730e+002 2.403948e+002 -3.885781e-015
      vertex   -1.774810e+002 2.401670e+002 -3.885781e-015
    endloop
  endfacet
  facet normal -8.623245e-001 5.063561e-001 0.000000e+000
    outer loop
      vertex   -1.774810e+002 2.401670e+002 4.000000e+000
      vertex   -1.774810e+002 2.401670e+002 -3.885781e-015
      vertex   -1.776086e+002 2.399495e+002 4.000000e+000
    endloop
  endfacet
  facet normal -8.623245e-001 5.063561e-001 0.000000e+000
    outer loop
      vertex   -1.776086e+002 2.399495e+002 4.000000e+000
      vertex   -1.774810e+002 2.401670e+002 -3.885781e-015
      vertex   -1.776086e+002 2.399495e+002 -3.885781e-015
    endloop
  endfacet
  facet normal -8.141708e-001 5.806255e-001 0.000000e+000
    outer loop
      vertex   -1.776086e+002 2.399495e+002 4.000000e+000
      vertex   -1.776086e+002 2.399495e+002 -3.885781e-015
      vertex   -1.777550e+002 2.397443e+002 4.000000e+000
    endloop
  endfacet
  facet normal -8.141708e-001 5.806255e-001 0.000000e+000
    outer loop
      vertex   -1.777550e+002 2.397443e+002 4.000000e+000
      vertex   -1.776086e+002 2.399495e+002 -3.885781e-015
      vertex   -1.777550e+002 2.397443e+002 -3.885781e-015
    endloop
  endfacet
  facet normal -7.596964e-001 6.502779e-001 0.000000e+000
    outer loop
      vertex   -1.777550e+002 2.397443e+002 4.000000e+000
      vertex   -1.777550e+002 2.397443e+002 -3.885781e-015
      vertex   -1.779190e+002 2.395527e+002 4.000000e+000
    endloop
  endfacet
  facet normal -7.596964e-001 6.502779e-001 0.000000e+000
    outer loop
      vertex   -1.779190e+002 2.395527e+002 4.000000e+000
      vertex   -1.777550e+002 2.397443e+002 -3.885781e-015
      vertex   -1.779190e+002 2.395527e+002 -3.885781e-015
    endloop
  endfacet
  facet normal -6.992565e-001 7.148709e-001 0.000000e+000
    outer loop
      vertex   -1.779190e+002 2.395527e+002 4.000000e+000
      vertex   -1.779190e+002 2.395527e+002 -3.885781e-015
      vertex   -1.780992e+002 2.393764e+002 4.000000e+000
    endloop
  endfacet
  facet normal -6.992565e-001 7.148709e-001 0.000000e+000
    outer loop
      vertex   -1.780992e+002 2.393764e+002 4.000000e+000
      vertex   -1.779190e+002 2.395527e+002 -3.885781e-015
      vertex   -1.780992e+002 2.393764e+002 -3.885781e-015
    endloop
  endfacet
  facet normal -6.333136e-001 7.738953e-001 0.000000e+000
    outer loop
      vertex   -1.780992e+002 2.393764e+002 4.000000e+000
      vertex   -1.780992e+002 2.393764e+002 -3.885781e-015
      vertex   -1.782944e+002 2.392167e+002 4.000000e+000
    endloop
  endfacet
  facet normal -6.333136e-001 7.738953e-001 0.000000e+000
    outer loop
      vertex   -1.782944e+002 2.392167e+002 4.000000e+000
      vertex   -1.780992e+002 2.393764e+002 -3.885781e-015
      vertex   -1.782944e+002 2.392167e+002 -3.885781e-015
    endloop
  endfacet
  facet normal -5.624275e-001 8.268466e-001 0.000000e+000
    outer loop
      vertex   -1.782944e+002 2.392167e+002 4.000000e+000
      vertex   -1.782944e+002 2.392167e+002 -3.885781e-015
      vertex   -1.785028e+002 2.390749e+002 4.000000e+000
    endloop
  endfacet
  facet normal -5.624275e-001 8.268466e-001 0.000000e+000
    outer loop
      vertex   -1.785028e+002 2.390749e+002 4.000000e+000
      vertex   -1.782944e+002 2.392167e+002 -3.885781e-015
      vertex   -1.785028e+002 2.390749e+002 -3.885781e-015
    endloop
  endfacet
  facet normal -4.871837e-001 8.732995e-001 0.000000e+000
    outer loop
      vertex   -1.785028e+002 2.390749e+002 4.000000e+000
      vertex   -1.785028e+002 2.390749e+002 -3.885781e-015
      vertex   -1.787230e+002 2.389521e+002 4.000000e+000
    endloop
  endfacet
  facet normal -4.871837e-001 8.732995e-001 0.000000e+000
    outer loop
      vertex   -1.787230e+002 2.389521e+002 4.000000e+000
      vertex   -1.785028e+002 2.390749e+002 -3.885781e-015
      vertex   -1.787230e+002 2.389521e+002 -3.885781e-015
    endloop
  endfacet
  facet normal -4.080860e-001 9.129435e-001 0.000000e+000
    outer loop
      vertex   -1.787230e+002 2.389521e+002 4.000000e+000
      vertex   -1.787230e+002 2.389521e+002 -3.885781e-015
      vertex   -1.789532e+002 2.388492e+002 4.000000e+000
    endloop
  endfacet
  facet normal -4.080860e-001 9.129435e-001 0.000000e+000
    outer loop
      vertex   -1.789532e+002 2.388492e+002 4.000000e+000
      vertex   -1.787230e+002 2.389521e+002 -3.885781e-015
      vertex   -1.789532e+002 2.388492e+002 -3.885781e-015
    endloop
  endfacet
  facet normal -3.258340e-001 9.454270e-001 0.000000e+000
    outer loop
      vertex   -1.789532e+002 2.388492e+002 4.000000e+000
      vertex   -1.789532e+002 2.388492e+002 -3.885781e-015
      vertex   -1.791916e+002 2.387671e+002 4.000000e+000
    endloop
  endfacet
  facet normal -3.258340e-001 9.454270e-001 0.000000e+000
    outer loop
      vertex   -1.791916e+002 2.387671e+002 4.000000e+000
      vertex   -1.789532e+002 2.388492e+002 -3.885781e-015
      vertex   -1.791916e+002 2.387671e+002 -3.885781e-015
    endloop
  endfacet
  facet normal -2.409262e-001 9.705434e-001 0.000000e+000
    outer loop
      vertex   -1.791916e+002 2.387671e+002 4.000000e+000
      vertex   -1.791916e+002 2.387671e+002 -3.885781e-015
      vertex   -1.794363e+002 2.387063e+002 4.000000e+000
    endloop
  endfacet
  facet normal -2.409262e-001 9.705434e-001 0.000000e+000
    outer loop
      vertex   -1.794363e+002 2.387063e+002 4.000000e+000
      vertex   -1.791916e+002 2.387671e+002 -3.885781e-015
      vertex   -1.794363e+002 2.387063e+002 -3.885781e-015
    endloop
  endfacet
  facet normal -1.542624e-001 9.880299e-001 0.000000e+000
    outer loop
      vertex   -1.794363e+002 2.387063e+002 4.000000e+000
      vertex   -1.794363e+002 2.387063e+002 -3.885781e-015
      vertex   -1.796854e+002 2.386674e+002 4.000000e+000
    endloop
  endfacet
  facet normal -1.542624e-001 9.880299e-001 0.000000e+000
    outer loop
      vertex   -1.796854e+002 2.386674e+002 4.000000e+000
      vertex   -1.794363e+002 2.387063e+002 -3.885781e-015
      vertex   -1.796854e+002 2.386674e+002 -3.885781e-015
    endloop
  endfacet
  facet normal -6.633022e-002 9.977977e-001 0.000000e+000
    outer loop
      vertex   -1.796854e+002 2.386674e+002 4.000000e+000
      vertex   -1.796854e+002 2.386674e+002 -3.885781e-015
      vertex   -1.799370e+002 2.386507e+002 4.000000e+000
    endloop
  endfacet
  facet normal -6.633022e-002 9.977977e-001 0.000000e+000
    outer loop
      vertex   -1.799370e+002 2.386507e+002 4.000000e+000
      vertex   -1.796854e+002 2.386674e+002 -3.885781e-015
      vertex   -1.799370e+002 2.386507e+002 -3.885781e-015
    endloop
  endfacet
  facet normal 2.214953e-002 9.997547e-001 0.000000e+000
    outer loop
      vertex   -1.799370e+002 2.386507e+002 4.000000e+000
      vertex   -1.799370e+002 2.386507e+002 -3.885781e-015
      vertex   -1.801890e+002 2.386563e+002 4.000000e+000
    endloop
  endfacet
  facet normal 2.214953e-002 9.997547e-001 0.000000e+000
    outer loop
      vertex   -1.801890e+002 2.386563e+002 4.000000e+000
      vertex   -1.799370e+002 2.386507e+002 -3.885781e-015
      vertex   -1.801890e+002 2.386563e+002 -3.885781e-015
    endloop
  endfacet
  facet normal 1.103917e-001 9.938881e-001 0.000000e+000
    outer loop
      vertex   -1.801890e+002 2.386563e+002 4.000000e+000
      vertex   -1.801890e+002 2.386563e+002 -3.885781e-015
      vertex   -1.804396e+002 2.386841e+002 4.000000e+000
    endloop
  endfacet
  facet normal 1.103917e-001 9.938881e-001 0.000000e+000
    outer loop
      vertex   -1.804396e+002 2.386841e+002 4.000000e+000
      vertex   -1.801890e+002 2.386563e+002 -3.885781e-015
      vertex   -1.804396e+002 2.386841e+002 -3.885781e-015
    endloop
  endfacet
  facet normal 1.977802e-001 9.802464e-001 0.000000e+000
    outer loop
      vertex   -1.804396e+002 2.386841e+002 4.000000e+000
      vertex   -1.804396e+002 2.386841e+002 -3.885781e-015
      vertex   -1.806868e+002 2.387340e+002 4.000000e+000
    endloop
  endfacet
  facet normal 1.977802e-001 9.802464e-001 0.000000e+000
    outer loop
      vertex   -1.806868e+002 2.387340e+002 4.000000e+000
      vertex   -1.804396e+002 2.386841e+002 -3.885781e-015
      vertex   -1.806868e+002 2.387340e+002 -3.885781e-015
    endloop
  endfacet
  facet normal 2.836535e-001 9.589269e-001 0.000000e+000
    outer loop
      vertex   -1.806868e+002 2.387340e+002 4.000000e+000
      vertex   -1.806868e+002 2.387340e+002 -3.885781e-015
      vertex   -1.809285e+002 2.388055e+002 4.000000e+000
    endloop
  endfacet
  facet normal 2.836535e-001 9.589269e-001 0.000000e+000
    outer loop
      vertex   -1.809285e+002 2.388055e+002 4.000000e+000
      vertex   -1.806868e+002 2.387340e+002 -3.885781e-015
      vertex   -1.809285e+002 2.388055e+002 -3.885781e-015
    endloop
  endfacet
  facet normal 3.672864e-001 9.301079e-001 0.000000e+000
    outer loop
      vertex   -1.809285e+002 2.388055e+002 4.000000e+000
      vertex   -1.809285e+002 2.388055e+002 -3.885781e-015
      vertex   -1.811630e+002 2.388981e+002 4.000000e+000
    endloop
  endfacet
  facet normal 3.672864e-001 9.301079e-001 0.000000e+000
    outer loop
      vertex   -1.811630e+002 2.388981e+002 4.000000e+000
      vertex   -1.809285e+002 2.388055e+002 -3.885781e-015
      vertex   -1.811630e+002 2.388981e+002 -3.885781e-015
    endloop
  endfacet
  facet normal 4.480849e-001 8.939911e-001 0.000000e+000
    outer loop
      vertex   -1.811630e+002 2.388981e+002 4.000000e+000
      vertex   -1.811630e+002 2.388981e+002 -3.885781e-015
      vertex   -1.813884e+002 2.390111e+002 4.000000e+000
    endloop
  endfacet
  facet normal 4.480849e-001 8.939911e-001 0.000000e+000
    outer loop
      vertex   -1.813884e+002 2.390111e+002 4.000000e+000
      vertex   -1.811630e+002 2.388981e+002 -3.885781e-015
      vertex   -1.813884e+002 2.390111e+002 -3.885781e-015
    endloop
  endfacet
  facet normal 5.253125e-001 8.509094e-001 0.000000e+000
    outer loop
      vertex   -1.813884e+002 2.390111e+002 4.000000e+000
      vertex   -1.813884e+002 2.390111e+002 -3.885781e-015
      vertex   -1.816030e+002 2.391435e+002 4.000000e+000
    endloop
  endfacet
  facet normal 5.253125e-001 8.509094e-001 0.000000e+000
    outer loop
      vertex   -1.816030e+002 2.391435e+002 4.000000e+000
      vertex   -1.813884e+002 2.390111e+002 -3.885781e-015
      vertex   -1.816030e+002 2.391435e+002 -3.885781e-015
    endloop
  endfacet
  facet normal 5.984690e-001 8.011460e-001 0.000000e+000
    outer loop
      vertex   -1.816030e+002 2.391435e+002 4.000000e+000
      vertex   -1.816030e+002 2.391435e+002 -3.885781e-015
      vertex   -1.818050e+002 2.392944e+002 4.000000e+000
    endloop
  endfacet
  facet normal 5.984690e-001 8.011460e-001 0.000000e+000
    outer loop
      vertex   -1.818050e+002 2.392944e+002 4.000000e+000
      vertex   -1.816030e+002 2.391435e+002 -3.885781e-015
      vertex   -1.818050e+002 2.392944e+002 -3.885781e-015
    endloop
  endfacet
  facet normal 6.669293e-001 7.451210e-001 0.000000e+000
    outer loop
      vertex   -1.818050e+002 2.392944e+002 4.000000e+000
      vertex   -1.818050e+002 2.392944e+002 -3.885781e-015
      vertex   -1.819928e+002 2.394626e+002 4.000000e+000
    endloop
  endfacet
  facet normal 6.669293e-001 7.451210e-001 0.000000e+000
    outer loop
      vertex   -1.819928e+002 2.394626e+002 4.000000e+000
      vertex   -1.818050e+002 2.392944e+002 -3.885781e-015
      vertex   -1.819928e+002 2.394626e+002 -3.885781e-015
    endloop
  endfacet
  facet normal 7.301974e-001 6.832362e-001 0.000000e+000
    outer loop
      vertex   -1.819928e+002 2.394626e+002 4.000000e+000
      vertex   -1.819928e+002 2.394626e+002 -3.885781e-015
      vertex   -1.821651e+002 2.396467e+002 4.000000e+000
    endloop
  endfacet
  facet normal 7.301974e-001 6.832362e-001 0.000000e+000
    outer loop
      vertex   -1.821651e+002 2.396467e+002 4.000000e+000
      vertex   -1.819928e+002 2.394626e+002 -3.885781e-015
      vertex   -1.821651e+002 2.396467e+002 -3.885781e-015
    endloop
  endfacet
  facet normal 7.877004e-001 6.160585e-001 0.000000e+000
    outer loop
      vertex   -1.821651e+002 2.396467e+002 4.000000e+000
      vertex   -1.821651e+002 2.396467e+002 -3.885781e-015
      vertex   -1.823204e+002 2.398453e+002 4.000000e+000
    endloop
  endfacet
  facet normal 7.877004e-001 6.160585e-001 0.000000e+000
    outer loop
      vertex   -1.823204e+002 2.398453e+002 4.000000e+000
      vertex   -1.821651e+002 2.396467e+002 -3.885781e-015
      vertex   -1.823204e+002 2.398453e+002 -3.885781e-015
    endloop
  endfacet
  facet normal 8.390860e-001 5.439988e-001 0.000000e+000
    outer loop
      vertex   -1.823204e+002 2.398453e+002 4.000000e+000
      vertex   -1.823204e+002 2.398453e+002 -3.885781e-015
      vertex   -1.824576e+002 2.400568e+002 4.000000e+000
    endloop
  endfacet
  facet normal 8.390860e-001 5.439988e-001 0.000000e+000
    outer loop
      vertex   -1.824576e+002 2.400568e+002 4.000000e+000
      vertex   -1.823204e+002 2.398453e+002 -3.885781e-015
      vertex   -1.824576e+002 2.400568e+002 -3.885781e-015
    endloop
  endfacet
  facet normal 8.838645e-001 4.677431e-001 0.000000e+000
    outer loop
      vertex   -1.824576e+002 2.400568e+002 4.000000e+000
      vertex   -1.824576e+002 2.400568e+002 -3.885781e-015
      vertex   -1.825755e+002 2.402797e+002 4.000000e+000
    endloop
  endfacet
  facet normal 8.838645e-001 4.677431e-001 0.000000e+000
    outer loop
      vertex   -1.825755e+002 2.402797e+002 4.000000e+000
      vertex   -1.824576e+002 2.400568e+002 -3.885781e-015
      vertex   -1.825755e+002 2.402797e+002 -3.885781e-015
    endloop
  endfacet
  facet normal 9.217572e-001 3.877675e-001 0.000000e+000
    outer loop
      vertex   -1.825755e+002 2.402797e+002 4.000000e+000
      vertex   -1.825755e+002 2.402797e+002 -3.885781e-015
      vertex   -1.826733e+002 2.405121e+002 4.000000e+000
    endloop
  endfacet
  facet normal 9.217572e-001 3.877675e-001 0.000000e+000
    outer loop
      vertex   -1.826733e+002 2.405121e+002 4.000000e+000
      vertex   -1.825755e+002 2.402797e+002 -3.885781e-015
      vertex   -1.826733e+002 2.405121e+002 -3.885781e-015
    endloop
  endfacet
  facet normal 9.524038e-001 3.048394e-001 0.000000e+000
    outer loop
      vertex   -1.826733e+002 2.405121e+002 4.000000e+000
      vertex   -1.826733e+002 2.405121e+002 -3.885781e-015
      vertex   -1.827502e+002 2.407522e+002 4.000000e+000
    endloop
  endfacet
  facet normal 9.524038e-001 3.048394e-001 0.000000e+000
    outer loop
      vertex   -1.827502e+002 2.407522e+002 4.000000e+000
      vertex   -1.826733e+002 2.405121e+002 -3.885781e-015
      vertex   -1.827502e+002 2.407522e+002 -3.885781e-015
    endloop
  endfacet
  facet normal 9.756256e-001 2.194416e-001 0.000000e+000
    outer loop
      vertex   -1.827502e+002 2.407522e+002 4.000000e+000
      vertex   -1.827502e+002 2.407522e+002 -3.885781e-015
      vertex   -1.828055e+002 2.409982e+002 4.000000e+000
    endloop
  endfacet
  facet normal 9.756256e-001 2.194416e-001 0.000000e+000
    outer loop
      vertex   -1.828055e+002 2.409982e+002 4.000000e+000
      vertex   -1.827502e+002 2.407522e+002 -3.885781e-015
      vertex   -1.828055e+002 2.409982e+002 -3.885781e-015
    endloop
  endfacet
  facet normal 9.912031e-001 1.323500e-001 0.000000e+000
    outer loop
      vertex   -1.828055e+002 2.409982e+002 4.000000e+000
      vertex   -1.828055e+002 2.409982e+002 -3.885781e-015
      vertex   -1.828389e+002 2.412481e+002 4.000000e+000
    endloop
  endfacet
  facet normal 9.912031e-001 1.323500e-001 0.000000e+000
    outer loop
      vertex   -1.828389e+002 2.412481e+002 4.000000e+000
      vertex   -1.828055e+002 2.409982e+002 -3.885781e-015
      vertex   -1.828389e+002 2.412481e+002 -3.885781e-015
    endloop
  endfacet
  facet normal 9.990209e-001 4.424088e-002 0.000000e+000
    outer loop
      vertex   -1.828389e+002 2.412481e+002 4.000000e+000
      vertex   -1.828389e+002 2.412481e+002 -3.885781e-015
      vertex   -1.828500e+002 2.415000e+002 -3.885781e-015
    endloop
  endfacet
  facet normal 1.000000e+000 0.000000e+000 0.000000e+000
    outer loop
      vertex   -2.050933e+002 2.014463e+002 2.000000e+000
      vertex   -2.050933e+002 2.414463e+002 2.000000e+000
      vertex   -2.050933e+002 2.014463e+002 4.000000e+000
    endloop
  endfacet
  facet normal 1.000000e+000 -0.000000e+000 0.000000e+000
    outer loop
      vertex   -2.050933e+002 2.014463e+002 4.000000e+000
      vertex   -2.050933e+002 2.414463e+002 2.000000e+000
      vertex   -2.050933e+002 2.414463e+002 4.000000e+000
    endloop
  endfacet
  facet normal 1.000000e+000 0.000000e+000 0.000000e+000
    outer loop
      vertex   -2.050933e+002 2.414463e+002 4.000000e+000
      vertex   -2.050933e+002 2.414463e+002 2.000000e+000
      vertex   -2.050933e+002 2.814463e+002 2.000000e+000
    endloop
  endfacet
  facet normal 1.000000e+000 -0.000000e+000 0.000000e+000
    outer loop
      vertex   -2.050933e+002 2.414463e+002 4.000000e+000
      vertex   -2.050933e+002 2.814463e+002 2.000000e+000
      vertex   -2.050933e+002 2.814463e+002 4.000000e+000
    endloop
  endfacet
  facet normal -1.000000e+000 0.000000e+000 0.000000e+000
    outer loop
      vertex   -2.070933e+002 2.814463e+002 -4.440892e-015
      vertex   -2.070933e+002 2.414463e+002 -3.330669e-015
      vertex   -2.070933e+002 2.814463e+002 4.000000e+000
    endloop
  endfacet
  facet normal -1.000000e+000 -0.000000e+000 0.000000e+000
    outer loop
      vertex   -2.070933e+002 2.814463e+002 4.000000e+000
      vertex   -2.070933e+002 2.414463e+002 -3.330669e-015
      vertex   -2.070933e+002 2.414463e+002 4.000000e+000
    endloop
  endfacet
  facet normal -1.000000e+000 0.000000e+000 -0.000000e+000
    outer loop
      vertex   -2.070933e+002 2.414463e+002 4.000000e+000
      vertex   -2.070933e+002 2.414463e+002 -3.330669e-015
      vertex   -2.070933e+002 2.014463e+002 -3.330669e-015
    endloop
  endfacet
  facet normal -1.000000e+000 -0.000000e+000 0.000000e+000
    outer loop
      vertex   -2.070933e+002 2.414463e+002 4.000000e+000
      vertex   -2.070933e+002 2.014463e+002 -3.330669e-015
      vertex   -2.070933e+002 2.014463e+002 4.000000e+000
    endloop
  endfacet
  facet normal 0.000000e+000 -0.000000e+000 1.000000e+000
    outer loop
      vertex   -2.050933e+002 2.014463e+002 4.000000e+000
      vertex   -2.050933e+002 2.414463e+002 4.000000e+000
      vertex   -2.070933e+002 2.014463e+002 4.000000e+000
    endloop
  endfacet
  facet normal 0.000000e+000 0.000000e+000 1.000000e+000
    outer loop
      vertex   -2.070933e+002 2.014463e+002 4.000000e+000
      vertex   -2.050933e+002 2.414463e+002 4.000000e+000
      vertex   -2.070933e+002 2.414463e+002 4.000000e+000
    endloop
  endfacet
  facet normal 0.000000e+000 0.000000e+000 1.000000e+000
    outer loop
      vertex   -2.070933e+002 2.414463e+002 4.000000e+000
      vertex   -2.050933e+002 2.414463e+002 4.000000e+000
      vertex   -2.050933e+002 2.814463e+002 4.000000e+000
    endloop
  endfacet
  facet normal 0.000000e+000 0.000000e+000 1.000000e+000
    outer loop
      vertex   -2.070933e+002 2.414463e+002 4.000000e+000
      vertex   -2.050933e+002 2.814463e+002 4.000000e+000
      vertex   -2.070933e+002 2.814463e+002 4.000000e+000
    endloop
  endfacet
  facet normal -2.289975e-017 1.014098e-018 -1.000000e+000
    outer loop
      vertex   -1.828389e+002 2.417519e+002 -3.885781e-015
      vertex   -1.828500e+002 2.415000e+002 -3.885781e-015
      vertex   -2.070933e+002 2.414463e+002 -3.330669e-015
    endloop
  endfacet
  facet normal -2.289526e-017 -1.013899e-018 -1.000000e+000
    outer loop
      vertex   -2.070933e+002 2.414463e+002 -3.330669e-015
      vertex   -1.828500e+002 2.415000e+002 -3.885781e-015
      vertex   -1.828389e+002 2.412481e+002 -3.885781e-015
    endloop
  endfacet
  facet normal -2.291197e-017 -3.059312e-018 -1.000000e+000
    outer loop
      vertex   -2.070933e+002 2.414463e+002 -3.330669e-015
      vertex   -1.828389e+002 2.412481e+002 -3.885781e-015
      vertex   -1.828055e+002 2.409982e+002 -3.885781e-015
    endloop
  endfacet
  facet normal -2.295076e-017 -5.162178e-018 -1.000000e+000
    outer loop
      vertex   -1.828055e+002 2.409982e+002 -3.885781e-015
      vertex   -1.827502e+002 2.407522e+002 -3.885781e-015
      vertex   -2.070933e+002 2.414463e+002 -3.330669e-015
    endloop
  endfacet
  facet normal -2.301360e-017 -7.366048e-018 -1.000000e+000
    outer loop
      vertex   -2.070933e+002 2.414463e+002 -3.330669e-015
      vertex   -1.827502e+002 2.407522e+002 -3.885781e-015
      vertex   -1.826733e+002 2.405121e+002 -3.885781e-015
    endloop
  endfacet
  facet normal -2.310362e-017 -9.719299e-018 -1.000000e+000
    outer loop
      vertex   -2.070933e+002 2.414463e+002 -3.330669e-015
      vertex   -1.826733e+002 2.405121e+002 -3.885781e-015
      vertex   -1.825755e+002 2.402797e+002 -3.885781e-015
    endloop
  endfacet
  facet normal -2.322600e-017 -1.229125e-017 -1.000000e+000
    outer loop
      vertex   -1.825755e+002 2.402797e+002 -3.885781e-015
      vertex   -1.824576e+002 2.400568e+002 -3.885781e-015
      vertex   -2.070933e+002 2.414463e+002 -3.330669e-015
    endloop
  endfacet
  facet normal -2.338796e-017 -1.516296e-017 -1.000000e+000
    outer loop
      vertex   -2.070933e+002 2.414463e+002 -3.330669e-015
      vertex   -1.824576e+002 2.400568e+002 -3.885781e-015
      vertex   -1.823204e+002 2.398453e+002 -3.885781e-015
    endloop
  endfacet
  facet normal -2.360093e-017 -1.845823e-017 -1.000000e+000
    outer loop
      vertex   -2.070933e+002 2.414463e+002 -3.330669e-015
      vertex   -1.823204e+002 2.398453e+002 -3.885781e-015
      vertex   -1.821651e+002 2.396467e+002 -3.885781e-015
    endloop
  endfacet
  facet normal -2.388156e-017 -2.234567e-017 -1.000000e+000
    outer loop
      vertex   -1.821651e+002 2.396467e+002 -3.885781e-015
      vertex   -1.819928e+002 2.394626e+002 -3.885781e-015
      vertex   -2.070933e+002 2.414463e+002 -3.330669e-015
    endloop
  endfacet
  facet normal -2.425741e-017 -2.710138e-017 -1.000000e+000
    outer loop
      vertex   -2.070933e+002 2.414463e+002 -3.330669e-015
      vertex   -1.819928e+002 2.394626e+002 -3.885781e-015
      vertex   -1.818050e+002 2.392944e+002 -3.885781e-015
    endloop
  endfacet
  facet normal -2.477320e-017 -3.316287e-017 -1.000000e+000
    outer loop
      vertex   -2.070933e+002 2.414463e+002 -3.330669e-015
      vertex   -1.818050e+002 2.392944e+002 -3.885781e-015
      vertex   -1.816030e+002 2.391435e+002 -3.885781e-015
    endloop
  endfacet
  facet normal -2.551027e-017 -4.132194e-017 -1.000000e+000
    outer loop
      vertex   -1.816030e+002 2.391435e+002 -3.885781e-015
      vertex   -1.813884e+002 2.390111e+002 -3.885781e-015
      vertex   -2.070933e+002 2.414463e+002 -3.330669e-015
    endloop
  endfacet
  facet normal -2.159557e-017 -0.000000e+000 -1.000000e+000
    outer loop
      vertex   -2.070933e+002 2.414463e+002 -3.330669e-015
      vertex   -1.813884e+002 2.390111e+002 -3.885781e-015
      vertex   -2.070933e+002 2.014463e+002 -3.330669e-015
    endloop
  endfacet
  facet normal -5.515163e-018 -1.100351e-017 -1.000000e+000
    outer loop
      vertex   -2.070933e+002 2.014463e+002 -3.330669e-015
      vertex   -1.813884e+002 2.390111e+002 -3.885781e-015
      vertex   -1.811630e+002 2.388981e+002 -3.885781e-015
    endloop
  endfacet
  facet normal -4.596341e-018 -1.163967e-017 -1.000000e+000
    outer loop
      vertex   -2.070933e+002 2.014463e+002 -3.330669e-015
      vertex   -1.811630e+002 2.388981e+002 -3.885781e-015
      vertex   -1.809285e+002 2.388055e+002 -3.885781e-015
    endloop
  endfacet
  facet normal -3.640972e-018 -1.230877e-017 -1.000000e+000
    outer loop
      vertex   -1.809285e+002 2.388055e+002 -3.885781e-015
      vertex   -1.806868e+002 2.387340e+002 -3.885781e-015
      vertex   -2.070933e+002 2.014463e+002 -3.330669e-015
    endloop
  endfacet
  facet normal -2.628200e-018 -1.302600e-017 -1.000000e+000
    outer loop
      vertex   -2.070933e+002 2.014463e+002 -3.330669e-015
      vertex   -1.806868e+002 2.387340e+002 -3.885781e-015
      vertex   -1.804396e+002 2.386841e+002 -3.885781e-015
    endloop
  endfacet
  facet normal -1.533809e-018 -1.380933e-017 -1.000000e+000
    outer loop
      vertex   -2.070933e+002 2.014463e+002 -3.330669e-015
      vertex   -1.804396e+002 2.386841e+002 -3.885781e-015
      vertex   -1.801890e+002 2.386563e+002 -3.885781e-015
    endloop
  endfacet
  facet normal -1.073716e-016 6.271550e-017 -1.000000e+000
    outer loop
      vertex   -2.070933e+002 2.014463e+002 -3.330669e-015
      vertex   -1.801890e+002 2.386563e+002 -3.885781e-015
      vertex   -1.553933e+002 2.014463e+002 -8.881784e-015
    endloop
  endfacet
  facet normal 3.019210e-018 1.362769e-016 -1.000000e+000
    outer loop
      vertex   -1.553933e+002 2.014463e+002 -8.881784e-015
      vertex   -1.801890e+002 2.386563e+002 -3.885781e-015
      vertex   -1.799370e+002 2.386507e+002 -3.885781e-015
    endloop
  endfacet
  facet normal -8.551789e-018 1.286436e-016 -1.000000e+000
    outer loop
      vertex   -1.553933e+002 2.014463e+002 -8.881784e-015
      vertex   -1.799370e+002 2.386507e+002 -3.885781e-015
      vertex   -1.796854e+002 2.386674e+002 -3.885781e-015
    endloop
  endfacet
  facet normal -1.901873e-017 1.218124e-016 -1.000000e+000
    outer loop
      vertex   -1.796854e+002 2.386674e+002 -3.885781e-015
      vertex   -1.794363e+002 2.387063e+002 -3.885781e-015
      vertex   -1.553933e+002 2.014463e+002 -8.881784e-015
    endloop
  endfacet
  facet normal -2.868945e-017 1.155721e-016 -1.000000e+000
    outer loop
      vertex   -1.553933e+002 2.014463e+002 -8.881784e-015
      vertex   -1.794363e+002 2.387063e+002 -3.885781e-015
      vertex   -1.791916e+002 2.387671e+002 -3.885781e-015
    endloop
  endfacet
  facet normal -3.782363e-017 1.097475e-016 -1.000000e+000
    outer loop
      vertex   -1.553933e+002 2.014463e+002 -8.881784e-015
      vertex   -1.791916e+002 2.387671e+002 -3.885781e-015
      vertex   -1.789532e+002 2.388492e+002 -3.885781e-015
    endloop
  endfacet
  facet normal -4.658914e-017 1.042262e-016 -1.000000e+000
    outer loop
      vertex   -1.789532e+002 2.388492e+002 -3.885781e-015
      vertex   -1.787230e+002 2.389521e+002 -3.885781e-015
      vertex   -1.553933e+002 2.014463e+002 -8.881784e-015
    endloop
  endfacet
  facet normal -3.033895e-016 -5.551113e-017 -1.000000e+000
    outer loop
      vertex   -1.553933e+002 2.014463e+002 -8.881784e-015
      vertex   -1.787230e+002 2.389521e+002 -3.885781e-015
      vertex   -1.553933e+002 2.414463e+002 -1.110223e-014
    endloop
  endfacet
  facet normal -3.826567e-016 6.859300e-016 -1.000000e+000
    outer loop
      vertex   -1.553933e+002 2.414463e+002 -1.110223e-014
      vertex   -1.787230e+002 2.389521e+002 -3.885781e-015
      vertex   -1.785028e+002 2.390749e+002 -3.885781e-015
    endloop
  endfacet
  facet normal -3.677482e-016 5.406409e-016 -1.000000e+000
    outer loop
      vertex   -1.553933e+002 2.414463e+002 -1.110223e-014
      vertex   -1.785028e+002 2.390749e+002 -3.885781e-015
      vertex   -1.782944e+002 2.392167e+002 -3.885781e-015
    endloop
  endfacet
  facet normal -3.576638e-016 4.370572e-016 -1.000000e+000
    outer loop
      vertex   -1.782944e+002 2.392167e+002 -3.885781e-015
      vertex   -1.780992e+002 2.393764e+002 -3.885781e-015
      vertex   -1.553933e+002 2.414463e+002 -1.110223e-014
    endloop
  endfacet
  facet normal -3.504854e-016 3.583117e-016 -1.000000e+000
    outer loop
      vertex   -1.553933e+002 2.414463e+002 -1.110223e-014
      vertex   -1.780992e+002 2.393764e+002 -3.885781e-015
      vertex   -1.779190e+002 2.395527e+002 -3.885781e-015
    endloop
  endfacet
  facet normal -3.452040e-016 2.954845e-016 -1.000000e+000
    outer loop
      vertex   -1.553933e+002 2.414463e+002 -1.110223e-014
      vertex   -1.779190e+002 2.395527e+002 -3.885781e-015
      vertex   -1.777550e+002 2.397443e+002 -3.885781e-015
    endloop
  endfacet
  facet normal -3.412361e-016 2.433524e-016 -1.000000e+000
    outer loop
      vertex   -1.777550e+002 2.397443e+002 -3.885781e-015
      vertex   -1.776086e+002 2.399495e+002 -3.885781e-015
      vertex   -1.553933e+002 2.414463e+002 -1.110223e-014
    endloop
  endfacet
  facet normal -3.382212e-016 1.986032e-016 -1.000000e+000
    outer loop
      vertex   -1.553933e+002 2.414463e+002 -1.110223e-014
      vertex   -1.776086e+002 2.399495e+002 -3.885781e-015
      vertex   -1.774810e+002 2.401670e+002 -3.885781e-015
    endloop
  endfacet
  facet normal -3.359373e-016 1.591720e-016 -1.000000e+000
    outer loop
      vertex   -1.553933e+002 2.414463e+002 -1.110223e-014
      vertex   -1.774810e+002 2.401670e+002 -3.885781e-015
      vertex   -1.773730e+002 2.403948e+002 -3.885781e-015
    endloop
  endfacet
  facet normal -3.342319e-016 1.235228e-016 -1.000000e+000
    outer loop
      vertex   -1.773730e+002 2.403948e+002 -3.885781e-015
      vertex   -1.772856e+002 2.406313e+002 -3.885781e-015
      vertex   -1.553933e+002 2.414463e+002 -1.110223e-014
    endloop
  endfacet
  facet normal -3.330039e-016 9.053445e-017 -1.000000e+000
    outer loop
      vertex   -1.553933e+002 2.414463e+002 -1.110223e-014
      vertex   -1.772856e+002 2.406313e+002 -3.885781e-015
      vertex   -1.772195e+002 2.408746e+002 -3.885781e-015
    endloop
  endfacet
  facet normal -3.321887e-016 5.941206e-017 -1.000000e+000
    outer loop
      vertex   -1.553933e+002 2.414463e+002 -1.110223e-014
      vertex   -1.772195e+002 2.408746e+002 -3.885781e-015
      vertex   -1.771751e+002 2.411228e+002 -3.885781e-015
    endloop
  endfacet
  facet normal -3.317437e-016 2.944757e-017 -1.000000e+000
    outer loop
      vertex   -1.771751e+002 2.411228e+002 -3.885781e-015
      vertex   -1.771528e+002 2.413739e+002 -3.885781e-015
      vertex   -1.553933e+002 2.414463e+002 -1.110223e-014
    endloop
  endfacet
  facet normal -3.316458e-016 0.000000e+000 -1.000000e+000
    outer loop
      vertex   -1.553933e+002 2.414463e+002 -1.110223e-014
      vertex   -1.771528e+002 2.413739e+002 -3.885781e-015
      vertex   -1.771528e+002 2.416261e+002 -3.885781e-015
    endloop
  endfacet
  facet normal -3.318893e-016 -2.946049e-017 -1.000000e+000
    outer loop
      vertex   -1.553933e+002 2.414463e+002 -1.110223e-014
      vertex   -1.771528e+002 2.416261e+002 -3.885781e-015
      vertex   -1.771751e+002 2.418772e+002 -3.885781e-015
    endloop
  endfacet
  facet normal -3.324829e-016 -5.946466e-017 -1.000000e+000
    outer loop
      vertex   -1.771751e+002 2.418772e+002 -3.885781e-015
      vertex   -1.772195e+002 2.421254e+002 -3.885781e-015
      vertex   -1.553933e+002 2.414463e+002 -1.110223e-014
    endloop
  endfacet
  facet normal -3.334534e-016 -9.065667e-017 -1.000000e+000
    outer loop
      vertex   -1.553933e+002 2.414463e+002 -1.110223e-014
      vertex   -1.772195e+002 2.421254e+002 -3.885781e-015
      vertex   -1.772856e+002 2.423687e+002 -3.885781e-015
    endloop
  endfacet
  facet normal -3.348478e-016 -1.237505e-016 -1.000000e+000
    outer loop
      vertex   -1.553933e+002 2.414463e+002 -1.110223e-014
      vertex   -1.772856e+002 2.423687e+002 -3.885781e-015
      vertex   -1.773730e+002 2.426052e+002 -3.885781e-015
    endloop
  endfacet
  facet normal -3.367354e-016 -1.595502e-016 -1.000000e+000
    outer loop
      vertex   -1.773730e+002 2.426052e+002 -3.885781e-015
      vertex   -1.774810e+002 2.428330e+002 -3.885781e-015
      vertex   -1.553933e+002 2.414463e+002 -1.110223e-014
    endloop
  endfacet
  facet normal -3.392243e-016 -1.991922e-016 -1.000000e+000
    outer loop
      vertex   -1.553933e+002 2.414463e+002 -1.110223e-014
      vertex   -1.774810e+002 2.428330e+002 -3.885781e-015
      vertex   -1.776086e+002 2.430505e+002 -3.885781e-015
    endloop
  endfacet
  facet normal -3.424770e-016 -2.442373e-016 -1.000000e+000
    outer loop
      vertex   -1.553933e+002 2.414463e+002 -1.110223e-014
      vertex   -1.776086e+002 2.430505e+002 -3.885781e-015
      vertex   -1.777550e+002 2.432557e+002 -3.885781e-015
    endloop
  endfacet
  facet normal -3.467295e-016 -2.967903e-016 -1.000000e+000
    outer loop
      vertex   -1.777550e+002 2.432557e+002 -3.885781e-015
      vertex   -1.779190e+002 2.434473e+002 -3.885781e-015
      vertex   -1.553933e+002 2.414463e+002 -1.110223e-014
    endloop
  endfacet
  facet normal -3.523653e-016 -3.602336e-016 -1.000000e+000
    outer loop
      vertex   -1.553933e+002 2.414463e+002 -1.110223e-014
      vertex   -1.779190e+002 2.434473e+002 -3.885781e-015
      vertex   -1.780992e+002 2.436236e+002 -3.885781e-015
    endloop
  endfacet
  facet normal -3.600066e-016 -4.399201e-016 -1.000000e+000
    outer loop
      vertex   -1.553933e+002 2.414463e+002 -1.110223e-014
      vertex   -1.780992e+002 2.436236e+002 -3.885781e-015
      vertex   -1.782944e+002 2.437833e+002 -3.885781e-015
    endloop
  endfacet
  facet normal -3.707326e-016 -5.450284e-016 -1.000000e+000
    outer loop
      vertex   -1.782944e+002 2.437833e+002 -3.885781e-015
      vertex   -1.785028e+002 2.439251e+002 -3.885781e-015
      vertex   -1.553933e+002 2.414463e+002 -1.110223e-014
    endloop
  endfacet
  facet normal -3.866053e-016 -6.930079e-016 -1.000000e+000
    outer loop
      vertex   -1.553933e+002 2.414463e+002 -1.110223e-014
      vertex   -1.785028e+002 2.439251e+002 -3.885781e-015
      vertex   -1.787230e+002 2.440479e+002 -3.885781e-015
    endloop
  endfacet
  facet normal -3.046815e-016 4.163335e-017 -1.000000e+000
    outer loop
      vertex   -1.553933e+002 2.414463e+002 -1.110223e-014
      vertex   -1.787230e+002 2.440479e+002 -3.885781e-015
      vertex   -1.553933e+002 2.814463e+002 -9.436896e-015
    endloop
  endfacet
  facet normal -5.188202e-017 -1.160671e-016 -1.000000e+000
    outer loop
      vertex   -1.553933e+002 2.814463e+002 -9.436896e-015
      vertex   -1.787230e+002 2.440479e+002 -3.885781e-015
      vertex   -1.789532e+002 2.441508e+002 -3.885781e-015
    endloop
  endfacet
  facet normal -4.212569e-017 -1.222302e-016 -1.000000e+000
    outer loop
      vertex   -1.553933e+002 2.814463e+002 -9.436896e-015
      vertex   -1.789532e+002 2.441508e+002 -3.885781e-015
      vertex   -1.791916e+002 2.442329e+002 -3.885781e-015
    endloop
  endfacet
  facet normal -3.195659e-017 -1.287335e-016 -1.000000e+000
    outer loop
      vertex   -1.791916e+002 2.442329e+002 -3.885781e-015
      vertex   -1.794363e+002 2.442937e+002 -3.885781e-015
      vertex   -1.553933e+002 2.814463e+002 -9.436896e-015
    endloop
  endfacet
  facet normal -2.118743e-017 -1.357026e-016 -1.000000e+000
    outer loop
      vertex   -1.553933e+002 2.814463e+002 -9.436896e-015
      vertex   -1.794363e+002 2.442937e+002 -3.885781e-015
      vertex   -1.796854e+002 2.443326e+002 -3.885781e-015
    endloop
  endfacet
  facet normal -9.528351e-018 -1.433339e-016 -1.000000e+000
    outer loop
      vertex   -1.553933e+002 2.814463e+002 -9.436896e-015
      vertex   -1.796854e+002 2.443326e+002 -3.885781e-015
      vertex   -1.799370e+002 2.443493e+002 -3.885781e-015
    endloop
  endfacet
  facet normal 3.364540e-018 -1.518639e-016 -1.000000e+000
    outer loop
      vertex   -1.799370e+002 2.443493e+002 -3.885781e-015
      vertex   -1.801890e+002 2.443437e+002 -3.885781e-015
      vertex   -1.553933e+002 2.814463e+002 -9.436896e-015
    endloop
  endfacet
  facet normal -9.663442e-017 -8.503435e-017 -1.000000e+000
    outer loop
      vertex   -1.553933e+002 2.814463e+002 -9.436896e-015
      vertex   -1.801890e+002 2.443437e+002 -3.885781e-015
      vertex   -2.070933e+002 2.814463e+002 -4.440892e-015
    endloop
  endfacet
  facet normal 1.537920e-018 -1.384634e-017 -1.000000e+000
    outer loop
      vertex   -2.070933e+002 2.814463e+002 -4.440892e-015
      vertex   -1.801890e+002 2.443437e+002 -3.885781e-015
      vertex   -1.804396e+002 2.443159e+002 -3.885781e-015
    endloop
  endfacet
  facet normal 2.634844e-018 -1.305893e-017 -1.000000e+000
    outer loop
      vertex   -2.070933e+002 2.814463e+002 -4.440892e-015
      vertex   -1.804396e+002 2.443159e+002 -3.885781e-015
      vertex   -1.806868e+002 2.442660e+002 -3.885781e-015
    endloop
  endfacet
  facet normal 3.649668e-018 -1.233817e-017 -1.000000e+000
    outer loop
      vertex   -1.806868e+002 2.442660e+002 -3.885781e-015
      vertex   -1.809285e+002 2.441945e+002 -3.885781e-015
      vertex   -2.070933e+002 2.814463e+002 -4.440892e-015
    endloop
  endfacet
  facet normal 4.606720e-018 -1.166595e-017 -1.000000e+000
    outer loop
      vertex   -2.070933e+002 2.814463e+002 -4.440892e-015
      vertex   -1.809285e+002 2.441945e+002 -3.885781e-015
      vertex   -1.811630e+002 2.441019e+002 -3.885781e-015
    endloop
  endfacet
  facet normal 5.526935e-018 -1.102700e-017 -1.000000e+000
    outer loop
      vertex   -2.070933e+002 2.814463e+002 -4.440892e-015
      vertex   -1.811630e+002 2.441019e+002 -3.885781e-015
      vertex   -1.813884e+002 2.439889e+002 -3.885781e-015
    endloop
  endfacet
  facet normal -1.885007e-017 -2.775557e-017 -1.000000e+000
    outer loop
      vertex   -2.070933e+002 2.814463e+002 -4.440892e-015
      vertex   -1.813884e+002 2.439889e+002 -3.885781e-015
      vertex   -2.070933e+002 2.414463e+002 -3.330669e-015
    endloop
  endfacet
  facet normal -2.571597e-017 4.165513e-017 -1.000000e+000
    outer loop
      vertex   -2.070933e+002 2.414463e+002 -3.330669e-015
      vertex   -1.813884e+002 2.439889e+002 -3.885781e-015
      vertex   -1.816030e+002 2.438565e+002 -3.885781e-015
    endloop
  endfacet
  facet normal -2.493325e-017 3.337713e-017 -1.000000e+000
    outer loop
      vertex   -2.070933e+002 2.414463e+002 -3.330669e-015
      vertex   -1.816030e+002 2.438565e+002 -3.885781e-015
      vertex   -1.818050e+002 2.437056e+002 -3.885781e-015
    endloop
  endfacet
  facet normal -2.438534e-017 2.724431e-017 -1.000000e+000
    outer loop
      vertex   -1.818050e+002 2.437056e+002 -3.885781e-015
      vertex   -1.819928e+002 2.435374e+002 -3.885781e-015
      vertex   -2.070933e+002 2.414463e+002 -3.330669e-015
    endloop
  endfacet
  facet normal -2.398531e-017 2.244275e-017 -1.000000e+000
    outer loop
      vertex   -2.070933e+002 2.414463e+002 -3.330669e-015
      vertex   -1.819928e+002 2.435374e+002 -3.885781e-015
      vertex   -1.821651e+002 2.433533e+002 -3.885781e-015
    endloop
  endfacet
  facet normal -2.368555e-017 1.852441e-017 -1.000000e+000
    outer loop
      vertex   -2.070933e+002 2.414463e+002 -3.330669e-015
      vertex   -1.821651e+002 2.433533e+002 -3.885781e-015
      vertex   -1.823204e+002 2.431547e+002 -3.885781e-015
    endloop
  endfacet
  facet normal -2.345681e-017 1.520759e-017 -1.000000e+000
    outer loop
      vertex   -1.823204e+002 2.431547e+002 -3.885781e-015
      vertex   -1.824576e+002 2.429432e+002 -3.885781e-015
      vertex   -2.070933e+002 2.414463e+002 -3.330669e-015
    endloop
  endfacet
  facet normal -2.328139e-017 1.232057e-017 -1.000000e+000
    outer loop
      vertex   -2.070933e+002 2.414463e+002 -3.330669e-015
      vertex   -1.824576e+002 2.429432e+002 -3.885781e-015
      vertex   -1.825755e+002 2.427203e+002 -3.885781e-015
    endloop
  endfacet
  facet normal -2.314717e-017 9.737619e-018 -1.000000e+000
    outer loop
      vertex   -2.070933e+002 2.414463e+002 -3.330669e-015
      vertex   -1.825755e+002 2.427203e+002 -3.885781e-015
      vertex   -1.826733e+002 2.424879e+002 -3.885781e-015
    endloop
  endfacet
  facet normal -2.304646e-017 7.376567e-018 -1.000000e+000
    outer loop
      vertex   -1.826733e+002 2.424879e+002 -3.885781e-015
      vertex   -1.827502e+002 2.422478e+002 -3.885781e-015
      vertex   -2.070933e+002 2.414463e+002 -3.330669e-015
    endloop
  endfacet
  facet normal -2.297372e-017 5.167341e-018 -1.000000e+000
    outer loop
      vertex   -2.070933e+002 2.414463e+002 -3.330669e-015
      vertex   -1.827502e+002 2.422478e+002 -3.885781e-015
      vertex   -1.828055e+002 2.420018e+002 -3.885781e-015
    endloop
  endfacet
  facet normal -2.292555e-017 3.061125e-018 -1.000000e+000
    outer loop
      vertex   -2.070933e+002 2.414463e+002 -3.330669e-015
      vertex   -1.828055e+002 2.420018e+002 -3.885781e-015
      vertex   -1.828389e+002 2.417519e+002 -3.885781e-015
    endloop
  endfacet
  facet normal -0.000000e+000 -1.000000e+000 -0.000000e+000
    outer loop
      vertex   -1.553933e+002 2.014463e+002 2.000000e+000
      vertex   -2.050933e+002 2.014463e+002 2.000000e+000
      vertex   -1.553933e+002 2.014463e+002 -8.881784e-015
    endloop
  endfacet
  facet normal 0.000000e+000 -1.000000e+000 0.000000e+000
    outer loop
      vertex   -1.553933e+002 2.014463e+002 -8.881784e-015
      vertex   -2.050933e+002 2.014463e+002 2.000000e+000
      vertex   -2.070933e+002 2.014463e+002 -3.330669e-015
    endloop
  endfacet
  facet normal 0.000000e+000 -1.000000e+000 0.000000e+000
    outer loop
      vertex   -2.070933e+002 2.014463e+002 -3.330669e-015
      vertex   -2.050933e+002 2.014463e+002 2.000000e+000
      vertex   -2.070933e+002 2.014463e+002 4.000000e+000
    endloop
  endfacet
  facet normal 0.000000e+000 -1.000000e+000 0.000000e+000
    outer loop
      vertex   -2.070933e+002 2.014463e+002 4.000000e+000
      vertex   -2.050933e+002 2.014463e+002 2.000000e+000
      vertex   -2.050933e+002 2.014463e+002 4.000000e+000
    endloop
  endfacet
  facet normal -0.000000e+000 1.000000e+000 0.000000e+000
    outer loop
      vertex   -2.028933e+002 2.794463e+002 4.000000e+000
      vertex   -1.553933e+002 2.794463e+002 4.000000e+000
      vertex   -2.028933e+002 2.794463e+002 2.000000e+000
    endloop
  endfacet
  facet normal 0.000000e+000 1.000000e+000 0.000000e+000
    outer loop
      vertex   -2.028933e+002 2.794463e+002 2.000000e+000
      vertex   -1.553933e+002 2.794463e+002 4.000000e+000
      vertex   -1.553933e+002 2.794463e+002 2.000000e+000
    endloop
  endfacet
  facet normal -0.000000e+000 -1.000000e+000 -0.000000e+000
    outer loop
      vertex   -1.553933e+002 2.034463e+002 4.000000e+000
      vertex   -2.028933e+002 2.034463e+002 4.000000e+000
      vertex   -1.553933e+002 2.034463e+002 2.000000e+000
    endloop
  endfacet
  facet normal 0.000000e+000 -1.000000e+000 0.000000e+000
    outer loop
      vertex   -1.553933e+002 2.034463e+002 2.000000e+000
      vertex   -2.028933e+002 2.034463e+002 4.000000e+000
      vertex   -2.028933e+002 2.034463e+002 2.000000e+000
    endloop
  endfacet
  facet normal -1.000000e+000 0.000000e+000 0.000000e+000
    outer loop
      vertex   -2.028933e+002 2.034463e+002 4.000000e+000
      vertex   -2.028933e+002 2.414463e+002 4.000000e+000
      vertex   -2.028933e+002 2.034463e+002 2.000000e+000
    endloop
  endfacet
  facet normal -1.000000e+000 0.000000e+000 0.000000e+000
    outer loop
      vertex   -2.028933e+002 2.034463e+002 2.000000e+000
      vertex   -2.028933e+002 2.414463e+002 4.000000e+000
      vertex   -2.028933e+002 2.414463e+002 2.000000e+000
    endloop
  endfacet
  facet normal -1.000000e+000 0.000000e+000 0.000000e+000
    outer loop
      vertex   -2.028933e+002 2.414463e+002 2.000000e+000
      vertex   -2.028933e+002 2.414463e+002 4.000000e+000
      vertex   -2.028933e+002 2.794463e+002 4.000000e+000
    endloop
  endfacet
  facet normal -1.000000e+000 0.000000e+000 0.000000e+000
    outer loop
      vertex   -2.028933e+002 2.414463e+002 2.000000e+000
      vertex   -2.028933e+002 2.794463e+002 4.000000e+000
      vertex   -2.028933e+002 2.794463e+002 2.000000e+000
    endloop
  endfacet
  facet normal 0.000000e+000 0.000000e+000 1.000000e+000
    outer loop
      vertex   -1.828389e+002 2.412481e+002 4.000000e+000
      vertex   -1.828500e+002 2.415000e+002 4.000000e+000
      vertex   -2.028933e+002 2.414463e+002 4.000000e+000
    endloop
  endfacet
  facet normal 0.000000e+000 0.000000e+000 1.000000e+000
    outer loop
      vertex   -2.028933e+002 2.414463e+002 4.000000e+000
      vertex   -1.828500e+002 2.415000e+002 4.000000e+000
      vertex   -1.828389e+002 2.417519e+002 4.000000e+000
    endloop
  endfacet
  facet normal 0.000000e+000 0.000000e+000 1.000000e+000
    outer loop
      vertex   -2.028933e+002 2.414463e+002 4.000000e+000
      vertex   -1.828389e+002 2.417519e+002 4.000000e+000
      vertex   -1.828055e+002 2.420018e+002 4.000000e+000
    endloop
  endfacet
  facet normal 0.000000e+000 -0.000000e+000 1.000000e+000
    outer loop
      vertex   -1.828055e+002 2.420018e+002 4.000000e+000
      vertex   -1.827502e+002 2.422478e+002 4.000000e+000
      vertex   -2.028933e+002 2.414463e+002 4.000000e+000
    endloop
  endfacet
  facet normal 0.000000e+000 0.000000e+000 1.000000e+000
    outer loop
      vertex   -2.028933e+002 2.414463e+002 4.000000e+000
      vertex   -1.827502e+002 2.422478e+002 4.000000e+000
      vertex   -1.826733e+002 2.424879e+002 4.000000e+000
    endloop
  endfacet
  facet normal 0.000000e+000 0.000000e+000 1.000000e+000
    outer loop
      vertex   -2.028933e+002 2.414463e+002 4.000000e+000
      vertex   -1.826733e+002 2.424879e+002 4.000000e+000
      vertex   -1.825755e+002 2.427203e+002 4.000000e+000
    endloop
  endfacet
  facet normal 0.000000e+000 -0.000000e+000 1.000000e+000
    outer loop
      vertex   -1.825755e+002 2.427203e+002 4.000000e+000
      vertex   -1.824576e+002 2.429432e+002 4.000000e+000
      vertex   -2.028933e+002 2.414463e+002 4.000000e+000
    endloop
  endfacet
  facet normal 0.000000e+000 0.000000e+000 1.000000e+000
    outer loop
      vertex   -2.028933e+002 2.414463e+002 4.000000e+000
      vertex   -1.824576e+002 2.429432e+002 4.000000e+000
      vertex   -1.823204e+002 2.431547e+002 4.000000e+000
    endloop
  endfacet
  facet normal 0.000000e+000 0.000000e+000 1.000000e+000
    outer loop
      vertex   -2.028933e+002 2.414463e+002 4.000000e+000
      vertex   -1.823204e+002 2.431547e+002 4.000000e+000
      vertex   -1.821651e+002 2.433533e+002 4.000000e+000
    endloop
  endfacet
  facet normal 0.000000e+000 -0.000000e+000 1.000000e+000
    outer loop
      vertex   -1.821651e+002 2.433533e+002 4.000000e+000
      vertex   -1.819928e+002 2.435374e+002 4.000000e+000
      vertex   -2.028933e+002 2.414463e+002 4.000000e+000
    endloop
  endfacet
  facet normal 0.000000e+000 0.000000e+000 1.000000e+000
    outer loop
      vertex   -2.028933e+002 2.414463e+002 4.000000e+000
      vertex   -1.819928e+002 2.435374e+002 4.000000e+000
      vertex   -1.818050e+002 2.437056e+002 4.000000e+000
    endloop
  endfacet
  facet normal 0.000000e+000 0.000000e+000 1.000000e+000
    outer loop
      vertex   -2.028933e+002 2.414463e+002 4.000000e+000
      vertex   -1.818050e+002 2.437056e+002 4.000000e+000
      vertex   -1.816030e+002 2.438565e+002 4.000000e+000
    endloop
  endfacet
  facet normal 0.000000e+000 -0.000000e+000 1.000000e+000
    outer loop
      vertex   -1.816030e+002 2.438565e+002 4.000000e+000
      vertex   -1.813884e+002 2.439889e+002 4.000000e+000
      vertex   -2.028933e+002 2.414463e+002 4.000000e+000
    endloop
  endfacet
  facet normal 0.000000e+000 0.000000e+000 1.000000e+000
    outer loop
      vertex   -2.028933e+002 2.414463e+002 4.000000e+000
      vertex   -1.813884e+002 2.439889e+002 4.000000e+000
      vertex   -2.028933e+002 2.794463e+002 4.000000e+000
    endloop
  endfacet
  facet normal 0.000000e+000 0.000000e+000 1.000000e+000
    outer loop
      vertex   -2.028933e+002 2.794463e+002 4.000000e+000
      vertex   -1.813884e+002 2.439889e+002 4.000000e+000
      vertex   -1.811630e+002 2.441019e+002 4.000000e+000
    endloop
  endfacet
  facet normal 0.000000e+000 0.000000e+000 1.000000e+000
    outer loop
      vertex   -2.028933e+002 2.794463e+002 4.000000e+000
      vertex   -1.811630e+002 2.441019e+002 4.000000e+000
      vertex   -1.809285e+002 2.441945e+002 4.000000e+000
    endloop
  endfacet
  facet normal 0.000000e+000 -0.000000e+000 1.000000e+000
    outer loop
      vertex   -1.809285e+002 2.441945e+002 4.000000e+000
      vertex   -1.806868e+002 2.442660e+002 4.000000e+000
      vertex   -2.028933e+002 2.794463e+002 4.000000e+000
    endloop
  endfacet
  facet normal 0.000000e+000 0.000000e+000 1.000000e+000
    outer loop
      vertex   -2.028933e+002 2.794463e+002 4.000000e+000
      vertex   -1.806868e+002 2.442660e+002 4.000000e+000
      vertex   -1.804396e+002 2.443159e+002 4.000000e+000
    endloop
  endfacet
  facet normal 0.000000e+000 0.000000e+000 1.000000e+000
    outer loop
      vertex   -2.028933e+002 2.794463e+002 4.000000e+000
      vertex   -1.804396e+002 2.443159e+002 4.000000e+000
      vertex   -1.801890e+002 2.443437e+002 4.000000e+000
    endloop
  endfacet
  facet normal 0.000000e+000 -0.000000e+000 1.000000e+000
    outer loop
      vertex   -1.801890e+002 2.443437e+002 4.000000e+000
      vertex   -1.799370e+002 2.443493e+002 4.000000e+000
      vertex   -2.028933e+002 2.794463e+002 4.000000e+000
    endloop
  endfacet
  facet normal -0.000000e+000 0.000000e+000 1.000000e+000
    outer loop
      vertex   -2.028933e+002 2.794463e+002 4.000000e+000
      vertex   -1.799370e+002 2.443493e+002 4.000000e+000
      vertex   -1.553933e+002 2.794463e+002 4.000000e+000
    endloop
  endfacet
  facet normal 0.000000e+000 0.000000e+000 1.000000e+000
    outer loop
      vertex   -1.553933e+002 2.794463e+002 4.000000e+000
      vertex   -1.799370e+002 2.443493e+002 4.000000e+000
      vertex   -1.796854e+002 2.443326e+002 4.000000e+000
    endloop
  endfacet
  facet normal 0.000000e+000 0.000000e+000 1.000000e+000
    outer loop
      vertex   -1.553933e+002 2.794463e+002 4.000000e+000
      vertex   -1.796854e+002 2.443326e+002 4.000000e+000
      vertex   -1.794363e+002 2.442937e+002 4.000000e+000
    endloop
  endfacet
  facet normal -0.000000e+000 0.000000e+000 1.000000e+000
    outer loop
      vertex   -1.794363e+002 2.442937e+002 4.000000e+000
      vertex   -1.791916e+002 2.442329e+002 4.000000e+000
      vertex   -1.553933e+002 2.794463e+002 4.000000e+000
    endloop
  endfacet
  facet normal 0.000000e+000 0.000000e+000 1.000000e+000
    outer loop
      vertex   -1.553933e+002 2.794463e+002 4.000000e+000
      vertex   -1.791916e+002 2.442329e+002 4.000000e+000
      vertex   -1.789532e+002 2.441508e+002 4.000000e+000
    endloop
  endfacet
  facet normal 0.000000e+000 0.000000e+000 1.000000e+000
    outer loop
      vertex   -1.553933e+002 2.794463e+002 4.000000e+000
      vertex   -1.789532e+002 2.441508e+002 4.000000e+000
      vertex   -1.787230e+002 2.440479e+002 4.000000e+000
    endloop
  endfacet
  facet normal -0.000000e+000 0.000000e+000 1.000000e+000
    outer loop
      vertex   -1.787230e+002 2.440479e+002 4.000000e+000
      vertex   -1.785028e+002 2.439251e+002 4.000000e+000
      vertex   -1.553933e+002 2.794463e+002 4.000000e+000
    endloop
  endfacet
  facet normal 0.000000e+000 0.000000e+000 1.000000e+000
    outer loop
      vertex   -1.553933e+002 2.794463e+002 4.000000e+000
      vertex   -1.785028e+002 2.439251e+002 4.000000e+000
      vertex   -1.553933e+002 2.414463e+002 4.000000e+000
    endloop
  endfacet
  facet normal 0.000000e+000 0.000000e+000 1.000000e+000
    outer loop
      vertex   -1.553933e+002 2.414463e+002 4.000000e+000
      vertex   -1.785028e+002 2.439251e+002 4.000000e+000
      vertex   -1.782944e+002 2.437833e+002 4.000000e+000
    endloop
  endfacet
  facet normal 0.000000e+000 0.000000e+000 1.000000e+000
    outer loop
      vertex   -1.553933e+002 2.414463e+002 4.000000e+000
      vertex   -1.782944e+002 2.437833e+002 4.000000e+000
      vertex   -1.780992e+002 2.436236e+002 4.000000e+000
    endloop
  endfacet
  facet normal 0.000000e+000 0.000000e+000 1.000000e+000
    outer loop
      vertex   -1.780992e+002 2.436236e+002 4.000000e+000
      vertex   -1.779190e+002 2.434473e+002 4.000000e+000
      vertex   -1.553933e+002 2.414463e+002 4.000000e+000
    endloop
  endfacet
  facet normal 0.000000e+000 0.000000e+000 1.000000e+000
    outer loop
      vertex   -1.553933e+002 2.414463e+002 4.000000e+000
      vertex   -1.779190e+002 2.434473e+002 4.000000e+000
      vertex   -1.777550e+002 2.432557e+002 4.000000e+000
    endloop
  endfacet
  facet normal 0.000000e+000 0.000000e+000 1.000000e+000
    outer loop
      vertex   -1.553933e+002 2.414463e+002 4.000000e+000
      vertex   -1.777550e+002 2.432557e+002 4.000000e+000
      vertex   -1.776086e+002 2.430505e+002 4.000000e+000
    endloop
  endfacet
  facet normal 0.000000e+000 0.000000e+000 1.000000e+000
    outer loop
      vertex   -1.776086e+002 2.430505e+002 4.000000e+000
      vertex   -1.774810e+002 2.428330e+002 4.000000e+000
      vertex   -1.553933e+002 2.414463e+002 4.000000e+000
    endloop
  endfacet
  facet normal 0.000000e+000 0.000000e+000 1.000000e+000
    outer loop
      vertex   -1.553933e+002 2.414463e+002 4.000000e+000
      vertex   -1.774810e+002 2.428330e+002 4.000000e+000
      vertex   -1.773730e+002 2.426052e+002 4.000000e+000
    endloop
  endfacet
  facet normal 0.000000e+000 0.000000e+000 1.000000e+000
    outer loop
      vertex   -1.553933e+002 2.414463e+002 4.000000e+000
      vertex   -1.773730e+002 2.426052e+002 4.000000e+000
      vertex   -1.772856e+002 2.423687e+002 4.000000e+000
    endloop
  endfacet
  facet normal 0.000000e+000 0.000000e+000 1.000000e+000
    outer loop
      vertex   -1.772856e+002 2.423687e+002 4.000000e+000
      vertex   -1.772195e+002 2.421254e+002 4.000000e+000
      vertex   -1.553933e+002 2.414463e+002 4.000000e+000
    endloop
  endfacet
  facet normal 0.000000e+000 0.000000e+000 1.000000e+000
    outer loop
      vertex   -1.553933e+002 2.414463e+002 4.000000e+000
      vertex   -1.772195e+002 2.421254e+002 4.000000e+000
      vertex   -1.771751e+002 2.418772e+002 4.000000e+000
    endloop
  endfacet
  facet normal 0.000000e+000 0.000000e+000 1.000000e+000
    outer loop
      vertex   -1.553933e+002 2.414463e+002 4.000000e+000
      vertex   -1.771751e+002 2.418772e+002 4.000000e+000
      vertex   -1.771528e+002 2.416261e+002 4.000000e+000
    endloop
  endfacet
  facet normal 0.000000e+000 0.000000e+000 1.000000e+000
    outer loop
      vertex   -1.771528e+002 2.416261e+002 4.000000e+000
      vertex   -1.771528e+002 2.413739e+002 4.000000e+000
      vertex   -1.553933e+002 2.414463e+002 4.000000e+000
    endloop
  endfacet
  facet normal 0.000000e+000 0.000000e+000 1.000000e+000
    outer loop
      vertex   -1.553933e+002 2.414463e+002 4.000000e+000
      vertex   -1.771528e+002 2.413739e+002 4.000000e+000
      vertex   -1.771751e+002 2.411228e+002 4.000000e+000
    endloop
  endfacet
  facet normal 0.000000e+000 0.000000e+000 1.000000e+000
    outer loop
      vertex   -1.553933e+002 2.414463e+002 4.000000e+000
      vertex   -1.771751e+002 2.411228e+002 4.000000e+000
      vertex   -1.772195e+002 2.408746e+002 4.000000e+000
    endloop
  endfacet
  facet normal -0.000000e+000 0.000000e+000 1.000000e+000
    outer loop
      vertex   -1.772195e+002 2.408746e+002 4.000000e+000
      vertex   -1.772856e+002 2.406313e+002 4.000000e+000
      vertex   -1.553933e+002 2.414463e+002 4.000000e+000
    endloop
  endfacet
  facet normal 0.000000e+000 0.000000e+000 1.000000e+000
    outer loop
      vertex   -1.553933e+002 2.414463e+002 4.000000e+000
      vertex   -1.772856e+002 2.406313e+002 4.000000e+000
      vertex   -1.773730e+002 2.403948e+002 4.000000e+000
    endloop
  endfacet
  facet normal 0.000000e+000 0.000000e+000 1.000000e+000
    outer loop
      vertex   -1.553933e+002 2.414463e+002 4.000000e+000
      vertex   -1.773730e+002 2.403948e+002 4.000000e+000
      vertex   -1.774810e+002 2.401670e+002 4.000000e+000
    endloop
  endfacet
  facet normal -0.000000e+000 0.000000e+000 1.000000e+000
    outer loop
      vertex   -1.774810e+002 2.401670e+002 4.000000e+000
      vertex   -1.776086e+002 2.399495e+002 4.000000e+000
      vertex   -1.553933e+002 2.414463e+002 4.000000e+000
    endloop
  endfacet
  facet normal 0.000000e+000 0.000000e+000 1.000000e+000
    outer loop
      vertex   -1.553933e+002 2.414463e+002 4.000000e+000
      vertex   -1.776086e+002 2.399495e+002 4.000000e+000
      vertex   -1.777550e+002 2.397443e+002 4.000000e+000
    endloop
  endfacet
  facet normal 0.000000e+000 0.000000e+000 1.000000e+000
    outer loop
      vertex   -1.553933e+002 2.414463e+002 4.000000e+000
      vertex   -1.777550e+002 2.397443e+002 4.000000e+000
      vertex   -1.779190e+002 2.395527e+002 4.000000e+000
    endloop
  endfacet
  facet normal -0.000000e+000 0.000000e+000 1.000000e+000
    outer loop
      vertex   -1.779190e+002 2.395527e+002 4.000000e+000
      vertex   -1.780992e+002 2.393764e+002 4.000000e+000
      vertex   -1.553933e+002 2.414463e+002 4.000000e+000
    endloop
  endfacet
  facet normal 0.000000e+000 0.000000e+000 1.000000e+000
    outer loop
      vertex   -1.553933e+002 2.414463e+002 4.000000e+000
      vertex   -1.780992e+002 2.393764e+002 4.000000e+000
      vertex   -1.782944e+002 2.392167e+002 4.000000e+000
    endloop
  endfacet
  facet normal 0.000000e+000 0.000000e+000 1.000000e+000
    outer loop
      vertex   -1.553933e+002 2.414463e+002 4.000000e+000
      vertex   -1.782944e+002 2.392167e+002 4.000000e+000
      vertex   -1.785028e+002 2.390749e+002 4.000000e+000
    endloop
  endfacet
  facet normal 0.000000e+000 0.000000e+000 1.000000e+000
    outer loop
      vertex   -1.553933e+002 2.414463e+002 4.000000e+000
      vertex   -1.785028e+002 2.390749e+002 4.000000e+000
      vertex   -1.553933e+002 2.034463e+002 4.000000e+000
    endloop
  endfacet
  facet normal 0.000000e+000 0.000000e+000 1.000000e+000
    outer loop
      vertex   -1.553933e+002 2.034463e+002 4.000000e+000
      vertex   -1.785028e+002 2.390749e+002 4.000000e+000
      vertex   -1.787230e+002 2.389521e+002 4.000000e+000
    endloop
  endfacet
  facet normal 0.000000e+000 0.000000e+000 1.000000e+000
    outer loop
      vertex   -1.553933e+002 2.034463e+002 4.000000e+000
      vertex   -1.787230e+002 2.389521e+002 4.000000e+000
      vertex   -1.789532e+002 2.388492e+002 4.000000e+000
    endloop
  endfacet
  facet normal 0.000000e+000 0.000000e+000 1.000000e+000
    outer loop
      vertex   -1.789532e+002 2.388492e+002 4.000000e+000
      vertex   -1.791916e+002 2.387671e+002 4.000000e+000
      vertex   -1.553933e+002 2.034463e+002 4.000000e+000
    endloop
  endfacet
  facet normal 0.000000e+000 0.000000e+000 1.000000e+000
    outer loop
      vertex   -1.553933e+002 2.034463e+002 4.000000e+000
      vertex   -1.791916e+002 2.387671e+002 4.000000e+000
      vertex   -1.794363e+002 2.387063e+002 4.000000e+000
    endloop
  endfacet
  facet normal 0.000000e+000 0.000000e+000 1.000000e+000
    outer loop
      vertex   -1.553933e+002 2.034463e+002 4.000000e+000
      vertex   -1.794363e+002 2.387063e+002 4.000000e+000
      vertex   -1.796854e+002 2.386674e+002 4.000000e+000
    endloop
  endfacet
  facet normal 0.000000e+000 0.000000e+000 1.000000e+000
    outer loop
      vertex   -1.796854e+002 2.386674e+002 4.000000e+000
      vertex   -1.799370e+002 2.386507e+002 4.000000e+000
      vertex   -1.553933e+002 2.034463e+002 4.000000e+000
    endloop
  endfacet
  facet normal 0.000000e+000 0.000000e+000 1.000000e+000
    outer loop
      vertex   -1.553933e+002 2.034463e+002 4.000000e+000
      vertex   -1.799370e+002 2.386507e+002 4.000000e+000
      vertex   -2.028933e+002 2.034463e+002 4.000000e+000
    endloop
  endfacet
  facet normal 0.000000e+000 0.000000e+000 1.000000e+000
    outer loop
      vertex   -2.028933e+002 2.034463e+002 4.000000e+000
      vertex   -1.799370e+002 2.386507e+002 4.000000e+000
      vertex   -1.801890e+002 2.386563e+002 4.000000e+000
    endloop
  endfacet
  facet normal 0.000000e+000 0.000000e+000 1.000000e+000
    outer loop
      vertex   -2.028933e+002 2.034463e+002 4.000000e+000
      vertex   -1.801890e+002 2.386563e+002 4.000000e+000
      vertex   -1.804396e+002 2.386841e+002 4.000000e+000
    endloop
  endfacet
  facet normal 0.000000e+000 0.000000e+000 1.000000e+000
    outer loop
      vertex   -1.804396e+002 2.386841e+002 4.000000e+000
      vertex   -1.806868e+002 2.387340e+002 4.000000e+000
      vertex   -2.028933e+002 2.034463e+002 4.000000e+000
    endloop
  endfacet
  facet normal 0.000000e+000 0.000000e+000 1.000000e+000
    outer loop
      vertex   -2.028933e+002 2.034463e+002 4.000000e+000
      vertex   -1.806868e+002 2.387340e+002 4.000000e+000
      vertex   -1.809285e+002 2.388055e+002 4.000000e+000
    endloop
  endfacet
  facet normal 0.000000e+000 0.000000e+000 1.000000e+000
    outer loop
      vertex   -2.028933e+002 2.034463e+002 4.000000e+000
      vertex   -1.809285e+002 2.388055e+002 4.000000e+000
      vertex   -1.811630e+002 2.388981e+002 4.000000e+000
    endloop
  endfacet
  facet normal 0.000000e+000 0.000000e+000 1.000000e+000
    outer loop
      vertex   -1.811630e+002 2.388981e+002 4.000000e+000
      vertex   -1.813884e+002 2.390111e+002 4.000000e+000
      vertex   -2.028933e+002 2.034463e+002 4.000000e+000
    endloop
  endfacet
  facet normal 0.000000e+000 0.000000e+000 1.000000e+000
    outer loop
      vertex   -2.028933e+002 2.034463e+002 4.000000e+000
      vertex   -1.813884e+002 2.390111e+002 4.000000e+000
      vertex   -2.028933e+002 2.414463e+002 4.000000e+000
    endloop
  endfacet
  facet normal 0.000000e+000 0.000000e+000 1.000000e+000
    outer loop
      vertex   -2.028933e+002 2.414463e+002 4.000000e+000
      vertex   -1.813884e+002 2.390111e+002 4.000000e+000
      vertex   -1.816030e+002 2.391435e+002 4.000000e+000
    endloop
  endfacet
  facet normal 0.000000e+000 0.000000e+000 1.000000e+000
    outer loop
      vertex   -2.028933e+002 2.414463e+002 4.000000e+000
      vertex   -1.816030e+002 2.391435e+002 4.000000e+000
      vertex   -1.818050e+002 2.392944e+002 4.000000e+000
    endloop
  endfacet
  facet normal 0.000000e+000 0.000000e+000 1.000000e+000
    outer loop
      vertex   -1.818050e+002 2.392944e+002 4.000000e+000
      vertex   -1.819928e+002 2.394626e+002 4.000000e+000
      vertex   -2.028933e+002 2.414463e+002 4.000000e+000
    endloop
  endfacet
  facet normal 0.000000e+000 0.000000e+000 1.000000e+000
    outer loop
      vertex   -2.028933e+002 2.414463e+002 4.000000e+000
      vertex   -1.819928e+002 2.394626e+002 4.000000e+000
      vertex   -1.821651e+002 2.396467e+002 4.000000e+000
    endloop
  endfacet
  facet normal 0.000000e+000 0.000000e+000 1.000000e+000
    outer loop
      vertex   -2.028933e+002 2.414463e+002 4.000000e+000
      vertex   -1.821651e+002 2.396467e+002 4.000000e+000
      vertex   -1.823204e+002 2.398453e+002 4.000000e+000
    endloop
  endfacet
  facet normal 0.000000e+000 0.000000e+000 1.000000e+000
    outer loop
      vertex   -1.823204e+002 2.398453e+002 4.000000e+000
      vertex   -1.824576e+002 2.400568e+002 4.000000e+000
      vertex   -2.028933e+002 2.414463e+002 4.000000e+000
    endloop
  endfacet
  facet normal 0.000000e+000 0.000000e+000 1.000000e+000
    outer loop
      vertex   -2.028933e+002 2.414463e+002 4.000000e+000
      vertex   -1.824576e+002 2.400568e+002 4.000000e+000
      vertex   -1.825755e+002 2.402797e+002 4.000000e+000
    endloop
  endfacet
  facet normal 0.000000e+000 0.000000e+000 1.000000e+000
    outer loop
      vertex   -2.028933e+002 2.414463e+002 4.000000e+000
      vertex   -1.825755e+002 2.402797e+002 4.000000e+000
      vertex   -1.826733e+002 2.405121e+002 4.000000e+000
    endloop
  endfacet
  facet normal 0.000000e+000 0.000000e+000 1.000000e+000
    outer loop
      vertex   -1.826733e+002 2.405121e+002 4.000000e+000
      vertex   -1.827502e+002 2.407522e+002 4.000000e+000
      vertex   -2.028933e+002 2.414463e+002 4.000000e+000
    endloop
  endfacet
  facet normal 0.000000e+000 0.000000e+000 1.000000e+000
    outer loop
      vertex   -2.028933e+002 2.414463e+002 4.000000e+000
      vertex   -1.827502e+002 2.407522e+002 4.000000e+000
      vertex   -1.828055e+002 2.409982e+002 4.000000e+000
    endloop
  endfacet
  facet normal 0.000000e+000 0.000000e+000 1.000000e+000
    outer loop
      vertex   -2.028933e+002 2.414463e+002 4.000000e+000
      vertex   -1.828055e+002 2.409982e+002 4.000000e+000
      vertex   -1.828389e+002 2.412481e+002 4.000000e+000
    endloop
  endfacet
  facet normal 0.000000e+000 1.000000e+000 0.000000e+000
    outer loop
      vertex   -1.553933e+002 2.814463e+002 2.000000e+000
      vertex   -1.553933e+002 2.814463e+002 -9.436896e-015
      vertex   -2.050933e+002 2.814463e+002 2.000000e+000
    endloop
  endfacet
  facet normal 0.000000e+000 1.000000e+000 0.000000e+000
    outer loop
      vertex   -2.050933e+002 2.814463e+002 2.000000e+000
      vertex   -1.553933e+002 2.814463e+002 -9.436896e-015
      vertex   -2.070933e+002 2.814463e+002 -4.440892e-015
    endloop
  endfacet
  facet normal 0.000000e+000 1.000000e+000 0.000000e+000
    outer loop
      vertex   -2.050933e+002 2.814463e+002 2.000000e+000
      vertex   -2.070933e+002 2.814463e+002 -4.440892e-015
      vertex   -2.070933e+002 2.814463e+002 4.000000e+000
    endloop
  endfacet
  facet normal -0.000000e+000 1.000000e+000 0.000000e+000
    outer loop
      vertex   -2.070933e+002 2.814463e+002 4.000000e+000
      vertex   -2.050933e+002 2.814463e+002 4.000000e+000
      vertex   -2.050933e+002 2.814463e+002 2.000000e+000
    endloop
  endfacet
  facet normal 1.000000e+000 0.000000e+000 0.000000e+000
    outer loop
      vertex   -1.553933e+002 2.814463e+002 2.000000e+000
      vertex   -1.553933e+002 2.794463e+002 2.000000e+000
      vertex   -1.553933e+002 2.814463e+002 -9.436896e-015
    endloop
  endfacet
  facet normal 1.000000e+000 0.000000e+000 0.000000e+000
    outer loop
      vertex   -1.553933e+002 2.814463e+002 -9.436896e-015
      vertex   -1.553933e+002 2.794463e+002 2.000000e+000
      vertex   -1.553933e+002 2.414463e+002 -1.110223e-014
    endloop
  endfacet
  facet normal 1.000000e+000 0.000000e+000 0.000000e+000
    outer loop
      vertex   -1.553933e+002 2.414463e+002 -1.110223e-014
      vertex   -1.553933e+002 2.794463e+002 2.000000e+000
      vertex   -1.553933e+002 2.414463e+002 4.000000e+000
    endloop
  endfacet
  facet normal 1.000000e+000 0.000000e+000 -0.000000e+000
    outer loop
      vertex   -1.553933e+002 2.414463e+002 -1.110223e-014
      vertex   -1.553933e+002 2.414463e+002 4.000000e+000
      vertex   -1.553933e+002 2.034463e+002 2.000000e+000
    endloop
  endfacet
  facet normal 1.000000e+000 0.000000e+000 0.000000e+000
    outer loop
      vertex   -1.553933e+002 2.034463e+002 2.000000e+000
      vertex   -1.553933e+002 2.414463e+002 4.000000e+000
      vertex   -1.553933e+002 2.034463e+002 4.000000e+000
    endloop
  endfacet
  facet normal 1.000000e+000 0.000000e+000 -0.000000e+000
    outer loop
      vertex   -1.553933e+002 2.794463e+002 2.000000e+000
      vertex   -1.553933e+002 2.794463e+002 4.000000e+000
      vertex   -1.553933e+002 2.414463e+002 4.000000e+000
    endloop
  endfacet
  facet normal 1.000000e+000 -0.000000e+000 0.000000e+000
    outer loop
      vertex   -1.553933e+002 2.014463e+002 2.000000e+000
      vertex   -1.553933e+002 2.014463e+002 -8.881784e-015
      vertex   -1.553933e+002 2.034463e+002 2.000000e+000
    endloop
  endfacet
  facet normal 1.000000e+000 0.000000e+000 0.000000e+000
    outer loop
      vertex   -1.553933e+002 2.034463e+002 2.000000e+000
      vertex   -1.553933e+002 2.014463e+002 -8.881784e-015
      vertex   -1.553933e+002 2.414463e+002 -1.110223e-014
    endloop
  endfacet
  facet normal 0.000000e+000 0.000000e+000 1.000000e+000
    outer loop
      vertex   -1.553933e+002 2.814463e+002 2.000000e+000
      vertex   -2.050933e+002 2.814463e+002 2.000000e+000
      vertex   -2.028933e+002 2.794463e+002 2.000000e+000
    endloop
  endfacet
  facet normal 0.000000e+000 0.000000e+000 1.000000e+000
    outer loop
      vertex   -2.028933e+002 2.794463e+002 2.000000e+000
      vertex   -2.050933e+002 2.814463e+002 2.000000e+000
      vertex   -2.050933e+002 2.414463e+002 2.000000e+000
    endloop
  endfacet
  facet normal 0.000000e+000 0.000000e+000 1.000000e+000
    outer loop
      vertex   -2.028933e+002 2.794463e+002 2.000000e+000
      vertex   -2.050933e+002 2.414463e+002 2.000000e+000
      vertex   -2.028933e+002 2.414463e+002 2.000000e+000
    endloop
  endfacet
  facet normal 0.000000e+000 0.000000e+000 1.000000e+000
    outer loop
      vertex   -2.028933e+002 2.414463e+002 2.000000e+000
      vertex   -2.050933e+002 2.414463e+002 2.000000e+000
      vertex   -2.028933e+002 2.034463e+002 2.000000e+000
    endloop
  endfacet
  facet normal 0.000000e+000 0.000000e+000 1.000000e+000
    outer loop
      vertex   -2.028933e+002 2.034463e+002 2.000000e+000
      vertex   -2.050933e+002 2.414463e+002 2.000000e+000
      vertex   -2.050933e+002 2.014463e+002 2.000000e+000
    endloop
  endfacet
  facet normal 0.000000e+000 0.000000e+000 1.000000e+000
    outer loop
      vertex   -2.028933e+002 2.034463e+002 2.000000e+000
      vertex   -2.050933e+002 2.014463e+002 2.000000e+000
      vertex   -1.553933e+002 2.014463e+002 2.000000e+000
    endloop
  endfacet
  facet normal 0.000000e+000 -0.000000e+000 1.000000e+000
    outer loop
      vertex   -1.553933e+002 2.014463e+002 2.000000e+000
      vertex   -1.553933e+002 2.034463e+002 2.000000e+000
      vertex   -2.028933e+002 2.034463e+002 2.000000e+000
    endloop
  endfacet
  facet normal 0.000000e+000 0.000000e+000 1.000000e+000
    outer loop
      vertex   -2.028933e+002 2.794463e+002 2.000000e+000
      vertex   -1.553933e+002 2.794463e+002 2.000000e+000
      vertex   -1.553933e+002 2.814463e+002 2.000000e+000
    endloop
  endfacet
endsolid
