solid ascii
  facet normal 9.990740e-001 -4.302594e-002 0.000000e+000
    outer loop
      vertex   -1.830387e+002 2.417622e+002 -3.885781e-015
      vertex   -1.830387e+002 2.417622e+002 4.000000e+000
      vertex   -1.830500e+002 2.415000e+002 -3.885781e-015
    endloop
  endfacet
  facet normal 9.990740e-001 -4.302594e-002 0.000000e+000
    outer loop
      vertex   -1.830500e+002 2.415000e+002 -3.885781e-015
      vertex   -1.830387e+002 2.417622e+002 4.000000e+000
      vertex   -1.830500e+002 2.415000e+002 4.000000e+000
    endloop
  endfacet
  facet normal 9.990740e-001 4.302594e-002 -0.000000e+000
    outer loop
      vertex   -1.830500e+002 2.415000e+002 -3.885781e-015
      vertex   -1.830500e+002 2.415000e+002 4.000000e+000
      vertex   -1.830387e+002 2.412378e+002 -3.885781e-015
    endloop
  endfacet
  facet normal 9.990740e-001 4.302594e-002 -0.000000e+000
    outer loop
      vertex   -1.830387e+002 2.412378e+002 -3.885781e-015
      vertex   -1.830500e+002 2.415000e+002 4.000000e+000
      vertex   -1.830387e+002 2.412378e+002 4.000000e+000
    endloop
  endfacet
  facet normal 9.916800e-001 1.287277e-001 -0.000000e+000
    outer loop
      vertex   -1.830387e+002 2.412378e+002 -3.885781e-015
      vertex   -1.830387e+002 2.412378e+002 4.000000e+000
      vertex   -1.830049e+002 2.409776e+002 -3.885781e-015
    endloop
  endfacet
  facet normal 9.916800e-001 1.287277e-001 -0.000000e+000
    outer loop
      vertex   -1.830049e+002 2.409776e+002 -3.885781e-015
      vertex   -1.830387e+002 2.412378e+002 4.000000e+000
      vertex   -1.830049e+002 2.409776e+002 4.000000e+000
    endloop
  endfacet
  facet normal 9.769296e-001 2.135616e-001 -0.000000e+000
    outer loop
      vertex   -1.830049e+002 2.409776e+002 -3.885781e-015
      vertex   -1.830049e+002 2.409776e+002 4.000000e+000
      vertex   -1.829489e+002 2.407212e+002 -3.885781e-015
    endloop
  endfacet
  facet normal 9.769296e-001 2.135616e-001 -0.000000e+000
    outer loop
      vertex   -1.829489e+002 2.407212e+002 -3.885781e-015
      vertex   -1.830049e+002 2.409776e+002 4.000000e+000
      vertex   -1.829489e+002 2.407212e+002 4.000000e+000
    endloop
  endfacet
  facet normal 9.549721e-001 2.966955e-001 -0.000000e+000
    outer loop
      vertex   -1.829489e+002 2.407212e+002 -3.885781e-015
      vertex   -1.829489e+002 2.407212e+002 4.000000e+000
      vertex   -1.828710e+002 2.404706e+002 -3.885781e-015
    endloop
  endfacet
  facet normal 9.549721e-001 2.966955e-001 -0.000000e+000
    outer loop
      vertex   -1.828710e+002 2.404706e+002 -3.885781e-015
      vertex   -1.829489e+002 2.407212e+002 4.000000e+000
      vertex   -1.828710e+002 2.404706e+002 4.000000e+000
    endloop
  endfacet
  facet normal 9.259290e-001 3.776976e-001 -0.000000e+000
    outer loop
      vertex   -1.828710e+002 2.404706e+002 -3.885781e-015
      vertex   -1.828710e+002 2.404706e+002 4.000000e+000
      vertex   -1.827719e+002 2.402276e+002 -3.885781e-015
    endloop
  endfacet
  facet normal 9.259290e-001 3.776976e-001 -0.000000e+000
    outer loop
      vertex   -1.827719e+002 2.402276e+002 -3.885781e-015
      vertex   -1.828710e+002 2.404706e+002 4.000000e+000
      vertex   -1.827719e+002 2.402276e+002 4.000000e+000
    endloop
  endfacet
  facet normal 8.900238e-001 4.559141e-001 -0.000000e+000
    outer loop
      vertex   -1.827719e+002 2.402276e+002 -3.885781e-015
      vertex   -1.827719e+002 2.402276e+002 4.000000e+000
      vertex   -1.826523e+002 2.399940e+002 -3.885781e-015
    endloop
  endfacet
  facet normal 8.900238e-001 4.559141e-001 -0.000000e+000
    outer loop
      vertex   -1.826523e+002 2.399940e+002 -3.885781e-015
      vertex   -1.827719e+002 2.402276e+002 4.000000e+000
      vertex   -1.826523e+002 2.399940e+002 4.000000e+000
    endloop
  endfacet
  facet normal 8.475440e-001 5.307252e-001 -0.000000e+000
    outer loop
      vertex   -1.826523e+002 2.399940e+002 -3.885781e-015
      vertex   -1.826523e+002 2.399940e+002 4.000000e+000
      vertex   -1.825130e+002 2.397716e+002 -3.885781e-015
    endloop
  endfacet
  facet normal 8.475440e-001 5.307252e-001 -0.000000e+000
    outer loop
      vertex   -1.825130e+002 2.397716e+002 -3.885781e-015
      vertex   -1.826523e+002 2.399940e+002 4.000000e+000
      vertex   -1.825130e+002 2.397716e+002 4.000000e+000
    endloop
  endfacet
  facet normal 7.987564e-001 6.016546e-001 -0.000000e+000
    outer loop
      vertex   -1.825130e+002 2.397716e+002 -3.885781e-015
      vertex   -1.825130e+002 2.397716e+002 4.000000e+000
      vertex   -1.823551e+002 2.395619e+002 -3.885781e-015
    endloop
  endfacet
  facet normal 7.987564e-001 6.016546e-001 -0.000000e+000
    outer loop
      vertex   -1.823551e+002 2.395619e+002 -3.885781e-015
      vertex   -1.825130e+002 2.397716e+002 4.000000e+000
      vertex   -1.823551e+002 2.395619e+002 4.000000e+000
    endloop
  endfacet
  facet normal 7.441089e-001 6.680584e-001 -0.000000e+000
    outer loop
      vertex   -1.823551e+002 2.395619e+002 -3.885781e-015
      vertex   -1.823551e+002 2.395619e+002 4.000000e+000
      vertex   -1.821797e+002 2.393667e+002 -3.885781e-015
    endloop
  endfacet
  facet normal 7.441089e-001 6.680584e-001 -0.000000e+000
    outer loop
      vertex   -1.821797e+002 2.393667e+002 -3.885781e-015
      vertex   -1.823551e+002 2.395619e+002 4.000000e+000
      vertex   -1.821797e+002 2.393667e+002 4.000000e+000
    endloop
  endfacet
  facet normal 6.839469e-001 7.295318e-001 -0.000000e+000
    outer loop
      vertex   -1.821797e+002 2.393667e+002 -3.885781e-015
      vertex   -1.821797e+002 2.393667e+002 4.000000e+000
      vertex   -1.819883e+002 2.391872e+002 -3.885781e-015
    endloop
  endfacet
  facet normal 6.839469e-001 7.295318e-001 -0.000000e+000
    outer loop
      vertex   -1.819883e+002 2.391872e+002 -3.885781e-015
      vertex   -1.821797e+002 2.393667e+002 4.000000e+000
      vertex   -1.819883e+002 2.391872e+002 4.000000e+000
    endloop
  endfacet
  facet normal 6.186352e-001 7.856783e-001 -0.000000e+000
    outer loop
      vertex   -1.819883e+002 2.391872e+002 -3.885781e-015
      vertex   -1.819883e+002 2.391872e+002 4.000000e+000
      vertex   -1.817821e+002 2.390248e+002 -3.885781e-015
    endloop
  endfacet
  facet normal 6.186352e-001 7.856783e-001 -0.000000e+000
    outer loop
      vertex   -1.817821e+002 2.390248e+002 -3.885781e-015
      vertex   -1.819883e+002 2.391872e+002 4.000000e+000
      vertex   -1.817821e+002 2.390248e+002 4.000000e+000
    endloop
  endfacet
  facet normal 5.488634e-001 8.359120e-001 -0.000000e+000
    outer loop
      vertex   -1.817821e+002 2.390248e+002 -3.885781e-015
      vertex   -1.817821e+002 2.390248e+002 4.000000e+000
      vertex   -1.815627e+002 2.388808e+002 -3.885781e-015
    endloop
  endfacet
  facet normal 5.488634e-001 8.359120e-001 -0.000000e+000
    outer loop
      vertex   -1.815627e+002 2.388808e+002 -3.885781e-015
      vertex   -1.817821e+002 2.390248e+002 4.000000e+000
      vertex   -1.815627e+002 2.388808e+002 4.000000e+000
    endloop
  endfacet
  facet normal 4.749734e-001 8.800002e-001 -0.000000e+000
    outer loop
      vertex   -1.815627e+002 2.388808e+002 -3.885781e-015
      vertex   -1.815627e+002 2.388808e+002 4.000000e+000
      vertex   -1.813318e+002 2.387561e+002 -3.885781e-015
    endloop
  endfacet
  facet normal 4.749734e-001 8.800002e-001 -0.000000e+000
    outer loop
      vertex   -1.813318e+002 2.387561e+002 -3.885781e-015
      vertex   -1.815627e+002 2.388808e+002 4.000000e+000
      vertex   -1.813318e+002 2.387561e+002 4.000000e+000
    endloop
  endfacet
  facet normal 3.975161e-001 9.175952e-001 -0.000000e+000
    outer loop
      vertex   -1.813318e+002 2.387561e+002 -3.885781e-015
      vertex   -1.813318e+002 2.387561e+002 4.000000e+000
      vertex   -1.810910e+002 2.386518e+002 -3.885781e-015
    endloop
  endfacet
  facet normal 3.975161e-001 9.175952e-001 -0.000000e+000
    outer loop
      vertex   -1.810910e+002 2.386518e+002 -3.885781e-015
      vertex   -1.813318e+002 2.387561e+002 4.000000e+000
      vertex   -1.810910e+002 2.386518e+002 4.000000e+000
    endloop
  endfacet
  facet normal 3.171870e-001 9.483630e-001 -0.000000e+000
    outer loop
      vertex   -1.810910e+002 2.386518e+002 -3.885781e-015
      vertex   -1.810910e+002 2.386518e+002 4.000000e+000
      vertex   -1.808421e+002 2.385686e+002 -3.885781e-015
    endloop
  endfacet
  facet normal 3.171870e-001 9.483630e-001 -0.000000e+000
    outer loop
      vertex   -1.808421e+002 2.385686e+002 -3.885781e-015
      vertex   -1.810910e+002 2.386518e+002 4.000000e+000
      vertex   -1.808421e+002 2.385686e+002 4.000000e+000
    endloop
  endfacet
  facet normal 2.344833e-001 9.721202e-001 -0.000000e+000
    outer loop
      vertex   -1.808421e+002 2.385686e+002 -3.885781e-015
      vertex   -1.808421e+002 2.385686e+002 4.000000e+000
      vertex   -1.805870e+002 2.385070e+002 -3.885781e-015
    endloop
  endfacet
  facet normal 2.344833e-001 9.721202e-001 -0.000000e+000
    outer loop
      vertex   -1.805870e+002 2.385070e+002 -3.885781e-015
      vertex   -1.808421e+002 2.385686e+002 4.000000e+000
      vertex   -1.805870e+002 2.385070e+002 4.000000e+000
    endloop
  endfacet
  facet normal 1.500689e-001 9.886755e-001 -0.000000e+000
    outer loop
      vertex   -1.805870e+002 2.385070e+002 -3.885781e-015
      vertex   -1.805870e+002 2.385070e+002 4.000000e+000
      vertex   -1.803275e+002 2.384676e+002 -3.885781e-015
    endloop
  endfacet
  facet normal 1.500689e-001 9.886755e-001 -0.000000e+000
    outer loop
      vertex   -1.803275e+002 2.384676e+002 -3.885781e-015
      vertex   -1.805870e+002 2.385070e+002 4.000000e+000
      vertex   -1.803275e+002 2.384676e+002 4.000000e+000
    endloop
  endfacet
  facet normal 6.453917e-002 9.979151e-001 -0.000000e+000
    outer loop
      vertex   -1.803275e+002 2.384676e+002 -3.885781e-015
      vertex   -1.803275e+002 2.384676e+002 4.000000e+000
      vertex   -1.800656e+002 2.384507e+002 -3.885781e-015
    endloop
  endfacet
  facet normal 6.453917e-002 9.979151e-001 -0.000000e+000
    outer loop
      vertex   -1.800656e+002 2.384507e+002 -3.885781e-015
      vertex   -1.803275e+002 2.384676e+002 4.000000e+000
      vertex   -1.800656e+002 2.384507e+002 4.000000e+000
    endloop
  endfacet
  facet normal -2.157102e-002 9.997673e-001 0.000000e+000
    outer loop
      vertex   -1.800656e+002 2.384507e+002 -3.885781e-015
      vertex   -1.800656e+002 2.384507e+002 4.000000e+000
      vertex   -1.798033e+002 2.384564e+002 -3.885781e-015
    endloop
  endfacet
  facet normal -2.157102e-002 9.997673e-001 0.000000e+000
    outer loop
      vertex   -1.798033e+002 2.384564e+002 -3.885781e-015
      vertex   -1.800656e+002 2.384507e+002 4.000000e+000
      vertex   -1.798033e+002 2.384564e+002 4.000000e+000
    endloop
  endfacet
  facet normal -1.073296e-001 9.942235e-001 0.000000e+000
    outer loop
      vertex   -1.798033e+002 2.384564e+002 -3.885781e-015
      vertex   -1.798033e+002 2.384564e+002 4.000000e+000
      vertex   -1.795423e+002 2.384845e+002 -3.885781e-015
    endloop
  endfacet
  facet normal -1.073296e-001 9.942235e-001 0.000000e+000
    outer loop
      vertex   -1.795423e+002 2.384845e+002 -3.885781e-015
      vertex   -1.798033e+002 2.384564e+002 4.000000e+000
      vertex   -1.795423e+002 2.384845e+002 4.000000e+000
    endloop
  endfacet
  facet normal -1.924584e-001 9.813051e-001 0.000000e+000
    outer loop
      vertex   -1.795423e+002 2.384845e+002 -3.885781e-015
      vertex   -1.795423e+002 2.384845e+002 4.000000e+000
      vertex   -1.792848e+002 2.385350e+002 -3.885781e-015
    endloop
  endfacet
  facet normal -1.924584e-001 9.813051e-001 0.000000e+000
    outer loop
      vertex   -1.792848e+002 2.385350e+002 -3.885781e-015
      vertex   -1.795423e+002 2.384845e+002 4.000000e+000
      vertex   -1.792848e+002 2.385350e+002 4.000000e+000
    endloop
  endfacet
  facet normal -2.761107e-001 9.611259e-001 0.000000e+000
    outer loop
      vertex   -1.792848e+002 2.385350e+002 -3.885781e-015
      vertex   -1.792848e+002 2.385350e+002 4.000000e+000
      vertex   -1.790326e+002 2.386075e+002 -3.885781e-015
    endloop
  endfacet
  facet normal -2.761107e-001 9.611259e-001 0.000000e+000
    outer loop
      vertex   -1.790326e+002 2.386075e+002 -3.885781e-015
      vertex   -1.792848e+002 2.385350e+002 4.000000e+000
      vertex   -1.790326e+002 2.386075e+002 4.000000e+000
    endloop
  endfacet
  facet normal -3.576969e-001 9.338378e-001 0.000000e+000
    outer loop
      vertex   -1.790326e+002 2.386075e+002 -3.885781e-015
      vertex   -1.790326e+002 2.386075e+002 4.000000e+000
      vertex   -1.787875e+002 2.387014e+002 -3.885781e-015
    endloop
  endfacet
  facet normal -3.576969e-001 9.338378e-001 0.000000e+000
    outer loop
      vertex   -1.787875e+002 2.387014e+002 -3.885781e-015
      vertex   -1.790326e+002 2.386075e+002 4.000000e+000
      vertex   -1.787875e+002 2.387014e+002 4.000000e+000
    endloop
  endfacet
  facet normal -4.366472e-001 8.996328e-001 0.000000e+000
    outer loop
      vertex   -1.787875e+002 2.387014e+002 -3.885781e-015
      vertex   -1.787875e+002 2.387014e+002 4.000000e+000
      vertex   -1.785514e+002 2.388160e+002 -3.885781e-015
    endloop
  endfacet
  facet normal -4.366472e-001 8.996328e-001 0.000000e+000
    outer loop
      vertex   -1.785514e+002 2.388160e+002 -3.885781e-015
      vertex   -1.787875e+002 2.387014e+002 4.000000e+000
      vertex   -1.785514e+002 2.388160e+002 4.000000e+000
    endloop
  endfacet
  facet normal -5.123821e-001 8.587576e-001 0.000000e+000
    outer loop
      vertex   -1.785514e+002 2.388160e+002 -3.885781e-015
      vertex   -1.785514e+002 2.388160e+002 4.000000e+000
      vertex   -1.783260e+002 2.389504e+002 -3.885781e-015
    endloop
  endfacet
  facet normal -5.123821e-001 8.587576e-001 0.000000e+000
    outer loop
      vertex   -1.783260e+002 2.389504e+002 -3.885781e-015
      vertex   -1.785514e+002 2.388160e+002 4.000000e+000
      vertex   -1.783260e+002 2.389504e+002 4.000000e+000
    endloop
  endfacet
  facet normal -5.843139e-001 8.115277e-001 0.000000e+000
    outer loop
      vertex   -1.783260e+002 2.389504e+002 -3.885781e-015
      vertex   -1.783260e+002 2.389504e+002 4.000000e+000
      vertex   -1.781131e+002 2.391038e+002 -3.885781e-015
    endloop
  endfacet
  facet normal -5.843139e-001 8.115277e-001 0.000000e+000
    outer loop
      vertex   -1.781131e+002 2.391038e+002 -3.885781e-015
      vertex   -1.783260e+002 2.389504e+002 4.000000e+000
      vertex   -1.781131e+002 2.391038e+002 4.000000e+000
    endloop
  endfacet
  facet normal -6.519015e-001 7.583036e-001 0.000000e+000
    outer loop
      vertex   -1.781131e+002 2.391038e+002 -3.885781e-015
      vertex   -1.781131e+002 2.391038e+002 4.000000e+000
      vertex   -1.779140e+002 2.392749e+002 -3.885781e-015
    endloop
  endfacet
  facet normal -6.519015e-001 7.583036e-001 0.000000e+000
    outer loop
      vertex   -1.779140e+002 2.392749e+002 -3.885781e-015
      vertex   -1.781131e+002 2.391038e+002 4.000000e+000
      vertex   -1.779140e+002 2.392749e+002 4.000000e+000
    endloop
  endfacet
  facet normal -7.146539e-001 6.994782e-001 0.000000e+000
    outer loop
      vertex   -1.779140e+002 2.392749e+002 -3.885781e-015
      vertex   -1.779140e+002 2.392749e+002 4.000000e+000
      vertex   -1.777305e+002 2.394624e+002 -3.885781e-015
    endloop
  endfacet
  facet normal -7.146539e-001 6.994782e-001 0.000000e+000
    outer loop
      vertex   -1.777305e+002 2.394624e+002 -3.885781e-015
      vertex   -1.779140e+002 2.392749e+002 4.000000e+000
      vertex   -1.777305e+002 2.394624e+002 4.000000e+000
    endloop
  endfacet
  facet normal -7.721434e-001 6.354484e-001 0.000000e+000
    outer loop
      vertex   -1.777305e+002 2.394624e+002 -3.885781e-015
      vertex   -1.777305e+002 2.394624e+002 4.000000e+000
      vertex   -1.775637e+002 2.396650e+002 -3.885781e-015
    endloop
  endfacet
  facet normal -7.721434e-001 6.354484e-001 0.000000e+000
    outer loop
      vertex   -1.775637e+002 2.396650e+002 -3.885781e-015
      vertex   -1.777305e+002 2.394624e+002 4.000000e+000
      vertex   -1.775637e+002 2.396650e+002 4.000000e+000
    endloop
  endfacet
  facet normal -8.239214e-001 5.667040e-001 0.000000e+000
    outer loop
      vertex   -1.775637e+002 2.396650e+002 -3.885781e-015
      vertex   -1.775637e+002 2.396650e+002 4.000000e+000
      vertex   -1.774150e+002 2.398813e+002 -3.885781e-015
    endloop
  endfacet
  facet normal -8.239214e-001 5.667040e-001 0.000000e+000
    outer loop
      vertex   -1.774150e+002 2.398813e+002 -3.885781e-015
      vertex   -1.775637e+002 2.396650e+002 4.000000e+000
      vertex   -1.774150e+002 2.398813e+002 4.000000e+000
    endloop
  endfacet
  facet normal -8.695996e-001 4.937576e-001 0.000000e+000
    outer loop
      vertex   -1.774150e+002 2.398813e+002 -3.885781e-015
      vertex   -1.774150e+002 2.398813e+002 4.000000e+000
      vertex   -1.772854e+002 2.401095e+002 -3.885781e-015
    endloop
  endfacet
  facet normal -8.695996e-001 4.937576e-001 0.000000e+000
    outer loop
      vertex   -1.772854e+002 2.401095e+002 -3.885781e-015
      vertex   -1.774150e+002 2.398813e+002 4.000000e+000
      vertex   -1.772854e+002 2.401095e+002 4.000000e+000
    endloop
  endfacet
  facet normal -9.088270e-001 4.171732e-001 0.000000e+000
    outer loop
      vertex   -1.772854e+002 2.401095e+002 -3.885781e-015
      vertex   -1.772854e+002 2.401095e+002 4.000000e+000
      vertex   -1.771759e+002 2.403480e+002 -3.885781e-015
    endloop
  endfacet
  facet normal -9.088270e-001 4.171732e-001 0.000000e+000
    outer loop
      vertex   -1.771759e+002 2.403480e+002 -3.885781e-015
      vertex   -1.772854e+002 2.401095e+002 4.000000e+000
      vertex   -1.771759e+002 2.403480e+002 4.000000e+000
    endloop
  endfacet
  facet normal -9.413202e-001 3.375148e-001 0.000000e+000
    outer loop
      vertex   -1.771759e+002 2.403480e+002 -3.885781e-015
      vertex   -1.771759e+002 2.403480e+002 4.000000e+000
      vertex   -1.770874e+002 2.405950e+002 -3.885781e-015
    endloop
  endfacet
  facet normal -9.413202e-001 3.375148e-001 0.000000e+000
    outer loop
      vertex   -1.770874e+002 2.405950e+002 -3.885781e-015
      vertex   -1.771759e+002 2.403480e+002 4.000000e+000
      vertex   -1.770874e+002 2.405950e+002 4.000000e+000
    endloop
  endfacet
  facet normal -9.668422e-001 2.553747e-001 0.000000e+000
    outer loop
      vertex   -1.770874e+002 2.405950e+002 -3.885781e-015
      vertex   -1.770874e+002 2.405950e+002 4.000000e+000
      vertex   -1.770203e+002 2.408488e+002 -3.885781e-015
    endloop
  endfacet
  facet normal -9.668422e-001 2.553747e-001 0.000000e+000
    outer loop
      vertex   -1.770203e+002 2.408488e+002 -3.885781e-015
      vertex   -1.770874e+002 2.405950e+002 4.000000e+000
      vertex   -1.770203e+002 2.408488e+002 4.000000e+000
    endloop
  endfacet
  facet normal -9.852211e-001 1.712872e-001 0.000000e+000
    outer loop
      vertex   -1.770203e+002 2.408488e+002 -3.885781e-015
      vertex   -1.770203e+002 2.408488e+002 4.000000e+000
      vertex   -1.769754e+002 2.411073e+002 -3.885781e-015
    endloop
  endfacet
  facet normal -9.852211e-001 1.712872e-001 0.000000e+000
    outer loop
      vertex   -1.769754e+002 2.411073e+002 -3.885781e-015
      vertex   -1.770203e+002 2.408488e+002 4.000000e+000
      vertex   -1.769754e+002 2.411073e+002 4.000000e+000
    endloop
  endfacet
  facet normal -9.962960e-001 8.598983e-002 0.000000e+000
    outer loop
      vertex   -1.769754e+002 2.411073e+002 -3.885781e-015
      vertex   -1.769754e+002 2.411073e+002 4.000000e+000
      vertex   -1.769528e+002 2.413688e+002 -3.885781e-015
    endloop
  endfacet
  facet normal -9.962960e-001 8.598983e-002 0.000000e+000
    outer loop
      vertex   -1.769528e+002 2.413688e+002 -3.885781e-015
      vertex   -1.769754e+002 2.411073e+002 4.000000e+000
      vertex   -1.769528e+002 2.413688e+002 4.000000e+000
    endloop
  endfacet
  facet normal -1.000000e+000 0.000000e+000 0.000000e+000
    outer loop
      vertex   -1.769528e+002 2.413688e+002 -3.885781e-015
      vertex   -1.769528e+002 2.413688e+002 4.000000e+000
      vertex   -1.769528e+002 2.416312e+002 -3.885781e-015
    endloop
  endfacet
  facet normal -1.000000e+000 0.000000e+000 0.000000e+000
    outer loop
      vertex   -1.769528e+002 2.416312e+002 -3.885781e-015
      vertex   -1.769528e+002 2.413688e+002 4.000000e+000
      vertex   -1.769528e+002 2.416312e+002 4.000000e+000
    endloop
  endfacet
  facet normal -9.962960e-001 -8.598983e-002 0.000000e+000
    outer loop
      vertex   -1.769528e+002 2.416312e+002 -3.885781e-015
      vertex   -1.769528e+002 2.416312e+002 4.000000e+000
      vertex   -1.769754e+002 2.418927e+002 -3.885781e-015
    endloop
  endfacet
  facet normal -9.962960e-001 -8.598983e-002 0.000000e+000
    outer loop
      vertex   -1.769754e+002 2.418927e+002 -3.885781e-015
      vertex   -1.769528e+002 2.416312e+002 4.000000e+000
      vertex   -1.769754e+002 2.418927e+002 4.000000e+000
    endloop
  endfacet
  facet normal -9.852211e-001 -1.712872e-001 0.000000e+000
    outer loop
      vertex   -1.769754e+002 2.418927e+002 -3.885781e-015
      vertex   -1.769754e+002 2.418927e+002 4.000000e+000
      vertex   -1.770203e+002 2.421512e+002 -3.885781e-015
    endloop
  endfacet
  facet normal -9.852211e-001 -1.712872e-001 0.000000e+000
    outer loop
      vertex   -1.770203e+002 2.421512e+002 -3.885781e-015
      vertex   -1.769754e+002 2.418927e+002 4.000000e+000
      vertex   -1.770203e+002 2.421512e+002 4.000000e+000
    endloop
  endfacet
  facet normal -9.668422e-001 -2.553747e-001 0.000000e+000
    outer loop
      vertex   -1.770203e+002 2.421512e+002 -3.885781e-015
      vertex   -1.770203e+002 2.421512e+002 4.000000e+000
      vertex   -1.770874e+002 2.424050e+002 -3.885781e-015
    endloop
  endfacet
  facet normal -9.668422e-001 -2.553747e-001 0.000000e+000
    outer loop
      vertex   -1.770874e+002 2.424050e+002 -3.885781e-015
      vertex   -1.770203e+002 2.421512e+002 4.000000e+000
      vertex   -1.770874e+002 2.424050e+002 4.000000e+000
    endloop
  endfacet
  facet normal -9.413202e-001 -3.375148e-001 0.000000e+000
    outer loop
      vertex   -1.770874e+002 2.424050e+002 -3.885781e-015
      vertex   -1.770874e+002 2.424050e+002 4.000000e+000
      vertex   -1.771759e+002 2.426520e+002 -3.885781e-015
    endloop
  endfacet
  facet normal -9.413202e-001 -3.375148e-001 0.000000e+000
    outer loop
      vertex   -1.771759e+002 2.426520e+002 -3.885781e-015
      vertex   -1.770874e+002 2.424050e+002 4.000000e+000
      vertex   -1.771759e+002 2.426520e+002 4.000000e+000
    endloop
  endfacet
  facet normal -9.088270e-001 -4.171732e-001 0.000000e+000
    outer loop
      vertex   -1.771759e+002 2.426520e+002 -3.885781e-015
      vertex   -1.771759e+002 2.426520e+002 4.000000e+000
      vertex   -1.772854e+002 2.428905e+002 -3.885781e-015
    endloop
  endfacet
  facet normal -9.088270e-001 -4.171732e-001 0.000000e+000
    outer loop
      vertex   -1.772854e+002 2.428905e+002 -3.885781e-015
      vertex   -1.771759e+002 2.426520e+002 4.000000e+000
      vertex   -1.772854e+002 2.428905e+002 4.000000e+000
    endloop
  endfacet
  facet normal -8.695996e-001 -4.937576e-001 0.000000e+000
    outer loop
      vertex   -1.772854e+002 2.428905e+002 -3.885781e-015
      vertex   -1.772854e+002 2.428905e+002 4.000000e+000
      vertex   -1.774150e+002 2.431187e+002 -3.885781e-015
    endloop
  endfacet
  facet normal -8.695996e-001 -4.937576e-001 0.000000e+000
    outer loop
      vertex   -1.774150e+002 2.431187e+002 -3.885781e-015
      vertex   -1.772854e+002 2.428905e+002 4.000000e+000
      vertex   -1.774150e+002 2.431187e+002 4.000000e+000
    endloop
  endfacet
  facet normal -8.239214e-001 -5.667040e-001 0.000000e+000
    outer loop
      vertex   -1.774150e+002 2.431187e+002 -3.885781e-015
      vertex   -1.774150e+002 2.431187e+002 4.000000e+000
      vertex   -1.775637e+002 2.433350e+002 -3.885781e-015
    endloop
  endfacet
  facet normal -8.239214e-001 -5.667040e-001 0.000000e+000
    outer loop
      vertex   -1.775637e+002 2.433350e+002 -3.885781e-015
      vertex   -1.774150e+002 2.431187e+002 4.000000e+000
      vertex   -1.775637e+002 2.433350e+002 4.000000e+000
    endloop
  endfacet
  facet normal -7.721434e-001 -6.354484e-001 0.000000e+000
    outer loop
      vertex   -1.775637e+002 2.433350e+002 -3.885781e-015
      vertex   -1.775637e+002 2.433350e+002 4.000000e+000
      vertex   -1.777305e+002 2.435376e+002 -3.885781e-015
    endloop
  endfacet
  facet normal -7.721434e-001 -6.354484e-001 0.000000e+000
    outer loop
      vertex   -1.777305e+002 2.435376e+002 -3.885781e-015
      vertex   -1.775637e+002 2.433350e+002 4.000000e+000
      vertex   -1.777305e+002 2.435376e+002 4.000000e+000
    endloop
  endfacet
  facet normal -7.146539e-001 -6.994782e-001 0.000000e+000
    outer loop
      vertex   -1.777305e+002 2.435376e+002 -3.885781e-015
      vertex   -1.777305e+002 2.435376e+002 4.000000e+000
      vertex   -1.779140e+002 2.437251e+002 -3.885781e-015
    endloop
  endfacet
  facet normal -7.146539e-001 -6.994782e-001 0.000000e+000
    outer loop
      vertex   -1.779140e+002 2.437251e+002 -3.885781e-015
      vertex   -1.777305e+002 2.435376e+002 4.000000e+000
      vertex   -1.779140e+002 2.437251e+002 4.000000e+000
    endloop
  endfacet
  facet normal -6.519015e-001 -7.583036e-001 0.000000e+000
    outer loop
      vertex   -1.779140e+002 2.437251e+002 -3.885781e-015
      vertex   -1.779140e+002 2.437251e+002 4.000000e+000
      vertex   -1.781131e+002 2.438962e+002 -3.885781e-015
    endloop
  endfacet
  facet normal -6.519015e-001 -7.583036e-001 0.000000e+000
    outer loop
      vertex   -1.781131e+002 2.438962e+002 -3.885781e-015
      vertex   -1.779140e+002 2.437251e+002 4.000000e+000
      vertex   -1.781131e+002 2.438962e+002 4.000000e+000
    endloop
  endfacet
  facet normal -5.843139e-001 -8.115277e-001 0.000000e+000
    outer loop
      vertex   -1.781131e+002 2.438962e+002 -3.885781e-015
      vertex   -1.781131e+002 2.438962e+002 4.000000e+000
      vertex   -1.783260e+002 2.440496e+002 -3.885781e-015
    endloop
  endfacet
  facet normal -5.843139e-001 -8.115277e-001 0.000000e+000
    outer loop
      vertex   -1.783260e+002 2.440496e+002 -3.885781e-015
      vertex   -1.781131e+002 2.438962e+002 4.000000e+000
      vertex   -1.783260e+002 2.440496e+002 4.000000e+000
    endloop
  endfacet
  facet normal -5.123821e-001 -8.587576e-001 0.000000e+000
    outer loop
      vertex   -1.783260e+002 2.440496e+002 -3.885781e-015
      vertex   -1.783260e+002 2.440496e+002 4.000000e+000
      vertex   -1.785514e+002 2.441840e+002 -3.885781e-015
    endloop
  endfacet
  facet normal -5.123821e-001 -8.587576e-001 0.000000e+000
    outer loop
      vertex   -1.785514e+002 2.441840e+002 -3.885781e-015
      vertex   -1.783260e+002 2.440496e+002 4.000000e+000
      vertex   -1.785514e+002 2.441840e+002 4.000000e+000
    endloop
  endfacet
  facet normal -4.366472e-001 -8.996328e-001 0.000000e+000
    outer loop
      vertex   -1.785514e+002 2.441840e+002 -3.885781e-015
      vertex   -1.785514e+002 2.441840e+002 4.000000e+000
      vertex   -1.787875e+002 2.442986e+002 -3.885781e-015
    endloop
  endfacet
  facet normal -4.366472e-001 -8.996328e-001 0.000000e+000
    outer loop
      vertex   -1.787875e+002 2.442986e+002 -3.885781e-015
      vertex   -1.785514e+002 2.441840e+002 4.000000e+000
      vertex   -1.787875e+002 2.442986e+002 4.000000e+000
    endloop
  endfacet
  facet normal -3.576969e-001 -9.338378e-001 0.000000e+000
    outer loop
      vertex   -1.787875e+002 2.442986e+002 -3.885781e-015
      vertex   -1.787875e+002 2.442986e+002 4.000000e+000
      vertex   -1.790326e+002 2.443925e+002 -3.885781e-015
    endloop
  endfacet
  facet normal -3.576969e-001 -9.338378e-001 0.000000e+000
    outer loop
      vertex   -1.790326e+002 2.443925e+002 -3.885781e-015
      vertex   -1.787875e+002 2.442986e+002 4.000000e+000
      vertex   -1.790326e+002 2.443925e+002 4.000000e+000
    endloop
  endfacet
  facet normal -2.761107e-001 -9.611259e-001 0.000000e+000
    outer loop
      vertex   -1.790326e+002 2.443925e+002 -3.885781e-015
      vertex   -1.790326e+002 2.443925e+002 4.000000e+000
      vertex   -1.792848e+002 2.444650e+002 -3.885781e-015
    endloop
  endfacet
  facet normal -2.761107e-001 -9.611259e-001 0.000000e+000
    outer loop
      vertex   -1.792848e+002 2.444650e+002 -3.885781e-015
      vertex   -1.790326e+002 2.443925e+002 4.000000e+000
      vertex   -1.792848e+002 2.444650e+002 4.000000e+000
    endloop
  endfacet
  facet normal -1.924584e-001 -9.813051e-001 0.000000e+000
    outer loop
      vertex   -1.792848e+002 2.444650e+002 -3.885781e-015
      vertex   -1.792848e+002 2.444650e+002 4.000000e+000
      vertex   -1.795423e+002 2.445155e+002 -3.885781e-015
    endloop
  endfacet
  facet normal -1.924584e-001 -9.813051e-001 0.000000e+000
    outer loop
      vertex   -1.795423e+002 2.445155e+002 -3.885781e-015
      vertex   -1.792848e+002 2.444650e+002 4.000000e+000
      vertex   -1.795423e+002 2.445155e+002 4.000000e+000
    endloop
  endfacet
  facet normal -1.073296e-001 -9.942235e-001 0.000000e+000
    outer loop
      vertex   -1.795423e+002 2.445155e+002 -3.885781e-015
      vertex   -1.795423e+002 2.445155e+002 4.000000e+000
      vertex   -1.798033e+002 2.445436e+002 -3.885781e-015
    endloop
  endfacet
  facet normal -1.073296e-001 -9.942235e-001 0.000000e+000
    outer loop
      vertex   -1.798033e+002 2.445436e+002 -3.885781e-015
      vertex   -1.795423e+002 2.445155e+002 4.000000e+000
      vertex   -1.798033e+002 2.445436e+002 4.000000e+000
    endloop
  endfacet
  facet normal -2.157102e-002 -9.997673e-001 0.000000e+000
    outer loop
      vertex   -1.798033e+002 2.445436e+002 -3.885781e-015
      vertex   -1.798033e+002 2.445436e+002 4.000000e+000
      vertex   -1.800656e+002 2.445493e+002 -3.885781e-015
    endloop
  endfacet
  facet normal -2.157102e-002 -9.997673e-001 0.000000e+000
    outer loop
      vertex   -1.800656e+002 2.445493e+002 -3.885781e-015
      vertex   -1.798033e+002 2.445436e+002 4.000000e+000
      vertex   -1.800656e+002 2.445493e+002 4.000000e+000
    endloop
  endfacet
  facet normal 6.453917e-002 -9.979151e-001 0.000000e+000
    outer loop
      vertex   -1.800656e+002 2.445493e+002 -3.885781e-015
      vertex   -1.800656e+002 2.445493e+002 4.000000e+000
      vertex   -1.803275e+002 2.445324e+002 -3.885781e-015
    endloop
  endfacet
  facet normal 6.453917e-002 -9.979151e-001 0.000000e+000
    outer loop
      vertex   -1.803275e+002 2.445324e+002 -3.885781e-015
      vertex   -1.800656e+002 2.445493e+002 4.000000e+000
      vertex   -1.803275e+002 2.445324e+002 4.000000e+000
    endloop
  endfacet
  facet normal 1.500689e-001 -9.886755e-001 0.000000e+000
    outer loop
      vertex   -1.803275e+002 2.445324e+002 -3.885781e-015
      vertex   -1.803275e+002 2.445324e+002 4.000000e+000
      vertex   -1.805870e+002 2.444930e+002 -3.885781e-015
    endloop
  endfacet
  facet normal 1.500689e-001 -9.886755e-001 0.000000e+000
    outer loop
      vertex   -1.805870e+002 2.444930e+002 -3.885781e-015
      vertex   -1.803275e+002 2.445324e+002 4.000000e+000
      vertex   -1.805870e+002 2.444930e+002 4.000000e+000
    endloop
  endfacet
  facet normal 2.344833e-001 -9.721202e-001 0.000000e+000
    outer loop
      vertex   -1.805870e+002 2.444930e+002 -3.885781e-015
      vertex   -1.805870e+002 2.444930e+002 4.000000e+000
      vertex   -1.808421e+002 2.444314e+002 -3.885781e-015
    endloop
  endfacet
  facet normal 2.344833e-001 -9.721202e-001 0.000000e+000
    outer loop
      vertex   -1.808421e+002 2.444314e+002 -3.885781e-015
      vertex   -1.805870e+002 2.444930e+002 4.000000e+000
      vertex   -1.808421e+002 2.444314e+002 4.000000e+000
    endloop
  endfacet
  facet normal 3.171870e-001 -9.483630e-001 0.000000e+000
    outer loop
      vertex   -1.808421e+002 2.444314e+002 -3.885781e-015
      vertex   -1.808421e+002 2.444314e+002 4.000000e+000
      vertex   -1.810910e+002 2.443482e+002 -3.885781e-015
    endloop
  endfacet
  facet normal 3.171870e-001 -9.483630e-001 0.000000e+000
    outer loop
      vertex   -1.810910e+002 2.443482e+002 -3.885781e-015
      vertex   -1.808421e+002 2.444314e+002 4.000000e+000
      vertex   -1.810910e+002 2.443482e+002 4.000000e+000
    endloop
  endfacet
  facet normal 3.975161e-001 -9.175952e-001 0.000000e+000
    outer loop
      vertex   -1.810910e+002 2.443482e+002 -3.885781e-015
      vertex   -1.810910e+002 2.443482e+002 4.000000e+000
      vertex   -1.813318e+002 2.442439e+002 -3.885781e-015
    endloop
  endfacet
  facet normal 3.975161e-001 -9.175952e-001 0.000000e+000
    outer loop
      vertex   -1.813318e+002 2.442439e+002 -3.885781e-015
      vertex   -1.810910e+002 2.443482e+002 4.000000e+000
      vertex   -1.813318e+002 2.442439e+002 4.000000e+000
    endloop
  endfacet
  facet normal 4.749734e-001 -8.800002e-001 0.000000e+000
    outer loop
      vertex   -1.813318e+002 2.442439e+002 -3.885781e-015
      vertex   -1.813318e+002 2.442439e+002 4.000000e+000
      vertex   -1.815627e+002 2.441192e+002 -3.885781e-015
    endloop
  endfacet
  facet normal 4.749734e-001 -8.800002e-001 0.000000e+000
    outer loop
      vertex   -1.815627e+002 2.441192e+002 -3.885781e-015
      vertex   -1.813318e+002 2.442439e+002 4.000000e+000
      vertex   -1.815627e+002 2.441192e+002 4.000000e+000
    endloop
  endfacet
  facet normal 5.488634e-001 -8.359120e-001 0.000000e+000
    outer loop
      vertex   -1.815627e+002 2.441192e+002 -3.885781e-015
      vertex   -1.815627e+002 2.441192e+002 4.000000e+000
      vertex   -1.817821e+002 2.439752e+002 -3.885781e-015
    endloop
  endfacet
  facet normal 5.488634e-001 -8.359120e-001 0.000000e+000
    outer loop
      vertex   -1.817821e+002 2.439752e+002 -3.885781e-015
      vertex   -1.815627e+002 2.441192e+002 4.000000e+000
      vertex   -1.817821e+002 2.439752e+002 4.000000e+000
    endloop
  endfacet
  facet normal 6.186352e-001 -7.856783e-001 0.000000e+000
    outer loop
      vertex   -1.817821e+002 2.439752e+002 -3.885781e-015
      vertex   -1.817821e+002 2.439752e+002 4.000000e+000
      vertex   -1.819883e+002 2.438128e+002 -3.885781e-015
    endloop
  endfacet
  facet normal 6.186352e-001 -7.856783e-001 0.000000e+000
    outer loop
      vertex   -1.819883e+002 2.438128e+002 -3.885781e-015
      vertex   -1.817821e+002 2.439752e+002 4.000000e+000
      vertex   -1.819883e+002 2.438128e+002 4.000000e+000
    endloop
  endfacet
  facet normal 6.839469e-001 -7.295318e-001 0.000000e+000
    outer loop
      vertex   -1.819883e+002 2.438128e+002 -3.885781e-015
      vertex   -1.819883e+002 2.438128e+002 4.000000e+000
      vertex   -1.821797e+002 2.436333e+002 -3.885781e-015
    endloop
  endfacet
  facet normal 6.839469e-001 -7.295318e-001 0.000000e+000
    outer loop
      vertex   -1.821797e+002 2.436333e+002 -3.885781e-015
      vertex   -1.819883e+002 2.438128e+002 4.000000e+000
      vertex   -1.821797e+002 2.436333e+002 4.000000e+000
    endloop
  endfacet
  facet normal 7.441089e-001 -6.680584e-001 0.000000e+000
    outer loop
      vertex   -1.821797e+002 2.436333e+002 -3.885781e-015
      vertex   -1.821797e+002 2.436333e+002 4.000000e+000
      vertex   -1.823551e+002 2.434381e+002 -3.885781e-015
    endloop
  endfacet
  facet normal 7.441089e-001 -6.680584e-001 0.000000e+000
    outer loop
      vertex   -1.823551e+002 2.434381e+002 -3.885781e-015
      vertex   -1.821797e+002 2.436333e+002 4.000000e+000
      vertex   -1.823551e+002 2.434381e+002 4.000000e+000
    endloop
  endfacet
  facet normal 7.987564e-001 -6.016546e-001 0.000000e+000
    outer loop
      vertex   -1.823551e+002 2.434381e+002 -3.885781e-015
      vertex   -1.823551e+002 2.434381e+002 4.000000e+000
      vertex   -1.825130e+002 2.432284e+002 -3.885781e-015
    endloop
  endfacet
  facet normal 7.987564e-001 -6.016546e-001 0.000000e+000
    outer loop
      vertex   -1.825130e+002 2.432284e+002 -3.885781e-015
      vertex   -1.823551e+002 2.434381e+002 4.000000e+000
      vertex   -1.825130e+002 2.432284e+002 4.000000e+000
    endloop
  endfacet
  facet normal 8.475440e-001 -5.307252e-001 0.000000e+000
    outer loop
      vertex   -1.825130e+002 2.432284e+002 -3.885781e-015
      vertex   -1.825130e+002 2.432284e+002 4.000000e+000
      vertex   -1.826523e+002 2.430060e+002 -3.885781e-015
    endloop
  endfacet
  facet normal 8.475440e-001 -5.307252e-001 0.000000e+000
    outer loop
      vertex   -1.826523e+002 2.430060e+002 -3.885781e-015
      vertex   -1.825130e+002 2.432284e+002 4.000000e+000
      vertex   -1.826523e+002 2.430060e+002 4.000000e+000
    endloop
  endfacet
  facet normal 8.900238e-001 -4.559141e-001 0.000000e+000
    outer loop
      vertex   -1.826523e+002 2.430060e+002 -3.885781e-015
      vertex   -1.826523e+002 2.430060e+002 4.000000e+000
      vertex   -1.827719e+002 2.427724e+002 -3.885781e-015
    endloop
  endfacet
  facet normal 8.900238e-001 -4.559141e-001 0.000000e+000
    outer loop
      vertex   -1.827719e+002 2.427724e+002 -3.885781e-015
      vertex   -1.826523e+002 2.430060e+002 4.000000e+000
      vertex   -1.827719e+002 2.427724e+002 4.000000e+000
    endloop
  endfacet
  facet normal 9.259290e-001 -3.776976e-001 0.000000e+000
    outer loop
      vertex   -1.827719e+002 2.427724e+002 -3.885781e-015
      vertex   -1.827719e+002 2.427724e+002 4.000000e+000
      vertex   -1.828710e+002 2.425294e+002 -3.885781e-015
    endloop
  endfacet
  facet normal 9.259290e-001 -3.776976e-001 0.000000e+000
    outer loop
      vertex   -1.828710e+002 2.425294e+002 -3.885781e-015
      vertex   -1.827719e+002 2.427724e+002 4.000000e+000
      vertex   -1.828710e+002 2.425294e+002 4.000000e+000
    endloop
  endfacet
  facet normal 9.549721e-001 -2.966955e-001 0.000000e+000
    outer loop
      vertex   -1.828710e+002 2.425294e+002 -3.885781e-015
      vertex   -1.828710e+002 2.425294e+002 4.000000e+000
      vertex   -1.829489e+002 2.422788e+002 -3.885781e-015
    endloop
  endfacet
  facet normal 9.549721e-001 -2.966955e-001 0.000000e+000
    outer loop
      vertex   -1.829489e+002 2.422788e+002 -3.885781e-015
      vertex   -1.828710e+002 2.425294e+002 4.000000e+000
      vertex   -1.829489e+002 2.422788e+002 4.000000e+000
    endloop
  endfacet
  facet normal 9.769296e-001 -2.135616e-001 0.000000e+000
    outer loop
      vertex   -1.829489e+002 2.422788e+002 -3.885781e-015
      vertex   -1.829489e+002 2.422788e+002 4.000000e+000
      vertex   -1.830049e+002 2.420224e+002 -3.885781e-015
    endloop
  endfacet
  facet normal 9.769296e-001 -2.135616e-001 0.000000e+000
    outer loop
      vertex   -1.830049e+002 2.420224e+002 -3.885781e-015
      vertex   -1.829489e+002 2.422788e+002 4.000000e+000
      vertex   -1.830049e+002 2.420224e+002 4.000000e+000
    endloop
  endfacet
  facet normal 9.916800e-001 -1.287277e-001 0.000000e+000
    outer loop
      vertex   -1.830049e+002 2.420224e+002 -3.885781e-015
      vertex   -1.830049e+002 2.420224e+002 4.000000e+000
      vertex   -1.830387e+002 2.417622e+002 -3.885781e-015
    endloop
  endfacet
  facet normal 9.916800e-001 -1.287277e-001 0.000000e+000
    outer loop
      vertex   -1.830387e+002 2.417622e+002 -3.885781e-015
      vertex   -1.830049e+002 2.420224e+002 4.000000e+000
      vertex   -1.830387e+002 2.417622e+002 4.000000e+000
    endloop
  endfacet
  facet normal 1.000000e+000 0.000000e+000 0.000000e+000
    outer loop
      vertex   -2.050933e+002 2.014463e+002 2.000000e+000
      vertex   -2.050933e+002 2.414463e+002 2.000000e+000
      vertex   -2.050933e+002 2.014463e+002 4.000000e+000
    endloop
  endfacet
  facet normal 1.000000e+000 -0.000000e+000 0.000000e+000
    outer loop
      vertex   -2.050933e+002 2.014463e+002 4.000000e+000
      vertex   -2.050933e+002 2.414463e+002 2.000000e+000
      vertex   -2.050933e+002 2.414463e+002 4.000000e+000
    endloop
  endfacet
  facet normal 1.000000e+000 0.000000e+000 0.000000e+000
    outer loop
      vertex   -2.050933e+002 2.414463e+002 4.000000e+000
      vertex   -2.050933e+002 2.414463e+002 2.000000e+000
      vertex   -2.050933e+002 2.814463e+002 2.000000e+000
    endloop
  endfacet
  facet normal 1.000000e+000 -0.000000e+000 0.000000e+000
    outer loop
      vertex   -2.050933e+002 2.414463e+002 4.000000e+000
      vertex   -2.050933e+002 2.814463e+002 2.000000e+000
      vertex   -2.050933e+002 2.814463e+002 4.000000e+000
    endloop
  endfacet
  facet normal -1.000000e+000 0.000000e+000 0.000000e+000
    outer loop
      vertex   -2.070933e+002 2.814463e+002 -4.440892e-015
      vertex   -2.070933e+002 2.414463e+002 -3.330669e-015
      vertex   -2.070933e+002 2.814463e+002 4.000000e+000
    endloop
  endfacet
  facet normal -1.000000e+000 -0.000000e+000 0.000000e+000
    outer loop
      vertex   -2.070933e+002 2.814463e+002 4.000000e+000
      vertex   -2.070933e+002 2.414463e+002 -3.330669e-015
      vertex   -2.070933e+002 2.414463e+002 4.000000e+000
    endloop
  endfacet
  facet normal -1.000000e+000 0.000000e+000 -0.000000e+000
    outer loop
      vertex   -2.070933e+002 2.414463e+002 4.000000e+000
      vertex   -2.070933e+002 2.414463e+002 -3.330669e-015
      vertex   -2.070933e+002 2.014463e+002 -3.330669e-015
    endloop
  endfacet
  facet normal -1.000000e+000 -0.000000e+000 0.000000e+000
    outer loop
      vertex   -2.070933e+002 2.414463e+002 4.000000e+000
      vertex   -2.070933e+002 2.014463e+002 -3.330669e-015
      vertex   -2.070933e+002 2.014463e+002 4.000000e+000
    endloop
  endfacet
  facet normal 0.000000e+000 -0.000000e+000 1.000000e+000
    outer loop
      vertex   -2.050933e+002 2.014463e+002 4.000000e+000
      vertex   -2.050933e+002 2.414463e+002 4.000000e+000
      vertex   -2.070933e+002 2.014463e+002 4.000000e+000
    endloop
  endfacet
  facet normal 0.000000e+000 0.000000e+000 1.000000e+000
    outer loop
      vertex   -2.070933e+002 2.014463e+002 4.000000e+000
      vertex   -2.050933e+002 2.414463e+002 4.000000e+000
      vertex   -2.070933e+002 2.414463e+002 4.000000e+000
    endloop
  endfacet
  facet normal 0.000000e+000 0.000000e+000 1.000000e+000
    outer loop
      vertex   -2.070933e+002 2.414463e+002 4.000000e+000
      vertex   -2.050933e+002 2.414463e+002 4.000000e+000
      vertex   -2.050933e+002 2.814463e+002 4.000000e+000
    endloop
  endfacet
  facet normal 0.000000e+000 0.000000e+000 1.000000e+000
    outer loop
      vertex   -2.070933e+002 2.414463e+002 4.000000e+000
      vertex   -2.050933e+002 2.814463e+002 4.000000e+000
      vertex   -2.070933e+002 2.814463e+002 4.000000e+000
    endloop
  endfacet
  facet normal -2.309019e-017 9.943982e-019 -1.000000e+000
    outer loop
      vertex   -1.830387e+002 2.417622e+002 -3.885781e-015
      vertex   -1.830500e+002 2.415000e+002 -3.885781e-015
      vertex   -2.070933e+002 2.414463e+002 -3.330669e-015
    endloop
  endfacet
  facet normal -2.308575e-017 -9.942068e-019 -1.000000e+000
    outer loop
      vertex   -2.070933e+002 2.414463e+002 -3.330669e-015
      vertex   -1.830500e+002 2.415000e+002 -3.885781e-015
      vertex   -1.830387e+002 2.412378e+002 -3.885781e-015
    endloop
  endfacet
  facet normal -2.310312e-017 -2.998963e-018 -1.000000e+000
    outer loop
      vertex   -2.070933e+002 2.414463e+002 -3.330669e-015
      vertex   -1.830387e+002 2.412378e+002 -3.885781e-015
      vertex   -1.830049e+002 2.409776e+002 -3.885781e-015
    endloop
  endfacet
  facet normal -2.314321e-017 -5.059221e-018 -1.000000e+000
    outer loop
      vertex   -1.830049e+002 2.409776e+002 -3.885781e-015
      vertex   -1.829489e+002 2.407212e+002 -3.885781e-015
      vertex   -2.070933e+002 2.414463e+002 -3.330669e-015
    endloop
  endfacet
  facet normal -2.320782e-017 -7.210318e-018 -1.000000e+000
    outer loop
      vertex   -2.070933e+002 2.414463e+002 -3.330669e-015
      vertex   -1.829489e+002 2.407212e+002 -3.885781e-015
      vertex   -1.828710e+002 2.404706e+002 -3.885781e-015
    endloop
  endfacet
  facet normal -2.330023e-017 -9.504444e-018 -1.000000e+000
    outer loop
      vertex   -2.070933e+002 2.414463e+002 -3.330669e-015
      vertex   -1.828710e+002 2.404706e+002 -3.885781e-015
      vertex   -1.827719e+002 2.402276e+002 -3.885781e-015
    endloop
  endfacet
  facet normal -2.342526e-017 -1.199957e-017 -1.000000e+000
    outer loop
      vertex   -1.827719e+002 2.402276e+002 -3.885781e-015
      vertex   -1.826523e+002 2.399940e+002 -3.885781e-015
      vertex   -2.070933e+002 2.414463e+002 -3.330669e-015
    endloop
  endfacet
  facet normal -2.358999e-017 -1.477186e-017 -1.000000e+000
    outer loop
      vertex   -2.070933e+002 2.414463e+002 -3.330669e-015
      vertex   -1.826523e+002 2.399940e+002 -3.885781e-015
      vertex   -1.825130e+002 2.397716e+002 -3.885781e-015
    endloop
  endfacet
  facet normal -2.380523e-017 -1.793103e-017 -1.000000e+000
    outer loop
      vertex   -2.070933e+002 2.414463e+002 -3.330669e-015
      vertex   -1.825130e+002 2.397716e+002 -3.885781e-015
      vertex   -1.823551e+002 2.395619e+002 -3.885781e-015
    endloop
  endfacet
  facet normal -2.408659e-017 -2.162486e-017 -1.000000e+000
    outer loop
      vertex   -1.823551e+002 2.395619e+002 -3.885781e-015
      vertex   -1.821797e+002 2.393667e+002 -3.885781e-015
      vertex   -2.070933e+002 2.414463e+002 -3.330669e-015
    endloop
  endfacet
  facet normal -2.445926e-017 -2.608947e-017 -1.000000e+000
    outer loop
      vertex   -2.070933e+002 2.414463e+002 -3.330669e-015
      vertex   -1.821797e+002 2.393667e+002 -3.885781e-015
      vertex   -1.819883e+002 2.391872e+002 -3.885781e-015
    endloop
  endfacet
  facet normal -2.496464e-017 -3.170556e-017 -1.000000e+000
    outer loop
      vertex   -2.070933e+002 2.414463e+002 -3.330669e-015
      vertex   -1.819883e+002 2.391872e+002 -3.885781e-015
      vertex   -1.817821e+002 2.390248e+002 -3.885781e-015
    endloop
  endfacet
  facet normal -2.567184e-017 -3.909789e-017 -1.000000e+000
    outer loop
      vertex   -1.817821e+002 2.390248e+002 -3.885781e-015
      vertex   -1.815627e+002 2.388808e+002 -3.885781e-015
      vertex   -2.070933e+002 2.414463e+002 -3.330669e-015
    endloop
  endfacet
  facet normal -2.671710e-017 -4.949973e-017 -1.000000e+000
    outer loop
      vertex   -2.070933e+002 2.414463e+002 -3.330669e-015
      vertex   -1.815627e+002 2.388808e+002 -3.885781e-015
      vertex   -1.813318e+002 2.387561e+002 -3.885781e-015
    endloop
  endfacet
  facet normal -2.154807e-017 -0.000000e+000 -1.000000e+000
    outer loop
      vertex   -2.070933e+002 2.414463e+002 -3.330669e-015
      vertex   -1.813318e+002 2.387561e+002 -3.885781e-015
      vertex   -2.070933e+002 2.014463e+002 -3.330669e-015
    endloop
  endfacet
  facet normal -4.961460e-018 -1.145265e-017 -1.000000e+000
    outer loop
      vertex   -2.070933e+002 2.014463e+002 -3.330669e-015
      vertex   -1.813318e+002 2.387561e+002 -3.885781e-015
      vertex   -1.810910e+002 2.386518e+002 -3.885781e-015
    endloop
  endfacet
  facet normal -4.044710e-018 -1.209335e-017 -1.000000e+000
    outer loop
      vertex   -2.070933e+002 2.014463e+002 -3.330669e-015
      vertex   -1.810910e+002 2.386518e+002 -3.885781e-015
      vertex   -1.808421e+002 2.385686e+002 -3.885781e-015
    endloop
  endfacet
  facet normal -3.081338e-018 -1.277460e-017 -1.000000e+000
    outer loop
      vertex   -1.808421e+002 2.385686e+002 -3.885781e-015
      vertex   -1.805870e+002 2.385070e+002 -3.885781e-015
      vertex   -2.070933e+002 2.014463e+002 -3.330669e-015
    endloop
  endfacet
  facet normal -2.050895e-018 -1.351159e-017 -1.000000e+000
    outer loop
      vertex   -2.070933e+002 2.014463e+002 -3.330669e-015
      vertex   -1.805870e+002 2.385070e+002 -3.885781e-015
      vertex   -1.803275e+002 2.384676e+002 -3.885781e-015
    endloop
  endfacet
  facet normal -9.264267e-019 -1.432456e-017 -1.000000e+000
    outer loop
      vertex   -2.070933e+002 2.014463e+002 -3.330669e-015
      vertex   -1.803275e+002 2.384676e+002 -3.885781e-015
      vertex   -1.800656e+002 2.384507e+002 -3.885781e-015
    endloop
  endfacet
  facet normal 6.954233e-017 -6.579428e-017 -1.000000e+000
    outer loop
      vertex   -2.070933e+002 2.014463e+002 -3.330669e-015
      vertex   -1.800656e+002 2.384507e+002 -3.885781e-015
      vertex   -1.543933e+002 2.014463e+002 3.342146e-016
    endloop
  endfacet
  facet normal 2.424249e-018 -1.123584e-016 -1.000000e+000
    outer loop
      vertex   -1.543933e+002 2.014463e+002 3.342146e-016
      vertex   -1.800656e+002 2.384507e+002 -3.885781e-015
      vertex   -1.798033e+002 2.384564e+002 -3.885781e-015
    endloop
  endfacet
  facet normal 1.145976e-017 -1.061549e-016 -1.000000e+000
    outer loop
      vertex   -1.543933e+002 2.014463e+002 3.342146e-016
      vertex   -1.798033e+002 2.384564e+002 -3.885781e-015
      vertex   -1.795423e+002 2.384845e+002 -3.885781e-015
    endloop
  endfacet
  facet normal 1.971965e-017 -1.005464e-016 -1.000000e+000
    outer loop
      vertex   -1.795423e+002 2.384845e+002 -3.885781e-015
      vertex   -1.792848e+002 2.385350e+002 -3.885781e-015
      vertex   -1.543933e+002 2.014463e+002 3.342146e-016
    endloop
  endfacet
  facet normal 2.740338e-017 -9.538960e-017 -1.000000e+000
    outer loop
      vertex   -1.543933e+002 2.014463e+002 3.342146e-016
      vertex   -1.792848e+002 2.385350e+002 -3.885781e-015
      vertex   -1.790326e+002 2.386075e+002 -3.885781e-015
    endloop
  endfacet
  facet normal 3.468794e-017 -9.055966e-017 -1.000000e+000
    outer loop
      vertex   -1.543933e+002 2.014463e+002 3.342146e-016
      vertex   -1.790326e+002 2.386075e+002 -3.885781e-015
      vertex   -1.787875e+002 2.387014e+002 -3.885781e-015
    endloop
  endfacet
  facet normal 4.171949e-017 -8.595549e-017 -1.000000e+000
    outer loop
      vertex   -1.787875e+002 2.387014e+002 -3.885781e-015
      vertex   -1.785514e+002 2.388160e+002 -3.885781e-015
      vertex   -1.543933e+002 2.014463e+002 3.342146e-016
    endloop
  endfacet
  facet normal 1.148671e-017 -1.054998e-016 -1.000000e+000
    outer loop
      vertex   -1.543933e+002 2.014463e+002 3.342146e-016
      vertex   -1.785514e+002 2.388160e+002 -3.885781e-015
      vertex   -1.543933e+002 2.414463e+002 -3.885781e-015
    endloop
  endfacet
  facet normal 0.000000e+000 0.000000e+000 -1.000000e+000
    outer loop
      vertex   -1.543933e+002 2.414463e+002 -3.885781e-015
      vertex   -1.785514e+002 2.388160e+002 -3.885781e-015
      vertex   -1.783260e+002 2.389504e+002 -3.885781e-015
    endloop
  endfacet
  facet normal 0.000000e+000 0.000000e+000 -1.000000e+000
    outer loop
      vertex   -1.543933e+002 2.414463e+002 -3.885781e-015
      vertex   -1.783260e+002 2.389504e+002 -3.885781e-015
      vertex   -1.781131e+002 2.391038e+002 -3.885781e-015
    endloop
  endfacet
  facet normal 0.000000e+000 0.000000e+000 -1.000000e+000
    outer loop
      vertex   -1.781131e+002 2.391038e+002 -3.885781e-015
      vertex   -1.779140e+002 2.392749e+002 -3.885781e-015
      vertex   -1.543933e+002 2.414463e+002 -3.885781e-015
    endloop
  endfacet
  facet normal 0.000000e+000 0.000000e+000 -1.000000e+000
    outer loop
      vertex   -1.543933e+002 2.414463e+002 -3.885781e-015
      vertex   -1.779140e+002 2.392749e+002 -3.885781e-015
      vertex   -1.777305e+002 2.394624e+002 -3.885781e-015
    endloop
  endfacet
  facet normal 0.000000e+000 0.000000e+000 -1.000000e+000
    outer loop
      vertex   -1.543933e+002 2.414463e+002 -3.885781e-015
      vertex   -1.777305e+002 2.394624e+002 -3.885781e-015
      vertex   -1.775637e+002 2.396650e+002 -3.885781e-015
    endloop
  endfacet
  facet normal 0.000000e+000 0.000000e+000 -1.000000e+000
    outer loop
      vertex   -1.775637e+002 2.396650e+002 -3.885781e-015
      vertex   -1.774150e+002 2.398813e+002 -3.885781e-015
      vertex   -1.543933e+002 2.414463e+002 -3.885781e-015
    endloop
  endfacet
  facet normal 0.000000e+000 0.000000e+000 -1.000000e+000
    outer loop
      vertex   -1.543933e+002 2.414463e+002 -3.885781e-015
      vertex   -1.774150e+002 2.398813e+002 -3.885781e-015
      vertex   -1.772854e+002 2.401095e+002 -3.885781e-015
    endloop
  endfacet
  facet normal 0.000000e+000 0.000000e+000 -1.000000e+000
    outer loop
      vertex   -1.543933e+002 2.414463e+002 -3.885781e-015
      vertex   -1.772854e+002 2.401095e+002 -3.885781e-015
      vertex   -1.771759e+002 2.403480e+002 -3.885781e-015
    endloop
  endfacet
  facet normal 0.000000e+000 0.000000e+000 -1.000000e+000
    outer loop
      vertex   -1.771759e+002 2.403480e+002 -3.885781e-015
      vertex   -1.770874e+002 2.405950e+002 -3.885781e-015
      vertex   -1.543933e+002 2.414463e+002 -3.885781e-015
    endloop
  endfacet
  facet normal 0.000000e+000 0.000000e+000 -1.000000e+000
    outer loop
      vertex   -1.543933e+002 2.414463e+002 -3.885781e-015
      vertex   -1.770874e+002 2.405950e+002 -3.885781e-015
      vertex   -1.770203e+002 2.408488e+002 -3.885781e-015
    endloop
  endfacet
  facet normal 0.000000e+000 0.000000e+000 -1.000000e+000
    outer loop
      vertex   -1.543933e+002 2.414463e+002 -3.885781e-015
      vertex   -1.770203e+002 2.408488e+002 -3.885781e-015
      vertex   -1.769754e+002 2.411073e+002 -3.885781e-015
    endloop
  endfacet
  facet normal 0.000000e+000 0.000000e+000 -1.000000e+000
    outer loop
      vertex   -1.769754e+002 2.411073e+002 -3.885781e-015
      vertex   -1.769528e+002 2.413688e+002 -3.885781e-015
      vertex   -1.543933e+002 2.414463e+002 -3.885781e-015
    endloop
  endfacet
  facet normal -0.000000e+000 0.000000e+000 -1.000000e+000
    outer loop
      vertex   -1.543933e+002 2.414463e+002 -3.885781e-015
      vertex   -1.769528e+002 2.413688e+002 -3.885781e-015
      vertex   -1.769528e+002 2.416312e+002 -3.885781e-015
    endloop
  endfacet
  facet normal 0.000000e+000 0.000000e+000 -1.000000e+000
    outer loop
      vertex   -1.543933e+002 2.414463e+002 -3.885781e-015
      vertex   -1.769528e+002 2.416312e+002 -3.885781e-015
      vertex   -1.769754e+002 2.418927e+002 -3.885781e-015
    endloop
  endfacet
  facet normal 0.000000e+000 0.000000e+000 -1.000000e+000
    outer loop
      vertex   -1.769754e+002 2.418927e+002 -3.885781e-015
      vertex   -1.770203e+002 2.421512e+002 -3.885781e-015
      vertex   -1.543933e+002 2.414463e+002 -3.885781e-015
    endloop
  endfacet
  facet normal 0.000000e+000 0.000000e+000 -1.000000e+000
    outer loop
      vertex   -1.543933e+002 2.414463e+002 -3.885781e-015
      vertex   -1.770203e+002 2.421512e+002 -3.885781e-015
      vertex   -1.770874e+002 2.424050e+002 -3.885781e-015
    endloop
  endfacet
  facet normal 0.000000e+000 0.000000e+000 -1.000000e+000
    outer loop
      vertex   -1.543933e+002 2.414463e+002 -3.885781e-015
      vertex   -1.770874e+002 2.424050e+002 -3.885781e-015
      vertex   -1.771759e+002 2.426520e+002 -3.885781e-015
    endloop
  endfacet
  facet normal 0.000000e+000 0.000000e+000 -1.000000e+000
    outer loop
      vertex   -1.771759e+002 2.426520e+002 -3.885781e-015
      vertex   -1.772854e+002 2.428905e+002 -3.885781e-015
      vertex   -1.543933e+002 2.414463e+002 -3.885781e-015
    endloop
  endfacet
  facet normal 0.000000e+000 0.000000e+000 -1.000000e+000
    outer loop
      vertex   -1.543933e+002 2.414463e+002 -3.885781e-015
      vertex   -1.772854e+002 2.428905e+002 -3.885781e-015
      vertex   -1.774150e+002 2.431187e+002 -3.885781e-015
    endloop
  endfacet
  facet normal 0.000000e+000 0.000000e+000 -1.000000e+000
    outer loop
      vertex   -1.543933e+002 2.414463e+002 -3.885781e-015
      vertex   -1.774150e+002 2.431187e+002 -3.885781e-015
      vertex   -1.775637e+002 2.433350e+002 -3.885781e-015
    endloop
  endfacet
  facet normal 0.000000e+000 0.000000e+000 -1.000000e+000
    outer loop
      vertex   -1.775637e+002 2.433350e+002 -3.885781e-015
      vertex   -1.777305e+002 2.435376e+002 -3.885781e-015
      vertex   -1.543933e+002 2.414463e+002 -3.885781e-015
    endloop
  endfacet
  facet normal 0.000000e+000 0.000000e+000 -1.000000e+000
    outer loop
      vertex   -1.543933e+002 2.414463e+002 -3.885781e-015
      vertex   -1.777305e+002 2.435376e+002 -3.885781e-015
      vertex   -1.779140e+002 2.437251e+002 -3.885781e-015
    endloop
  endfacet
  facet normal 0.000000e+000 0.000000e+000 -1.000000e+000
    outer loop
      vertex   -1.543933e+002 2.414463e+002 -3.885781e-015
      vertex   -1.779140e+002 2.437251e+002 -3.885781e-015
      vertex   -1.781131e+002 2.438962e+002 -3.885781e-015
    endloop
  endfacet
  facet normal 0.000000e+000 0.000000e+000 -1.000000e+000
    outer loop
      vertex   -1.781131e+002 2.438962e+002 -3.885781e-015
      vertex   -1.783260e+002 2.440496e+002 -3.885781e-015
      vertex   -1.543933e+002 2.414463e+002 -3.885781e-015
    endloop
  endfacet
  facet normal 0.000000e+000 0.000000e+000 -1.000000e+000
    outer loop
      vertex   -1.543933e+002 2.414463e+002 -3.885781e-015
      vertex   -1.783260e+002 2.440496e+002 -3.885781e-015
      vertex   -1.785514e+002 2.441840e+002 -3.885781e-015
    endloop
  endfacet
  facet normal -2.673633e-017 -2.359223e-016 -1.000000e+000
    outer loop
      vertex   -1.543933e+002 2.414463e+002 -3.885781e-015
      vertex   -1.785514e+002 2.441840e+002 -3.885781e-015
      vertex   -1.543933e+002 2.814463e+002 -1.332268e-014
    endloop
  endfacet
  facet normal -9.349917e-017 -1.926382e-016 -1.000000e+000
    outer loop
      vertex   -1.543933e+002 2.814463e+002 -1.332268e-014
      vertex   -1.785514e+002 2.441840e+002 -3.885781e-015
      vertex   -1.787875e+002 2.442986e+002 -3.885781e-015
    endloop
  endfacet
  facet normal -7.774963e-017 -2.029806e-016 -1.000000e+000
    outer loop
      vertex   -1.543933e+002 2.814463e+002 -1.332268e-014
      vertex   -1.787875e+002 2.442986e+002 -3.885781e-015
      vertex   -1.790326e+002 2.443925e+002 -3.885781e-015
    endloop
  endfacet
  facet normal -6.142956e-017 -2.138328e-016 -1.000000e+000
    outer loop
      vertex   -1.790326e+002 2.443925e+002 -3.885781e-015
      vertex   -1.792848e+002 2.444650e+002 -3.885781e-015
      vertex   -1.543933e+002 2.814463e+002 -1.332268e-014
    endloop
  endfacet
  facet normal -4.421094e-017 -2.254224e-016 -1.000000e+000
    outer loop
      vertex   -1.543933e+002 2.814463e+002 -1.332268e-014
      vertex   -1.792848e+002 2.444650e+002 -3.885781e-015
      vertex   -1.795423e+002 2.445155e+002 -3.885781e-015
    endloop
  endfacet
  facet normal -2.569616e-017 -2.380305e-016 -1.000000e+000
    outer loop
      vertex   -1.543933e+002 2.814463e+002 -1.332268e-014
      vertex   -1.795423e+002 2.445155e+002 -3.885781e-015
      vertex   -1.798033e+002 2.445436e+002 -3.885781e-015
    endloop
  endfacet
  facet normal -5.436741e-018 -2.519805e-016 -1.000000e+000
    outer loop
      vertex   -1.798033e+002 2.445436e+002 -3.885781e-015
      vertex   -1.800656e+002 2.445493e+002 -3.885781e-015
      vertex   -1.543933e+002 2.814463e+002 -1.332268e-014
    endloop
  endfacet
  facet normal -1.685347e-016 -1.384995e-016 -1.000000e+000
    outer loop
      vertex   -1.543933e+002 2.814463e+002 -1.332268e-014
      vertex   -1.800656e+002 2.445493e+002 -3.885781e-015
      vertex   -2.070933e+002 2.814463e+002 -4.440892e-015
    endloop
  endfacet
  facet normal 9.290026e-019 -1.436439e-017 -1.000000e+000
    outer loop
      vertex   -2.070933e+002 2.814463e+002 -4.440892e-015
      vertex   -1.800656e+002 2.445493e+002 -3.885781e-015
      vertex   -1.803275e+002 2.445324e+002 -3.885781e-015
    endloop
  endfacet
  facet normal 2.056273e-018 -1.354702e-017 -1.000000e+000
    outer loop
      vertex   -2.070933e+002 2.814463e+002 -4.440892e-015
      vertex   -1.803275e+002 2.445324e+002 -3.885781e-015
      vertex   -1.805870e+002 2.444930e+002 -3.885781e-015
    endloop
  endfacet
  facet normal 3.088976e-018 -1.280627e-017 -1.000000e+000
    outer loop
      vertex   -1.805870e+002 2.444930e+002 -3.885781e-015
      vertex   -1.808421e+002 2.444314e+002 -3.885781e-015
      vertex   -2.070933e+002 2.814463e+002 -4.440892e-015
    endloop
  endfacet
  facet normal 4.054200e-018 -1.212173e-017 -1.000000e+000
    outer loop
      vertex   -2.070933e+002 2.814463e+002 -4.440892e-015
      vertex   -1.808421e+002 2.444314e+002 -3.885781e-015
      vertex   -1.810910e+002 2.443482e+002 -3.885781e-015
    endloop
  endfacet
  facet normal 4.972483e-018 -1.147809e-017 -1.000000e+000
    outer loop
      vertex   -2.070933e+002 2.814463e+002 -4.440892e-015
      vertex   -1.810910e+002 2.443482e+002 -3.885781e-015
      vertex   -1.813318e+002 2.442439e+002 -3.885781e-015
    endloop
  endfacet
  facet normal 5.862547e-018 -1.086175e-017 -1.000000e+000
    outer loop
      vertex   -1.813318e+002 2.442439e+002 -3.885781e-015
      vertex   -1.815627e+002 2.441192e+002 -3.885781e-015
      vertex   -2.070933e+002 2.814463e+002 -4.440892e-015
    endloop
  endfacet
  facet normal -1.883709e-017 -2.775557e-017 -1.000000e+000
    outer loop
      vertex   -2.070933e+002 2.814463e+002 -4.440892e-015
      vertex   -1.815627e+002 2.441192e+002 -3.885781e-015
      vertex   -2.070933e+002 2.414463e+002 -3.330669e-015
    endloop
  endfacet
  facet normal -2.586761e-017 3.939605e-017 -1.000000e+000
    outer loop
      vertex   -2.070933e+002 2.414463e+002 -3.330669e-015
      vertex   -1.815627e+002 2.441192e+002 -3.885781e-015
      vertex   -1.817821e+002 2.439752e+002 -3.885781e-015
    endloop
  endfacet
  facet normal -2.511880e-017 3.190134e-017 -1.000000e+000
    outer loop
      vertex   -2.070933e+002 2.414463e+002 -3.330669e-015
      vertex   -1.817821e+002 2.439752e+002 -3.885781e-015
      vertex   -1.819883e+002 2.438128e+002 -3.885781e-015
    endloop
  endfacet
  facet normal -2.458341e-017 2.622189e-017 -1.000000e+000
    outer loop
      vertex   -1.819883e+002 2.438128e+002 -3.885781e-015
      vertex   -1.821797e+002 2.436333e+002 -3.885781e-015
      vertex   -2.070933e+002 2.414463e+002 -3.330669e-015
    endloop
  endfacet
  facet normal -2.418784e-017 2.171576e-017 -1.000000e+000
    outer loop
      vertex   -2.070933e+002 2.414463e+002 -3.330669e-015
      vertex   -1.821797e+002 2.436333e+002 -3.885781e-015
      vertex   -1.823551e+002 2.434381e+002 -3.885781e-015
    endloop
  endfacet
  facet normal -2.388814e-017 1.799348e-017 -1.000000e+000
    outer loop
      vertex   -2.070933e+002 2.414463e+002 -3.330669e-015
      vertex   -1.823551e+002 2.434381e+002 -3.885781e-015
      vertex   -1.825130e+002 2.432284e+002 -3.885781e-015
    endloop
  endfacet
  facet normal -2.365763e-017 1.481422e-017 -1.000000e+000
    outer loop
      vertex   -1.825130e+002 2.432284e+002 -3.885781e-015
      vertex   -1.826523e+002 2.430060e+002 -3.885781e-015
      vertex   -2.070933e+002 2.414463e+002 -3.330669e-015
    endloop
  endfacet
  facet normal -2.347979e-017 1.202751e-017 -1.000000e+000
    outer loop
      vertex   -2.070933e+002 2.414463e+002 -3.330669e-015
      vertex   -1.826523e+002 2.430060e+002 -3.885781e-015
      vertex   -1.827719e+002 2.427724e+002 -3.885781e-015
    endloop
  endfacet
  facet normal -2.334317e-017 9.521962e-018 -1.000000e+000
    outer loop
      vertex   -2.070933e+002 2.414463e+002 -3.330669e-015
      vertex   -1.827719e+002 2.427724e+002 -3.885781e-015
      vertex   -1.828710e+002 2.425294e+002 -3.885781e-015
    endloop
  endfacet
  facet normal -2.324025e-017 7.220396e-018 -1.000000e+000
    outer loop
      vertex   -1.828710e+002 2.425294e+002 -3.885781e-015
      vertex   -1.829489e+002 2.422788e+002 -3.885781e-015
      vertex   -2.070933e+002 2.414463e+002 -3.330669e-015
    endloop
  endfacet
  facet normal -2.316590e-017 5.064180e-018 -1.000000e+000
    outer loop
      vertex   -2.070933e+002 2.414463e+002 -3.330669e-015
      vertex   -1.829489e+002 2.422788e+002 -3.885781e-015
      vertex   -1.830049e+002 2.420224e+002 -3.885781e-015
    endloop
  endfacet
  facet normal -2.311654e-017 3.000705e-018 -1.000000e+000
    outer loop
      vertex   -2.070933e+002 2.414463e+002 -3.330669e-015
      vertex   -1.830049e+002 2.420224e+002 -3.885781e-015
      vertex   -1.830387e+002 2.417622e+002 -3.885781e-015
    endloop
  endfacet
  facet normal -0.000000e+000 -1.000000e+000 -0.000000e+000
    outer loop
      vertex   -1.543933e+002 2.014463e+002 2.000000e+000
      vertex   -2.050933e+002 2.014463e+002 2.000000e+000
      vertex   -1.543933e+002 2.014463e+002 3.342146e-016
    endloop
  endfacet
  facet normal -0.000000e+000 -1.000000e+000 0.000000e+000
    outer loop
      vertex   -1.543933e+002 2.014463e+002 3.342146e-016
      vertex   -2.050933e+002 2.014463e+002 2.000000e+000
      vertex   -2.070933e+002 2.014463e+002 -3.330669e-015
    endloop
  endfacet
  facet normal 0.000000e+000 -1.000000e+000 0.000000e+000
    outer loop
      vertex   -2.070933e+002 2.014463e+002 -3.330669e-015
      vertex   -2.050933e+002 2.014463e+002 2.000000e+000
      vertex   -2.070933e+002 2.014463e+002 4.000000e+000
    endloop
  endfacet
  facet normal 0.000000e+000 -1.000000e+000 0.000000e+000
    outer loop
      vertex   -2.070933e+002 2.014463e+002 4.000000e+000
      vertex   -2.050933e+002 2.014463e+002 2.000000e+000
      vertex   -2.050933e+002 2.014463e+002 4.000000e+000
    endloop
  endfacet
  facet normal -0.000000e+000 1.000000e+000 0.000000e+000
    outer loop
      vertex   -2.028933e+002 2.794463e+002 4.000000e+000
      vertex   -1.543933e+002 2.794463e+002 4.000000e+000
      vertex   -2.028933e+002 2.794463e+002 2.000000e+000
    endloop
  endfacet
  facet normal 0.000000e+000 1.000000e+000 0.000000e+000
    outer loop
      vertex   -2.028933e+002 2.794463e+002 2.000000e+000
      vertex   -1.543933e+002 2.794463e+002 4.000000e+000
      vertex   -1.543933e+002 2.794463e+002 2.000000e+000
    endloop
  endfacet
  facet normal -0.000000e+000 -1.000000e+000 -0.000000e+000
    outer loop
      vertex   -1.543933e+002 2.034463e+002 4.000000e+000
      vertex   -2.028933e+002 2.034463e+002 4.000000e+000
      vertex   -1.543933e+002 2.034463e+002 2.000000e+000
    endloop
  endfacet
  facet normal 0.000000e+000 -1.000000e+000 0.000000e+000
    outer loop
      vertex   -1.543933e+002 2.034463e+002 2.000000e+000
      vertex   -2.028933e+002 2.034463e+002 4.000000e+000
      vertex   -2.028933e+002 2.034463e+002 2.000000e+000
    endloop
  endfacet
  facet normal -1.000000e+000 0.000000e+000 0.000000e+000
    outer loop
      vertex   -2.028933e+002 2.034463e+002 4.000000e+000
      vertex   -2.028933e+002 2.414463e+002 4.000000e+000
      vertex   -2.028933e+002 2.034463e+002 2.000000e+000
    endloop
  endfacet
  facet normal -1.000000e+000 0.000000e+000 0.000000e+000
    outer loop
      vertex   -2.028933e+002 2.034463e+002 2.000000e+000
      vertex   -2.028933e+002 2.414463e+002 4.000000e+000
      vertex   -2.028933e+002 2.414463e+002 2.000000e+000
    endloop
  endfacet
  facet normal -1.000000e+000 0.000000e+000 0.000000e+000
    outer loop
      vertex   -2.028933e+002 2.414463e+002 2.000000e+000
      vertex   -2.028933e+002 2.414463e+002 4.000000e+000
      vertex   -2.028933e+002 2.794463e+002 4.000000e+000
    endloop
  endfacet
  facet normal -1.000000e+000 0.000000e+000 0.000000e+000
    outer loop
      vertex   -2.028933e+002 2.414463e+002 2.000000e+000
      vertex   -2.028933e+002 2.794463e+002 4.000000e+000
      vertex   -2.028933e+002 2.794463e+002 2.000000e+000
    endloop
  endfacet
  facet normal 0.000000e+000 0.000000e+000 1.000000e+000
    outer loop
      vertex   -1.830387e+002 2.412378e+002 4.000000e+000
      vertex   -1.830500e+002 2.415000e+002 4.000000e+000
      vertex   -2.028933e+002 2.414463e+002 4.000000e+000
    endloop
  endfacet
  facet normal 0.000000e+000 0.000000e+000 1.000000e+000
    outer loop
      vertex   -2.028933e+002 2.414463e+002 4.000000e+000
      vertex   -1.830500e+002 2.415000e+002 4.000000e+000
      vertex   -1.830387e+002 2.417622e+002 4.000000e+000
    endloop
  endfacet
  facet normal 0.000000e+000 0.000000e+000 1.000000e+000
    outer loop
      vertex   -2.028933e+002 2.414463e+002 4.000000e+000
      vertex   -1.830387e+002 2.417622e+002 4.000000e+000
      vertex   -1.830049e+002 2.420224e+002 4.000000e+000
    endloop
  endfacet
  facet normal 0.000000e+000 -0.000000e+000 1.000000e+000
    outer loop
      vertex   -1.830049e+002 2.420224e+002 4.000000e+000
      vertex   -1.829489e+002 2.422788e+002 4.000000e+000
      vertex   -2.028933e+002 2.414463e+002 4.000000e+000
    endloop
  endfacet
  facet normal 0.000000e+000 0.000000e+000 1.000000e+000
    outer loop
      vertex   -2.028933e+002 2.414463e+002 4.000000e+000
      vertex   -1.829489e+002 2.422788e+002 4.000000e+000
      vertex   -1.828710e+002 2.425294e+002 4.000000e+000
    endloop
  endfacet
  facet normal 0.000000e+000 0.000000e+000 1.000000e+000
    outer loop
      vertex   -2.028933e+002 2.414463e+002 4.000000e+000
      vertex   -1.828710e+002 2.425294e+002 4.000000e+000
      vertex   -1.827719e+002 2.427724e+002 4.000000e+000
    endloop
  endfacet
  facet normal 0.000000e+000 -0.000000e+000 1.000000e+000
    outer loop
      vertex   -1.827719e+002 2.427724e+002 4.000000e+000
      vertex   -1.826523e+002 2.430060e+002 4.000000e+000
      vertex   -2.028933e+002 2.414463e+002 4.000000e+000
    endloop
  endfacet
  facet normal 0.000000e+000 0.000000e+000 1.000000e+000
    outer loop
      vertex   -2.028933e+002 2.414463e+002 4.000000e+000
      vertex   -1.826523e+002 2.430060e+002 4.000000e+000
      vertex   -1.825130e+002 2.432284e+002 4.000000e+000
    endloop
  endfacet
  facet normal 0.000000e+000 0.000000e+000 1.000000e+000
    outer loop
      vertex   -2.028933e+002 2.414463e+002 4.000000e+000
      vertex   -1.825130e+002 2.432284e+002 4.000000e+000
      vertex   -1.823551e+002 2.434381e+002 4.000000e+000
    endloop
  endfacet
  facet normal 0.000000e+000 -0.000000e+000 1.000000e+000
    outer loop
      vertex   -1.823551e+002 2.434381e+002 4.000000e+000
      vertex   -1.821797e+002 2.436333e+002 4.000000e+000
      vertex   -2.028933e+002 2.414463e+002 4.000000e+000
    endloop
  endfacet
  facet normal 0.000000e+000 0.000000e+000 1.000000e+000
    outer loop
      vertex   -2.028933e+002 2.414463e+002 4.000000e+000
      vertex   -1.821797e+002 2.436333e+002 4.000000e+000
      vertex   -1.819883e+002 2.438128e+002 4.000000e+000
    endloop
  endfacet
  facet normal 0.000000e+000 0.000000e+000 1.000000e+000
    outer loop
      vertex   -2.028933e+002 2.414463e+002 4.000000e+000
      vertex   -1.819883e+002 2.438128e+002 4.000000e+000
      vertex   -1.817821e+002 2.439752e+002 4.000000e+000
    endloop
  endfacet
  facet normal 0.000000e+000 -0.000000e+000 1.000000e+000
    outer loop
      vertex   -1.817821e+002 2.439752e+002 4.000000e+000
      vertex   -1.815627e+002 2.441192e+002 4.000000e+000
      vertex   -2.028933e+002 2.414463e+002 4.000000e+000
    endloop
  endfacet
  facet normal 0.000000e+000 0.000000e+000 1.000000e+000
    outer loop
      vertex   -2.028933e+002 2.414463e+002 4.000000e+000
      vertex   -1.815627e+002 2.441192e+002 4.000000e+000
      vertex   -2.028933e+002 2.794463e+002 4.000000e+000
    endloop
  endfacet
  facet normal 0.000000e+000 0.000000e+000 1.000000e+000
    outer loop
      vertex   -2.028933e+002 2.794463e+002 4.000000e+000
      vertex   -1.815627e+002 2.441192e+002 4.000000e+000
      vertex   -1.813318e+002 2.442439e+002 4.000000e+000
    endloop
  endfacet
  facet normal 0.000000e+000 0.000000e+000 1.000000e+000
    outer loop
      vertex   -2.028933e+002 2.794463e+002 4.000000e+000
      vertex   -1.813318e+002 2.442439e+002 4.000000e+000
      vertex   -1.810910e+002 2.443482e+002 4.000000e+000
    endloop
  endfacet
  facet normal 0.000000e+000 -0.000000e+000 1.000000e+000
    outer loop
      vertex   -1.810910e+002 2.443482e+002 4.000000e+000
      vertex   -1.808421e+002 2.444314e+002 4.000000e+000
      vertex   -2.028933e+002 2.794463e+002 4.000000e+000
    endloop
  endfacet
  facet normal 0.000000e+000 0.000000e+000 1.000000e+000
    outer loop
      vertex   -2.028933e+002 2.794463e+002 4.000000e+000
      vertex   -1.808421e+002 2.444314e+002 4.000000e+000
      vertex   -1.805870e+002 2.444930e+002 4.000000e+000
    endloop
  endfacet
  facet normal 0.000000e+000 0.000000e+000 1.000000e+000
    outer loop
      vertex   -2.028933e+002 2.794463e+002 4.000000e+000
      vertex   -1.805870e+002 2.444930e+002 4.000000e+000
      vertex   -1.803275e+002 2.445324e+002 4.000000e+000
    endloop
  endfacet
  facet normal 0.000000e+000 -0.000000e+000 1.000000e+000
    outer loop
      vertex   -1.803275e+002 2.445324e+002 4.000000e+000
      vertex   -1.800656e+002 2.445493e+002 4.000000e+000
      vertex   -2.028933e+002 2.794463e+002 4.000000e+000
    endloop
  endfacet
  facet normal 0.000000e+000 0.000000e+000 1.000000e+000
    outer loop
      vertex   -2.028933e+002 2.794463e+002 4.000000e+000
      vertex   -1.800656e+002 2.445493e+002 4.000000e+000
      vertex   -1.798033e+002 2.445436e+002 4.000000e+000
    endloop
  endfacet
  facet normal -0.000000e+000 0.000000e+000 1.000000e+000
    outer loop
      vertex   -2.028933e+002 2.794463e+002 4.000000e+000
      vertex   -1.798033e+002 2.445436e+002 4.000000e+000
      vertex   -1.543933e+002 2.794463e+002 4.000000e+000
    endloop
  endfacet
  facet normal 0.000000e+000 0.000000e+000 1.000000e+000
    outer loop
      vertex   -1.543933e+002 2.794463e+002 4.000000e+000
      vertex   -1.798033e+002 2.445436e+002 4.000000e+000
      vertex   -1.795423e+002 2.445155e+002 4.000000e+000
    endloop
  endfacet
  facet normal 0.000000e+000 0.000000e+000 1.000000e+000
    outer loop
      vertex   -1.543933e+002 2.794463e+002 4.000000e+000
      vertex   -1.795423e+002 2.445155e+002 4.000000e+000
      vertex   -1.792848e+002 2.444650e+002 4.000000e+000
    endloop
  endfacet
  facet normal -0.000000e+000 0.000000e+000 1.000000e+000
    outer loop
      vertex   -1.792848e+002 2.444650e+002 4.000000e+000
      vertex   -1.790326e+002 2.443925e+002 4.000000e+000
      vertex   -1.543933e+002 2.794463e+002 4.000000e+000
    endloop
  endfacet
  facet normal 0.000000e+000 0.000000e+000 1.000000e+000
    outer loop
      vertex   -1.543933e+002 2.794463e+002 4.000000e+000
      vertex   -1.790326e+002 2.443925e+002 4.000000e+000
      vertex   -1.787875e+002 2.442986e+002 4.000000e+000
    endloop
  endfacet
  facet normal 0.000000e+000 0.000000e+000 1.000000e+000
    outer loop
      vertex   -1.543933e+002 2.794463e+002 4.000000e+000
      vertex   -1.787875e+002 2.442986e+002 4.000000e+000
      vertex   -1.785514e+002 2.441840e+002 4.000000e+000
    endloop
  endfacet
  facet normal 0.000000e+000 0.000000e+000 1.000000e+000
    outer loop
      vertex   -1.543933e+002 2.794463e+002 4.000000e+000
      vertex   -1.785514e+002 2.441840e+002 4.000000e+000
      vertex   -1.543933e+002 2.414463e+002 4.000000e+000
    endloop
  endfacet
  facet normal 0.000000e+000 0.000000e+000 1.000000e+000
    outer loop
      vertex   -1.543933e+002 2.414463e+002 4.000000e+000
      vertex   -1.785514e+002 2.441840e+002 4.000000e+000
      vertex   -1.783260e+002 2.440496e+002 4.000000e+000
    endloop
  endfacet
  facet normal 0.000000e+000 0.000000e+000 1.000000e+000
    outer loop
      vertex   -1.543933e+002 2.414463e+002 4.000000e+000
      vertex   -1.783260e+002 2.440496e+002 4.000000e+000
      vertex   -1.781131e+002 2.438962e+002 4.000000e+000
    endloop
  endfacet
  facet normal 0.000000e+000 0.000000e+000 1.000000e+000
    outer loop
      vertex   -1.781131e+002 2.438962e+002 4.000000e+000
      vertex   -1.779140e+002 2.437251e+002 4.000000e+000
      vertex   -1.543933e+002 2.414463e+002 4.000000e+000
    endloop
  endfacet
  facet normal 0.000000e+000 0.000000e+000 1.000000e+000
    outer loop
      vertex   -1.543933e+002 2.414463e+002 4.000000e+000
      vertex   -1.779140e+002 2.437251e+002 4.000000e+000
      vertex   -1.777305e+002 2.435376e+002 4.000000e+000
    endloop
  endfacet
  facet normal 0.000000e+000 0.000000e+000 1.000000e+000
    outer loop
      vertex   -1.543933e+002 2.414463e+002 4.000000e+000
      vertex   -1.777305e+002 2.435376e+002 4.000000e+000
      vertex   -1.775637e+002 2.433350e+002 4.000000e+000
    endloop
  endfacet
  facet normal 0.000000e+000 0.000000e+000 1.000000e+000
    outer loop
      vertex   -1.775637e+002 2.433350e+002 4.000000e+000
      vertex   -1.774150e+002 2.431187e+002 4.000000e+000
      vertex   -1.543933e+002 2.414463e+002 4.000000e+000
    endloop
  endfacet
  facet normal 0.000000e+000 0.000000e+000 1.000000e+000
    outer loop
      vertex   -1.543933e+002 2.414463e+002 4.000000e+000
      vertex   -1.774150e+002 2.431187e+002 4.000000e+000
      vertex   -1.772854e+002 2.428905e+002 4.000000e+000
    endloop
  endfacet
  facet normal 0.000000e+000 0.000000e+000 1.000000e+000
    outer loop
      vertex   -1.543933e+002 2.414463e+002 4.000000e+000
      vertex   -1.772854e+002 2.428905e+002 4.000000e+000
      vertex   -1.771759e+002 2.426520e+002 4.000000e+000
    endloop
  endfacet
  facet normal 0.000000e+000 0.000000e+000 1.000000e+000
    outer loop
      vertex   -1.771759e+002 2.426520e+002 4.000000e+000
      vertex   -1.770874e+002 2.424050e+002 4.000000e+000
      vertex   -1.543933e+002 2.414463e+002 4.000000e+000
    endloop
  endfacet
  facet normal 0.000000e+000 0.000000e+000 1.000000e+000
    outer loop
      vertex   -1.543933e+002 2.414463e+002 4.000000e+000
      vertex   -1.770874e+002 2.424050e+002 4.000000e+000
      vertex   -1.770203e+002 2.421512e+002 4.000000e+000
    endloop
  endfacet
  facet normal 0.000000e+000 0.000000e+000 1.000000e+000
    outer loop
      vertex   -1.543933e+002 2.414463e+002 4.000000e+000
      vertex   -1.770203e+002 2.421512e+002 4.000000e+000
      vertex   -1.769754e+002 2.418927e+002 4.000000e+000
    endloop
  endfacet
  facet normal 0.000000e+000 0.000000e+000 1.000000e+000
    outer loop
      vertex   -1.769754e+002 2.418927e+002 4.000000e+000
      vertex   -1.769528e+002 2.416312e+002 4.000000e+000
      vertex   -1.543933e+002 2.414463e+002 4.000000e+000
    endloop
  endfacet
  facet normal 0.000000e+000 0.000000e+000 1.000000e+000
    outer loop
      vertex   -1.543933e+002 2.414463e+002 4.000000e+000
      vertex   -1.769528e+002 2.416312e+002 4.000000e+000
      vertex   -1.769528e+002 2.413688e+002 4.000000e+000
    endloop
  endfacet
  facet normal 0.000000e+000 0.000000e+000 1.000000e+000
    outer loop
      vertex   -1.543933e+002 2.414463e+002 4.000000e+000
      vertex   -1.769528e+002 2.413688e+002 4.000000e+000
      vertex   -1.769754e+002 2.411073e+002 4.000000e+000
    endloop
  endfacet
  facet normal -0.000000e+000 0.000000e+000 1.000000e+000
    outer loop
      vertex   -1.769754e+002 2.411073e+002 4.000000e+000
      vertex   -1.770203e+002 2.408488e+002 4.000000e+000
      vertex   -1.543933e+002 2.414463e+002 4.000000e+000
    endloop
  endfacet
  facet normal 0.000000e+000 0.000000e+000 1.000000e+000
    outer loop
      vertex   -1.543933e+002 2.414463e+002 4.000000e+000
      vertex   -1.770203e+002 2.408488e+002 4.000000e+000
      vertex   -1.770874e+002 2.405950e+002 4.000000e+000
    endloop
  endfacet
  facet normal 0.000000e+000 0.000000e+000 1.000000e+000
    outer loop
      vertex   -1.543933e+002 2.414463e+002 4.000000e+000
      vertex   -1.770874e+002 2.405950e+002 4.000000e+000
      vertex   -1.771759e+002 2.403480e+002 4.000000e+000
    endloop
  endfacet
  facet normal -0.000000e+000 0.000000e+000 1.000000e+000
    outer loop
      vertex   -1.771759e+002 2.403480e+002 4.000000e+000
      vertex   -1.772854e+002 2.401095e+002 4.000000e+000
      vertex   -1.543933e+002 2.414463e+002 4.000000e+000
    endloop
  endfacet
  facet normal 0.000000e+000 0.000000e+000 1.000000e+000
    outer loop
      vertex   -1.543933e+002 2.414463e+002 4.000000e+000
      vertex   -1.772854e+002 2.401095e+002 4.000000e+000
      vertex   -1.774150e+002 2.398813e+002 4.000000e+000
    endloop
  endfacet
  facet normal 0.000000e+000 0.000000e+000 1.000000e+000
    outer loop
      vertex   -1.543933e+002 2.414463e+002 4.000000e+000
      vertex   -1.774150e+002 2.398813e+002 4.000000e+000
      vertex   -1.775637e+002 2.396650e+002 4.000000e+000
    endloop
  endfacet
  facet normal -0.000000e+000 0.000000e+000 1.000000e+000
    outer loop
      vertex   -1.775637e+002 2.396650e+002 4.000000e+000
      vertex   -1.777305e+002 2.394624e+002 4.000000e+000
      vertex   -1.543933e+002 2.414463e+002 4.000000e+000
    endloop
  endfacet
  facet normal 0.000000e+000 0.000000e+000 1.000000e+000
    outer loop
      vertex   -1.543933e+002 2.414463e+002 4.000000e+000
      vertex   -1.777305e+002 2.394624e+002 4.000000e+000
      vertex   -1.779140e+002 2.392749e+002 4.000000e+000
    endloop
  endfacet
  facet normal 0.000000e+000 0.000000e+000 1.000000e+000
    outer loop
      vertex   -1.543933e+002 2.414463e+002 4.000000e+000
      vertex   -1.779140e+002 2.392749e+002 4.000000e+000
      vertex   -1.781131e+002 2.391038e+002 4.000000e+000
    endloop
  endfacet
  facet normal -0.000000e+000 0.000000e+000 1.000000e+000
    outer loop
      vertex   -1.781131e+002 2.391038e+002 4.000000e+000
      vertex   -1.783260e+002 2.389504e+002 4.000000e+000
      vertex   -1.543933e+002 2.414463e+002 4.000000e+000
    endloop
  endfacet
  facet normal 0.000000e+000 0.000000e+000 1.000000e+000
    outer loop
      vertex   -1.543933e+002 2.414463e+002 4.000000e+000
      vertex   -1.783260e+002 2.389504e+002 4.000000e+000
      vertex   -1.785514e+002 2.388160e+002 4.000000e+000
    endloop
  endfacet
  facet normal 0.000000e+000 0.000000e+000 1.000000e+000
    outer loop
      vertex   -1.543933e+002 2.414463e+002 4.000000e+000
      vertex   -1.785514e+002 2.388160e+002 4.000000e+000
      vertex   -1.543933e+002 2.034463e+002 4.000000e+000
    endloop
  endfacet
  facet normal 0.000000e+000 0.000000e+000 1.000000e+000
    outer loop
      vertex   -1.543933e+002 2.034463e+002 4.000000e+000
      vertex   -1.785514e+002 2.388160e+002 4.000000e+000
      vertex   -1.787875e+002 2.387014e+002 4.000000e+000
    endloop
  endfacet
  facet normal 0.000000e+000 0.000000e+000 1.000000e+000
    outer loop
      vertex   -1.543933e+002 2.034463e+002 4.000000e+000
      vertex   -1.787875e+002 2.387014e+002 4.000000e+000
      vertex   -1.790326e+002 2.386075e+002 4.000000e+000
    endloop
  endfacet
  facet normal 0.000000e+000 0.000000e+000 1.000000e+000
    outer loop
      vertex   -1.790326e+002 2.386075e+002 4.000000e+000
      vertex   -1.792848e+002 2.385350e+002 4.000000e+000
      vertex   -1.543933e+002 2.034463e+002 4.000000e+000
    endloop
  endfacet
  facet normal 0.000000e+000 0.000000e+000 1.000000e+000
    outer loop
      vertex   -1.543933e+002 2.034463e+002 4.000000e+000
      vertex   -1.792848e+002 2.385350e+002 4.000000e+000
      vertex   -1.795423e+002 2.384845e+002 4.000000e+000
    endloop
  endfacet
  facet normal 0.000000e+000 0.000000e+000 1.000000e+000
    outer loop
      vertex   -1.543933e+002 2.034463e+002 4.000000e+000
      vertex   -1.795423e+002 2.384845e+002 4.000000e+000
      vertex   -1.798033e+002 2.384564e+002 4.000000e+000
    endloop
  endfacet
  facet normal 0.000000e+000 0.000000e+000 1.000000e+000
    outer loop
      vertex   -1.543933e+002 2.034463e+002 4.000000e+000
      vertex   -1.798033e+002 2.384564e+002 4.000000e+000
      vertex   -2.028933e+002 2.034463e+002 4.000000e+000
    endloop
  endfacet
  facet normal 0.000000e+000 0.000000e+000 1.000000e+000
    outer loop
      vertex   -2.028933e+002 2.034463e+002 4.000000e+000
      vertex   -1.798033e+002 2.384564e+002 4.000000e+000
      vertex   -1.800656e+002 2.384507e+002 4.000000e+000
    endloop
  endfacet
  facet normal 0.000000e+000 0.000000e+000 1.000000e+000
    outer loop
      vertex   -2.028933e+002 2.034463e+002 4.000000e+000
      vertex   -1.800656e+002 2.384507e+002 4.000000e+000
      vertex   -1.803275e+002 2.384676e+002 4.000000e+000
    endloop
  endfacet
  facet normal 0.000000e+000 0.000000e+000 1.000000e+000
    outer loop
      vertex   -1.803275e+002 2.384676e+002 4.000000e+000
      vertex   -1.805870e+002 2.385070e+002 4.000000e+000
      vertex   -2.028933e+002 2.034463e+002 4.000000e+000
    endloop
  endfacet
  facet normal 0.000000e+000 0.000000e+000 1.000000e+000
    outer loop
      vertex   -2.028933e+002 2.034463e+002 4.000000e+000
      vertex   -1.805870e+002 2.385070e+002 4.000000e+000
      vertex   -1.808421e+002 2.385686e+002 4.000000e+000
    endloop
  endfacet
  facet normal 0.000000e+000 0.000000e+000 1.000000e+000
    outer loop
      vertex   -2.028933e+002 2.034463e+002 4.000000e+000
      vertex   -1.808421e+002 2.385686e+002 4.000000e+000
      vertex   -1.810910e+002 2.386518e+002 4.000000e+000
    endloop
  endfacet
  facet normal 0.000000e+000 0.000000e+000 1.000000e+000
    outer loop
      vertex   -1.810910e+002 2.386518e+002 4.000000e+000
      vertex   -1.813318e+002 2.387561e+002 4.000000e+000
      vertex   -2.028933e+002 2.034463e+002 4.000000e+000
    endloop
  endfacet
  facet normal 0.000000e+000 0.000000e+000 1.000000e+000
    outer loop
      vertex   -2.028933e+002 2.034463e+002 4.000000e+000
      vertex   -1.813318e+002 2.387561e+002 4.000000e+000
      vertex   -2.028933e+002 2.414463e+002 4.000000e+000
    endloop
  endfacet
  facet normal 0.000000e+000 0.000000e+000 1.000000e+000
    outer loop
      vertex   -2.028933e+002 2.414463e+002 4.000000e+000
      vertex   -1.813318e+002 2.387561e+002 4.000000e+000
      vertex   -1.815627e+002 2.388808e+002 4.000000e+000
    endloop
  endfacet
  facet normal 0.000000e+000 0.000000e+000 1.000000e+000
    outer loop
      vertex   -2.028933e+002 2.414463e+002 4.000000e+000
      vertex   -1.815627e+002 2.388808e+002 4.000000e+000
      vertex   -1.817821e+002 2.390248e+002 4.000000e+000
    endloop
  endfacet
  facet normal 0.000000e+000 0.000000e+000 1.000000e+000
    outer loop
      vertex   -1.817821e+002 2.390248e+002 4.000000e+000
      vertex   -1.819883e+002 2.391872e+002 4.000000e+000
      vertex   -2.028933e+002 2.414463e+002 4.000000e+000
    endloop
  endfacet
  facet normal 0.000000e+000 0.000000e+000 1.000000e+000
    outer loop
      vertex   -2.028933e+002 2.414463e+002 4.000000e+000
      vertex   -1.819883e+002 2.391872e+002 4.000000e+000
      vertex   -1.821797e+002 2.393667e+002 4.000000e+000
    endloop
  endfacet
  facet normal 0.000000e+000 0.000000e+000 1.000000e+000
    outer loop
      vertex   -2.028933e+002 2.414463e+002 4.000000e+000
      vertex   -1.821797e+002 2.393667e+002 4.000000e+000
      vertex   -1.823551e+002 2.395619e+002 4.000000e+000
    endloop
  endfacet
  facet normal 0.000000e+000 0.000000e+000 1.000000e+000
    outer loop
      vertex   -1.823551e+002 2.395619e+002 4.000000e+000
      vertex   -1.825130e+002 2.397716e+002 4.000000e+000
      vertex   -2.028933e+002 2.414463e+002 4.000000e+000
    endloop
  endfacet
  facet normal 0.000000e+000 0.000000e+000 1.000000e+000
    outer loop
      vertex   -2.028933e+002 2.414463e+002 4.000000e+000
      vertex   -1.825130e+002 2.397716e+002 4.000000e+000
      vertex   -1.826523e+002 2.399940e+002 4.000000e+000
    endloop
  endfacet
  facet normal 0.000000e+000 0.000000e+000 1.000000e+000
    outer loop
      vertex   -2.028933e+002 2.414463e+002 4.000000e+000
      vertex   -1.826523e+002 2.399940e+002 4.000000e+000
      vertex   -1.827719e+002 2.402276e+002 4.000000e+000
    endloop
  endfacet
  facet normal 0.000000e+000 0.000000e+000 1.000000e+000
    outer loop
      vertex   -1.827719e+002 2.402276e+002 4.000000e+000
      vertex   -1.828710e+002 2.404706e+002 4.000000e+000
      vertex   -2.028933e+002 2.414463e+002 4.000000e+000
    endloop
  endfacet
  facet normal 0.000000e+000 0.000000e+000 1.000000e+000
    outer loop
      vertex   -2.028933e+002 2.414463e+002 4.000000e+000
      vertex   -1.828710e+002 2.404706e+002 4.000000e+000
      vertex   -1.829489e+002 2.407212e+002 4.000000e+000
    endloop
  endfacet
  facet normal 0.000000e+000 0.000000e+000 1.000000e+000
    outer loop
      vertex   -2.028933e+002 2.414463e+002 4.000000e+000
      vertex   -1.829489e+002 2.407212e+002 4.000000e+000
      vertex   -1.830049e+002 2.409776e+002 4.000000e+000
    endloop
  endfacet
  facet normal 0.000000e+000 0.000000e+000 1.000000e+000
    outer loop
      vertex   -1.830049e+002 2.409776e+002 4.000000e+000
      vertex   -1.830387e+002 2.412378e+002 4.000000e+000
      vertex   -2.028933e+002 2.414463e+002 4.000000e+000
    endloop
  endfacet
  facet normal 0.000000e+000 1.000000e+000 0.000000e+000
    outer loop
      vertex   -1.543933e+002 2.814463e+002 2.000000e+000
      vertex   -1.543933e+002 2.814463e+002 -1.332268e-014
      vertex   -2.050933e+002 2.814463e+002 2.000000e+000
    endloop
  endfacet
  facet normal 0.000000e+000 1.000000e+000 0.000000e+000
    outer loop
      vertex   -2.050933e+002 2.814463e+002 2.000000e+000
      vertex   -1.543933e+002 2.814463e+002 -1.332268e-014
      vertex   -2.070933e+002 2.814463e+002 -4.440892e-015
    endloop
  endfacet
  facet normal 0.000000e+000 1.000000e+000 0.000000e+000
    outer loop
      vertex   -2.050933e+002 2.814463e+002 2.000000e+000
      vertex   -2.070933e+002 2.814463e+002 -4.440892e-015
      vertex   -2.070933e+002 2.814463e+002 4.000000e+000
    endloop
  endfacet
  facet normal -0.000000e+000 1.000000e+000 0.000000e+000
    outer loop
      vertex   -2.070933e+002 2.814463e+002 4.000000e+000
      vertex   -2.050933e+002 2.814463e+002 4.000000e+000
      vertex   -2.050933e+002 2.814463e+002 2.000000e+000
    endloop
  endfacet
  facet normal 1.000000e+000 0.000000e+000 0.000000e+000
    outer loop
      vertex   -1.543933e+002 2.814463e+002 2.000000e+000
      vertex   -1.543933e+002 2.794463e+002 2.000000e+000
      vertex   -1.543933e+002 2.814463e+002 -1.332268e-014
    endloop
  endfacet
  facet normal 1.000000e+000 0.000000e+000 0.000000e+000
    outer loop
      vertex   -1.543933e+002 2.814463e+002 -1.332268e-014
      vertex   -1.543933e+002 2.794463e+002 2.000000e+000
      vertex   -1.543933e+002 2.414463e+002 -3.885781e-015
    endloop
  endfacet
  facet normal 1.000000e+000 0.000000e+000 0.000000e+000
    outer loop
      vertex   -1.543933e+002 2.414463e+002 -3.885781e-015
      vertex   -1.543933e+002 2.794463e+002 2.000000e+000
      vertex   -1.543933e+002 2.414463e+002 4.000000e+000
    endloop
  endfacet
  facet normal 1.000000e+000 0.000000e+000 -0.000000e+000
    outer loop
      vertex   -1.543933e+002 2.414463e+002 -3.885781e-015
      vertex   -1.543933e+002 2.414463e+002 4.000000e+000
      vertex   -1.543933e+002 2.034463e+002 2.000000e+000
    endloop
  endfacet
  facet normal 1.000000e+000 0.000000e+000 0.000000e+000
    outer loop
      vertex   -1.543933e+002 2.034463e+002 2.000000e+000
      vertex   -1.543933e+002 2.414463e+002 4.000000e+000
      vertex   -1.543933e+002 2.034463e+002 4.000000e+000
    endloop
  endfacet
  facet normal 1.000000e+000 0.000000e+000 -0.000000e+000
    outer loop
      vertex   -1.543933e+002 2.794463e+002 2.000000e+000
      vertex   -1.543933e+002 2.794463e+002 4.000000e+000
      vertex   -1.543933e+002 2.414463e+002 4.000000e+000
    endloop
  endfacet
  facet normal 1.000000e+000 -0.000000e+000 0.000000e+000
    outer loop
      vertex   -1.543933e+002 2.014463e+002 2.000000e+000
      vertex   -1.543933e+002 2.014463e+002 3.342146e-016
      vertex   -1.543933e+002 2.034463e+002 2.000000e+000
    endloop
  endfacet
  facet normal 1.000000e+000 0.000000e+000 0.000000e+000
    outer loop
      vertex   -1.543933e+002 2.034463e+002 2.000000e+000
      vertex   -1.543933e+002 2.014463e+002 3.342146e-016
      vertex   -1.543933e+002 2.414463e+002 -3.885781e-015
    endloop
  endfacet
  facet normal 0.000000e+000 0.000000e+000 1.000000e+000
    outer loop
      vertex   -1.543933e+002 2.814463e+002 2.000000e+000
      vertex   -2.050933e+002 2.814463e+002 2.000000e+000
      vertex   -2.028933e+002 2.794463e+002 2.000000e+000
    endloop
  endfacet
  facet normal 0.000000e+000 0.000000e+000 1.000000e+000
    outer loop
      vertex   -2.028933e+002 2.794463e+002 2.000000e+000
      vertex   -2.050933e+002 2.814463e+002 2.000000e+000
      vertex   -2.050933e+002 2.414463e+002 2.000000e+000
    endloop
  endfacet
  facet normal 0.000000e+000 0.000000e+000 1.000000e+000
    outer loop
      vertex   -2.028933e+002 2.794463e+002 2.000000e+000
      vertex   -2.050933e+002 2.414463e+002 2.000000e+000
      vertex   -2.028933e+002 2.414463e+002 2.000000e+000
    endloop
  endfacet
  facet normal 0.000000e+000 0.000000e+000 1.000000e+000
    outer loop
      vertex   -2.028933e+002 2.414463e+002 2.000000e+000
      vertex   -2.050933e+002 2.414463e+002 2.000000e+000
      vertex   -2.028933e+002 2.034463e+002 2.000000e+000
    endloop
  endfacet
  facet normal 0.000000e+000 0.000000e+000 1.000000e+000
    outer loop
      vertex   -2.028933e+002 2.034463e+002 2.000000e+000
      vertex   -2.050933e+002 2.414463e+002 2.000000e+000
      vertex   -2.050933e+002 2.014463e+002 2.000000e+000
    endloop
  endfacet
  facet normal 0.000000e+000 0.000000e+000 1.000000e+000
    outer loop
      vertex   -2.028933e+002 2.034463e+002 2.000000e+000
      vertex   -2.050933e+002 2.014463e+002 2.000000e+000
      vertex   -1.543933e+002 2.014463e+002 2.000000e+000
    endloop
  endfacet
  facet normal 0.000000e+000 -0.000000e+000 1.000000e+000
    outer loop
      vertex   -1.543933e+002 2.014463e+002 2.000000e+000
      vertex   -1.543933e+002 2.034463e+002 2.000000e+000
      vertex   -2.028933e+002 2.034463e+002 2.000000e+000
    endloop
  endfacet
  facet normal 0.000000e+000 0.000000e+000 1.000000e+000
    outer loop
      vertex   -2.028933e+002 2.794463e+002 2.000000e+000
      vertex   -1.543933e+002 2.794463e+002 2.000000e+000
      vertex   -1.543933e+002 2.814463e+002 2.000000e+000
    endloop
  endfacet
endsolid
