solid ascii
  facet normal 1.000000e+000 0.000000e+000 0.000000e+000
    outer loop
      vertex   -2.503056e+002 1.807655e+001 2.100000e+001
      vertex   -2.503056e+002 2.307655e+001 2.100000e+001
      vertex   -2.503056e+002 1.807655e+001 2.700000e+001
    endloop
  endfacet
  facet normal 1.000000e+000 -0.000000e+000 0.000000e+000
    outer loop
      vertex   -2.503056e+002 1.807655e+001 2.700000e+001
      vertex   -2.503056e+002 2.307655e+001 2.100000e+001
      vertex   -2.503056e+002 2.307655e+001 2.700000e+001
    endloop
  endfacet
  facet normal 0.000000e+000 0.000000e+000 1.000000e+000
    outer loop
      vertex   -2.503056e+002 2.307655e+001 2.700000e+001
      vertex   -2.541537e+002 2.307655e+001 2.700000e+001
      vertex   -2.503056e+002 1.807655e+001 2.700000e+001
    endloop
  endfacet
  facet normal 0.000000e+000 0.000000e+000 1.000000e+000
    outer loop
      vertex   -2.503056e+002 1.807655e+001 2.700000e+001
      vertex   -2.541537e+002 2.307655e+001 2.700000e+001
      vertex   -2.541537e+002 1.807655e+001 2.700000e+001
    endloop
  endfacet
  facet normal -1.000000e+000 0.000000e+000 0.000000e+000
    outer loop
      vertex   -2.360776e+002 2.307655e+001 2.100000e+001
      vertex   -2.360776e+002 1.807655e+001 2.100000e+001
      vertex   -2.360776e+002 2.307655e+001 2.700000e+001
    endloop
  endfacet
  facet normal -1.000000e+000 -0.000000e+000 0.000000e+000
    outer loop
      vertex   -2.360776e+002 2.307655e+001 2.700000e+001
      vertex   -2.360776e+002 1.807655e+001 2.100000e+001
      vertex   -2.360776e+002 1.807655e+001 2.700000e+001
    endloop
  endfacet
  facet normal 0.000000e+000 0.000000e+000 1.000000e+000
    outer loop
      vertex   -2.360776e+002 1.807655e+001 2.700000e+001
      vertex   -2.201537e+002 1.807655e+001 2.700000e+001
      vertex   -2.360776e+002 2.307655e+001 2.700000e+001
    endloop
  endfacet
  facet normal -0.000000e+000 0.000000e+000 1.000000e+000
    outer loop
      vertex   -2.360776e+002 2.307655e+001 2.700000e+001
      vertex   -2.201537e+002 1.807655e+001 2.700000e+001
      vertex   -2.201537e+002 2.307655e+001 2.700000e+001
    endloop
  endfacet
  facet normal 1.000000e+000 0.000000e+000 0.000000e+000
    outer loop
      vertex   -2.201537e+002 2.307655e+001 2.700000e+001
      vertex   -2.201537e+002 1.807655e+001 2.700000e+001
      vertex   -2.201537e+002 2.307655e+001 2.000000e+000
    endloop
  endfacet
  facet normal 1.000000e+000 0.000000e+000 0.000000e+000
    outer loop
      vertex   -2.201537e+002 2.307655e+001 2.000000e+000
      vertex   -2.201537e+002 1.807655e+001 2.700000e+001
      vertex   -2.201537e+002 1.807655e+001 0.000000e+000
    endloop
  endfacet
  facet normal 1.000000e+000 0.000000e+000 0.000000e+000
    outer loop
      vertex   -2.201537e+002 2.307655e+001 2.000000e+000
      vertex   -2.201537e+002 1.807655e+001 0.000000e+000
      vertex   -2.201537e+002 5.507655e+001 0.000000e+000
    endloop
  endfacet
  facet normal 1.000000e+000 0.000000e+000 0.000000e+000
    outer loop
      vertex   -2.201537e+002 2.307655e+001 2.000000e+000
      vertex   -2.201537e+002 5.507655e+001 0.000000e+000
      vertex   -2.201537e+002 6.976161e+001 2.000000e+000
    endloop
  endfacet
  facet normal 1.000000e+000 0.000000e+000 0.000000e+000
    outer loop
      vertex   -2.201537e+002 6.976161e+001 2.000000e+000
      vertex   -2.201537e+002 5.507655e+001 0.000000e+000
      vertex   -2.201537e+002 9.207655e+001 0.000000e+000
    endloop
  endfacet
  facet normal 1.000000e+000 -0.000000e+000 0.000000e+000
    outer loop
      vertex   -2.201537e+002 6.976161e+001 2.000000e+000
      vertex   -2.201537e+002 9.207655e+001 0.000000e+000
      vertex   -2.201537e+002 7.585055e+001 1.400000e+001
    endloop
  endfacet
  facet normal 1.000000e+000 -0.000000e+000 0.000000e+000
    outer loop
      vertex   -2.201537e+002 7.585055e+001 1.400000e+001
      vertex   -2.201537e+002 9.207655e+001 0.000000e+000
      vertex   -2.201537e+002 9.207655e+001 1.700000e+001
    endloop
  endfacet
  facet normal 1.000000e+000 0.000000e+000 0.000000e+000
    outer loop
      vertex   -2.201537e+002 7.585055e+001 1.400000e+001
      vertex   -2.201537e+002 9.207655e+001 1.700000e+001
      vertex   -2.201537e+002 7.585055e+001 1.700000e+001
    endloop
  endfacet
  facet normal 1.000000e+000 0.000000e+000 0.000000e+000
    outer loop
      vertex   -2.201537e+002 7.585055e+001 1.400000e+001
      vertex   -2.201537e+002 6.976161e+001 1.400000e+001
      vertex   -2.201537e+002 6.976161e+001 2.000000e+000
    endloop
  endfacet
  facet normal 0.000000e+000 -1.000000e+000 0.000000e+000
    outer loop
      vertex   -2.360776e+002 1.807655e+001 2.700000e+001
      vertex   -2.360776e+002 1.807655e+001 2.100000e+001
      vertex   -2.201537e+002 1.807655e+001 2.700000e+001
    endloop
  endfacet
  facet normal 0.000000e+000 -1.000000e+000 0.000000e+000
    outer loop
      vertex   -2.201537e+002 1.807655e+001 2.700000e+001
      vertex   -2.360776e+002 1.807655e+001 2.100000e+001
      vertex   -2.360984e+002 1.807655e+001 2.060031e+001
    endloop
  endfacet
  facet normal 0.000000e+000 -1.000000e+000 0.000000e+000
    outer loop
      vertex   -2.201537e+002 1.807655e+001 2.700000e+001
      vertex   -2.360984e+002 1.807655e+001 2.060031e+001
      vertex   -2.361416e+002 1.807655e+001 2.020241e+001
    endloop
  endfacet
  facet normal 0.000000e+000 -1.000000e+000 -0.000000e+000
    outer loop
      vertex   -2.361416e+002 1.807655e+001 2.020241e+001
      vertex   -2.362072e+002 1.807655e+001 1.980758e+001
      vertex   -2.201537e+002 1.807655e+001 2.700000e+001
    endloop
  endfacet
  facet normal 0.000000e+000 -1.000000e+000 0.000000e+000
    outer loop
      vertex   -2.201537e+002 1.807655e+001 2.700000e+001
      vertex   -2.362072e+002 1.807655e+001 1.980758e+001
      vertex   -2.362948e+002 1.807655e+001 1.941706e+001
    endloop
  endfacet
  facet normal 0.000000e+000 -1.000000e+000 0.000000e+000
    outer loop
      vertex   -2.201537e+002 1.807655e+001 2.700000e+001
      vertex   -2.362948e+002 1.807655e+001 1.941706e+001
      vertex   -2.364043e+002 1.807655e+001 1.903208e+001
    endloop
  endfacet
  facet normal 0.000000e+000 -1.000000e+000 -0.000000e+000
    outer loop
      vertex   -2.364043e+002 1.807655e+001 1.903208e+001
      vertex   -2.365352e+002 1.807655e+001 1.865387e+001
      vertex   -2.201537e+002 1.807655e+001 2.700000e+001
    endloop
  endfacet
  facet normal 0.000000e+000 -1.000000e+000 0.000000e+000
    outer loop
      vertex   -2.201537e+002 1.807655e+001 2.700000e+001
      vertex   -2.365352e+002 1.807655e+001 1.865387e+001
      vertex   -2.366872e+002 1.807655e+001 1.828361e+001
    endloop
  endfacet
  facet normal 0.000000e+000 -1.000000e+000 -0.000000e+000
    outer loop
      vertex   -2.201537e+002 1.807655e+001 2.700000e+001
      vertex   -2.366872e+002 1.807655e+001 1.828361e+001
      vertex   -2.201537e+002 1.807655e+001 0.000000e+000
    endloop
  endfacet
  facet normal 0.000000e+000 -1.000000e+000 0.000000e+000
    outer loop
      vertex   -2.201537e+002 1.807655e+001 0.000000e+000
      vertex   -2.366872e+002 1.807655e+001 1.828361e+001
      vertex   -2.368598e+002 1.807655e+001 1.792249e+001
    endloop
  endfacet
  facet normal 0.000000e+000 -1.000000e+000 0.000000e+000
    outer loop
      vertex   -2.201537e+002 1.807655e+001 0.000000e+000
      vertex   -2.368598e+002 1.807655e+001 1.792249e+001
      vertex   -2.370524e+002 1.807655e+001 1.757163e+001
    endloop
  endfacet
  facet normal 0.000000e+000 -1.000000e+000 -0.000000e+000
    outer loop
      vertex   -2.370524e+002 1.807655e+001 1.757163e+001
      vertex   -2.372644e+002 1.807655e+001 1.723216e+001
      vertex   -2.201537e+002 1.807655e+001 0.000000e+000
    endloop
  endfacet
  facet normal 0.000000e+000 -1.000000e+000 0.000000e+000
    outer loop
      vertex   -2.201537e+002 1.807655e+001 0.000000e+000
      vertex   -2.372644e+002 1.807655e+001 1.723216e+001
      vertex   -2.374951e+002 1.807655e+001 1.690515e+001
    endloop
  endfacet
  facet normal 0.000000e+000 -1.000000e+000 0.000000e+000
    outer loop
      vertex   -2.201537e+002 1.807655e+001 0.000000e+000
      vertex   -2.374951e+002 1.807655e+001 1.690515e+001
      vertex   -2.377439e+002 1.807655e+001 1.659163e+001
    endloop
  endfacet
  facet normal 0.000000e+000 -1.000000e+000 -0.000000e+000
    outer loop
      vertex   -2.377439e+002 1.807655e+001 1.659163e+001
      vertex   -2.380099e+002 1.807655e+001 1.629259e+001
      vertex   -2.201537e+002 1.807655e+001 0.000000e+000
    endloop
  endfacet
  facet normal 0.000000e+000 -1.000000e+000 0.000000e+000
    outer loop
      vertex   -2.201537e+002 1.807655e+001 0.000000e+000
      vertex   -2.380099e+002 1.807655e+001 1.629259e+001
      vertex   -2.382923e+002 1.807655e+001 1.600898e+001
    endloop
  endfacet
  facet normal 0.000000e+000 -1.000000e+000 0.000000e+000
    outer loop
      vertex   -2.201537e+002 1.807655e+001 0.000000e+000
      vertex   -2.382923e+002 1.807655e+001 1.600898e+001
      vertex   -2.385902e+002 1.807655e+001 1.574170e+001
    endloop
  endfacet
  facet normal 0.000000e+000 -1.000000e+000 -0.000000e+000
    outer loop
      vertex   -2.385902e+002 1.807655e+001 1.574170e+001
      vertex   -2.389027e+002 1.807655e+001 1.549158e+001
      vertex   -2.201537e+002 1.807655e+001 0.000000e+000
    endloop
  endfacet
  facet normal 0.000000e+000 -1.000000e+000 0.000000e+000
    outer loop
      vertex   -2.201537e+002 1.807655e+001 0.000000e+000
      vertex   -2.389027e+002 1.807655e+001 1.549158e+001
      vertex   -2.392287e+002 1.807655e+001 1.525943e+001
    endloop
  endfacet
  facet normal 0.000000e+000 -1.000000e+000 0.000000e+000
    outer loop
      vertex   -2.201537e+002 1.807655e+001 0.000000e+000
      vertex   -2.392287e+002 1.807655e+001 1.525943e+001
      vertex   -2.395673e+002 1.807655e+001 1.504598e+001
    endloop
  endfacet
  facet normal 0.000000e+000 -1.000000e+000 -0.000000e+000
    outer loop
      vertex   -2.395673e+002 1.807655e+001 1.504598e+001
      vertex   -2.399173e+002 1.807655e+001 1.485190e+001
      vertex   -2.201537e+002 1.807655e+001 0.000000e+000
    endloop
  endfacet
  facet normal 0.000000e+000 -1.000000e+000 0.000000e+000
    outer loop
      vertex   -2.201537e+002 1.807655e+001 0.000000e+000
      vertex   -2.399173e+002 1.807655e+001 1.485190e+001
      vertex   -2.402777e+002 1.807655e+001 1.467781e+001
    endloop
  endfacet
  facet normal 0.000000e+000 -1.000000e+000 0.000000e+000
    outer loop
      vertex   -2.201537e+002 1.807655e+001 0.000000e+000
      vertex   -2.402777e+002 1.807655e+001 1.467781e+001
      vertex   -2.406473e+002 1.807655e+001 1.452425e+001
    endloop
  endfacet
  facet normal 0.000000e+000 -1.000000e+000 -0.000000e+000
    outer loop
      vertex   -2.406473e+002 1.807655e+001 1.452425e+001
      vertex   -2.410250e+002 1.807655e+001 1.439172e+001
      vertex   -2.201537e+002 1.807655e+001 0.000000e+000
    endloop
  endfacet
  facet normal 0.000000e+000 -1.000000e+000 0.000000e+000
    outer loop
      vertex   -2.201537e+002 1.807655e+001 0.000000e+000
      vertex   -2.410250e+002 1.807655e+001 1.439172e+001
      vertex   -2.414095e+002 1.807655e+001 1.428063e+001
    endloop
  endfacet
  facet normal 0.000000e+000 -1.000000e+000 0.000000e+000
    outer loop
      vertex   -2.201537e+002 1.807655e+001 0.000000e+000
      vertex   -2.414095e+002 1.807655e+001 1.428063e+001
      vertex   -2.417996e+002 1.807655e+001 1.419133e+001
    endloop
  endfacet
  facet normal 0.000000e+000 -1.000000e+000 0.000000e+000
    outer loop
      vertex   -2.201537e+002 1.807655e+001 0.000000e+000
      vertex   -2.417996e+002 1.807655e+001 1.419133e+001
      vertex   -2.541537e+002 1.807655e+001 0.000000e+000
    endloop
  endfacet
  facet normal 0.000000e+000 -1.000000e+000 0.000000e+000
    outer loop
      vertex   -2.541537e+002 1.807655e+001 0.000000e+000
      vertex   -2.417996e+002 1.807655e+001 1.419133e+001
      vertex   -2.421942e+002 1.807655e+001 1.412411e+001
    endloop
  endfacet
  facet normal 0.000000e+000 -1.000000e+000 0.000000e+000
    outer loop
      vertex   -2.541537e+002 1.807655e+001 0.000000e+000
      vertex   -2.421942e+002 1.807655e+001 1.412411e+001
      vertex   -2.425919e+002 1.807655e+001 1.407918e+001
    endloop
  endfacet
  facet normal 0.000000e+000 -1.000000e+000 0.000000e+000
    outer loop
      vertex   -2.425919e+002 1.807655e+001 1.407918e+001
      vertex   -2.429915e+002 1.807655e+001 1.405667e+001
      vertex   -2.541537e+002 1.807655e+001 0.000000e+000
    endloop
  endfacet
  facet normal 0.000000e+000 -1.000000e+000 0.000000e+000
    outer loop
      vertex   -2.541537e+002 1.807655e+001 0.000000e+000
      vertex   -2.429915e+002 1.807655e+001 1.405667e+001
      vertex   -2.433917e+002 1.807655e+001 1.405667e+001
    endloop
  endfacet
  facet normal 0.000000e+000 -1.000000e+000 0.000000e+000
    outer loop
      vertex   -2.541537e+002 1.807655e+001 0.000000e+000
      vertex   -2.433917e+002 1.807655e+001 1.405667e+001
      vertex   -2.437913e+002 1.807655e+001 1.407918e+001
    endloop
  endfacet
  facet normal -0.000000e+000 -1.000000e+000 0.000000e+000
    outer loop
      vertex   -2.437913e+002 1.807655e+001 1.407918e+001
      vertex   -2.441890e+002 1.807655e+001 1.412411e+001
      vertex   -2.541537e+002 1.807655e+001 0.000000e+000
    endloop
  endfacet
  facet normal 0.000000e+000 -1.000000e+000 0.000000e+000
    outer loop
      vertex   -2.541537e+002 1.807655e+001 0.000000e+000
      vertex   -2.441890e+002 1.807655e+001 1.412411e+001
      vertex   -2.445836e+002 1.807655e+001 1.419133e+001
    endloop
  endfacet
  facet normal 0.000000e+000 -1.000000e+000 0.000000e+000
    outer loop
      vertex   -2.541537e+002 1.807655e+001 0.000000e+000
      vertex   -2.445836e+002 1.807655e+001 1.419133e+001
      vertex   -2.449737e+002 1.807655e+001 1.428063e+001
    endloop
  endfacet
  facet normal -0.000000e+000 -1.000000e+000 0.000000e+000
    outer loop
      vertex   -2.449737e+002 1.807655e+001 1.428063e+001
      vertex   -2.453582e+002 1.807655e+001 1.439172e+001
      vertex   -2.541537e+002 1.807655e+001 0.000000e+000
    endloop
  endfacet
  facet normal 0.000000e+000 -1.000000e+000 0.000000e+000
    outer loop
      vertex   -2.541537e+002 1.807655e+001 0.000000e+000
      vertex   -2.453582e+002 1.807655e+001 1.439172e+001
      vertex   -2.457359e+002 1.807655e+001 1.452425e+001
    endloop
  endfacet
  facet normal 0.000000e+000 -1.000000e+000 0.000000e+000
    outer loop
      vertex   -2.541537e+002 1.807655e+001 0.000000e+000
      vertex   -2.457359e+002 1.807655e+001 1.452425e+001
      vertex   -2.461055e+002 1.807655e+001 1.467781e+001
    endloop
  endfacet
  facet normal -0.000000e+000 -1.000000e+000 0.000000e+000
    outer loop
      vertex   -2.461055e+002 1.807655e+001 1.467781e+001
      vertex   -2.464659e+002 1.807655e+001 1.485190e+001
      vertex   -2.541537e+002 1.807655e+001 0.000000e+000
    endloop
  endfacet
  facet normal 0.000000e+000 -1.000000e+000 0.000000e+000
    outer loop
      vertex   -2.541537e+002 1.807655e+001 0.000000e+000
      vertex   -2.464659e+002 1.807655e+001 1.485190e+001
      vertex   -2.468159e+002 1.807655e+001 1.504598e+001
    endloop
  endfacet
  facet normal 0.000000e+000 -1.000000e+000 0.000000e+000
    outer loop
      vertex   -2.541537e+002 1.807655e+001 0.000000e+000
      vertex   -2.468159e+002 1.807655e+001 1.504598e+001
      vertex   -2.471545e+002 1.807655e+001 1.525943e+001
    endloop
  endfacet
  facet normal -0.000000e+000 -1.000000e+000 0.000000e+000
    outer loop
      vertex   -2.471545e+002 1.807655e+001 1.525943e+001
      vertex   -2.474805e+002 1.807655e+001 1.549158e+001
      vertex   -2.541537e+002 1.807655e+001 0.000000e+000
    endloop
  endfacet
  facet normal 0.000000e+000 -1.000000e+000 0.000000e+000
    outer loop
      vertex   -2.541537e+002 1.807655e+001 0.000000e+000
      vertex   -2.474805e+002 1.807655e+001 1.549158e+001
      vertex   -2.477930e+002 1.807655e+001 1.574170e+001
    endloop
  endfacet
  facet normal 0.000000e+000 -1.000000e+000 0.000000e+000
    outer loop
      vertex   -2.541537e+002 1.807655e+001 0.000000e+000
      vertex   -2.477930e+002 1.807655e+001 1.574170e+001
      vertex   -2.480909e+002 1.807655e+001 1.600898e+001
    endloop
  endfacet
  facet normal -0.000000e+000 -1.000000e+000 0.000000e+000
    outer loop
      vertex   -2.480909e+002 1.807655e+001 1.600898e+001
      vertex   -2.483733e+002 1.807655e+001 1.629259e+001
      vertex   -2.541537e+002 1.807655e+001 0.000000e+000
    endloop
  endfacet
  facet normal 0.000000e+000 -1.000000e+000 0.000000e+000
    outer loop
      vertex   -2.541537e+002 1.807655e+001 0.000000e+000
      vertex   -2.483733e+002 1.807655e+001 1.629259e+001
      vertex   -2.486393e+002 1.807655e+001 1.659163e+001
    endloop
  endfacet
  facet normal 0.000000e+000 -1.000000e+000 0.000000e+000
    outer loop
      vertex   -2.541537e+002 1.807655e+001 0.000000e+000
      vertex   -2.486393e+002 1.807655e+001 1.659163e+001
      vertex   -2.488881e+002 1.807655e+001 1.690515e+001
    endloop
  endfacet
  facet normal -0.000000e+000 -1.000000e+000 0.000000e+000
    outer loop
      vertex   -2.488881e+002 1.807655e+001 1.690515e+001
      vertex   -2.491189e+002 1.807655e+001 1.723216e+001
      vertex   -2.541537e+002 1.807655e+001 0.000000e+000
    endloop
  endfacet
  facet normal 0.000000e+000 -1.000000e+000 0.000000e+000
    outer loop
      vertex   -2.541537e+002 1.807655e+001 0.000000e+000
      vertex   -2.491189e+002 1.807655e+001 1.723216e+001
      vertex   -2.493309e+002 1.807655e+001 1.757163e+001
    endloop
  endfacet
  facet normal 0.000000e+000 -1.000000e+000 0.000000e+000
    outer loop
      vertex   -2.541537e+002 1.807655e+001 0.000000e+000
      vertex   -2.493309e+002 1.807655e+001 1.757163e+001
      vertex   -2.495235e+002 1.807655e+001 1.792249e+001
    endloop
  endfacet
  facet normal -0.000000e+000 -1.000000e+000 0.000000e+000
    outer loop
      vertex   -2.495235e+002 1.807655e+001 1.792249e+001
      vertex   -2.496960e+002 1.807655e+001 1.828361e+001
      vertex   -2.541537e+002 1.807655e+001 0.000000e+000
    endloop
  endfacet
  facet normal 0.000000e+000 -1.000000e+000 0.000000e+000
    outer loop
      vertex   -2.541537e+002 1.807655e+001 0.000000e+000
      vertex   -2.496960e+002 1.807655e+001 1.828361e+001
      vertex   -2.498480e+002 1.807655e+001 1.865387e+001
    endloop
  endfacet
  facet normal 0.000000e+000 -1.000000e+000 0.000000e+000
    outer loop
      vertex   -2.541537e+002 1.807655e+001 0.000000e+000
      vertex   -2.498480e+002 1.807655e+001 1.865387e+001
      vertex   -2.499789e+002 1.807655e+001 1.903208e+001
    endloop
  endfacet
  facet normal 0.000000e+000 -1.000000e+000 0.000000e+000
    outer loop
      vertex   -2.541537e+002 1.807655e+001 0.000000e+000
      vertex   -2.499789e+002 1.807655e+001 1.903208e+001
      vertex   -2.541537e+002 1.807655e+001 2.700000e+001
    endloop
  endfacet
  facet normal 0.000000e+000 -1.000000e+000 0.000000e+000
    outer loop
      vertex   -2.541537e+002 1.807655e+001 2.700000e+001
      vertex   -2.499789e+002 1.807655e+001 1.903208e+001
      vertex   -2.500884e+002 1.807655e+001 1.941706e+001
    endloop
  endfacet
  facet normal 0.000000e+000 -1.000000e+000 0.000000e+000
    outer loop
      vertex   -2.541537e+002 1.807655e+001 2.700000e+001
      vertex   -2.500884e+002 1.807655e+001 1.941706e+001
      vertex   -2.501760e+002 1.807655e+001 1.980758e+001
    endloop
  endfacet
  facet normal 0.000000e+000 -1.000000e+000 0.000000e+000
    outer loop
      vertex   -2.501760e+002 1.807655e+001 1.980758e+001
      vertex   -2.502416e+002 1.807655e+001 2.020241e+001
      vertex   -2.541537e+002 1.807655e+001 2.700000e+001
    endloop
  endfacet
  facet normal 0.000000e+000 -1.000000e+000 0.000000e+000
    outer loop
      vertex   -2.541537e+002 1.807655e+001 2.700000e+001
      vertex   -2.502416e+002 1.807655e+001 2.020241e+001
      vertex   -2.502848e+002 1.807655e+001 2.060031e+001
    endloop
  endfacet
  facet normal 0.000000e+000 -1.000000e+000 0.000000e+000
    outer loop
      vertex   -2.541537e+002 1.807655e+001 2.700000e+001
      vertex   -2.502848e+002 1.807655e+001 2.060031e+001
      vertex   -2.503056e+002 1.807655e+001 2.100000e+001
    endloop
  endfacet
  facet normal 0.000000e+000 -1.000000e+000 0.000000e+000
    outer loop
      vertex   -2.503056e+002 1.807655e+001 2.100000e+001
      vertex   -2.503056e+002 1.807655e+001 2.700000e+001
      vertex   -2.541537e+002 1.807655e+001 2.700000e+001
    endloop
  endfacet
  facet normal -1.000000e+000 -0.000000e+000 -0.000000e+000
    outer loop
      vertex   -2.541537e+002 2.307655e+001 2.700000e+001
      vertex   -2.541537e+002 2.307655e+001 2.000000e+000
      vertex   -2.541537e+002 1.807655e+001 2.700000e+001
    endloop
  endfacet
  facet normal -1.000000e+000 0.000000e+000 0.000000e+000
    outer loop
      vertex   -2.541537e+002 1.807655e+001 2.700000e+001
      vertex   -2.541537e+002 2.307655e+001 2.000000e+000
      vertex   -2.541537e+002 1.807655e+001 0.000000e+000
    endloop
  endfacet
  facet normal -1.000000e+000 0.000000e+000 0.000000e+000
    outer loop
      vertex   -2.541537e+002 1.807655e+001 0.000000e+000
      vertex   -2.541537e+002 2.307655e+001 2.000000e+000
      vertex   -2.541537e+002 5.507655e+001 0.000000e+000
    endloop
  endfacet
  facet normal -1.000000e+000 0.000000e+000 0.000000e+000
    outer loop
      vertex   -2.541537e+002 5.507655e+001 0.000000e+000
      vertex   -2.541537e+002 2.307655e+001 2.000000e+000
      vertex   -2.541537e+002 6.976161e+001 2.000000e+000
    endloop
  endfacet
  facet normal -1.000000e+000 0.000000e+000 0.000000e+000
    outer loop
      vertex   -2.541537e+002 5.507655e+001 0.000000e+000
      vertex   -2.541537e+002 6.976161e+001 2.000000e+000
      vertex   -2.541537e+002 9.207655e+001 0.000000e+000
    endloop
  endfacet
  facet normal -1.000000e+000 0.000000e+000 0.000000e+000
    outer loop
      vertex   -2.541537e+002 9.207655e+001 0.000000e+000
      vertex   -2.541537e+002 6.976161e+001 2.000000e+000
      vertex   -2.541537e+002 7.585055e+001 1.400000e+001
    endloop
  endfacet
  facet normal -1.000000e+000 0.000000e+000 0.000000e+000
    outer loop
      vertex   -2.541537e+002 9.207655e+001 0.000000e+000
      vertex   -2.541537e+002 7.585055e+001 1.400000e+001
      vertex   -2.541537e+002 8.399239e+001 1.700000e+001
    endloop
  endfacet
  facet normal -1.000000e+000 -0.000000e+000 0.000000e+000
    outer loop
      vertex   -2.541537e+002 8.399239e+001 1.700000e+001
      vertex   -2.541537e+002 7.585055e+001 1.400000e+001
      vertex   -2.541537e+002 7.585055e+001 2.700000e+001
    endloop
  endfacet
  facet normal -1.000000e+000 0.000000e+000 0.000000e+000
    outer loop
      vertex   -2.541537e+002 8.399239e+001 1.700000e+001
      vertex   -2.541537e+002 7.585055e+001 2.700000e+001
      vertex   -2.541537e+002 8.399239e+001 2.700000e+001
    endloop
  endfacet
  facet normal -1.000000e+000 0.000000e+000 0.000000e+000
    outer loop
      vertex   -2.541537e+002 6.976161e+001 2.000000e+000
      vertex   -2.541537e+002 6.976161e+001 1.400000e+001
      vertex   -2.541537e+002 7.585055e+001 1.400000e+001
    endloop
  endfacet
  facet normal -1.000000e+000 0.000000e+000 0.000000e+000
    outer loop
      vertex   -2.541537e+002 8.399239e+001 1.700000e+001
      vertex   -2.541537e+002 9.207655e+001 1.700000e+001
      vertex   -2.541537e+002 9.207655e+001 0.000000e+000
    endloop
  endfacet
  facet normal -9.986489e-001 0.000000e+000 5.196377e-002
    outer loop
      vertex   -2.360776e+002 2.307655e+001 2.100000e+001
      vertex   -2.360984e+002 2.307655e+001 2.060031e+001
      vertex   -2.360776e+002 1.807655e+001 2.100000e+001
    endloop
  endfacet
  facet normal -9.986489e-001 8.701361e-019 5.196377e-002
    outer loop
      vertex   -2.360776e+002 1.807655e+001 2.100000e+001
      vertex   -2.360984e+002 2.307655e+001 2.060031e+001
      vertex   -2.360984e+002 1.807655e+001 2.060031e+001
    endloop
  endfacet
  facet normal -9.941460e-001 0.000000e+000 1.080450e-001
    outer loop
      vertex   -2.360984e+002 1.807655e+001 2.060031e+001
      vertex   -2.360984e+002 2.307655e+001 2.060031e+001
      vertex   -2.361416e+002 2.307655e+001 2.020241e+001
    endloop
  endfacet
  facet normal -9.941460e-001 0.000000e+000 1.080450e-001
    outer loop
      vertex   -2.360984e+002 1.807655e+001 2.060031e+001
      vertex   -2.361416e+002 2.307655e+001 2.020241e+001
      vertex   -2.361416e+002 1.807655e+001 2.020241e+001
    endloop
  endfacet
  facet normal -9.864965e-001 0.000000e+000 1.637823e-001
    outer loop
      vertex   -2.361416e+002 1.807655e+001 2.020241e+001
      vertex   -2.361416e+002 2.307655e+001 2.020241e+001
      vertex   -2.362072e+002 2.307655e+001 1.980758e+001
    endloop
  endfacet
  facet normal -9.864965e-001 1.740272e-018 1.637823e-001
    outer loop
      vertex   -2.361416e+002 1.807655e+001 2.020241e+001
      vertex   -2.362072e+002 2.307655e+001 1.980758e+001
      vertex   -2.362072e+002 1.807655e+001 1.980758e+001
    endloop
  endfacet
  facet normal -9.757362e-001 0.000000e+000 2.189494e-001
    outer loop
      vertex   -2.362072e+002 1.807655e+001 1.980758e+001
      vertex   -2.362072e+002 2.307655e+001 1.980758e+001
      vertex   -2.362948e+002 2.307655e+001 1.941706e+001
    endloop
  endfacet
  facet normal -9.757362e-001 0.000000e+000 2.189494e-001
    outer loop
      vertex   -2.362072e+002 1.807655e+001 1.980758e+001
      vertex   -2.362948e+002 2.307655e+001 1.941706e+001
      vertex   -2.362948e+002 1.807655e+001 1.941706e+001
    endloop
  endfacet
  facet normal -9.618710e-001 0.000000e+000 2.735036e-001
    outer loop
      vertex   -2.362948e+002 1.807655e+001 1.941706e+001
      vertex   -2.362948e+002 2.307655e+001 1.941706e+001
      vertex   -2.364043e+002 2.307655e+001 1.903208e+001
    endloop
  endfacet
  facet normal -9.618710e-001 3.480545e-018 2.735036e-001
    outer loop
      vertex   -2.362948e+002 1.807655e+001 1.941706e+001
      vertex   -2.364043e+002 2.307655e+001 1.903208e+001
      vertex   -2.364043e+002 1.807655e+001 1.903208e+001
    endloop
  endfacet
  facet normal -9.449859e-001 0.000000e+000 3.271111e-001
    outer loop
      vertex   -2.364043e+002 1.807655e+001 1.903208e+001
      vertex   -2.364043e+002 2.307655e+001 1.903208e+001
      vertex   -2.365352e+002 2.307655e+001 1.865387e+001
    endloop
  endfacet
  facet normal -9.449859e-001 -3.480544e-018 3.271111e-001
    outer loop
      vertex   -2.364043e+002 1.807655e+001 1.903208e+001
      vertex   -2.365352e+002 2.307655e+001 1.865387e+001
      vertex   -2.365352e+002 1.807655e+001 1.865387e+001
    endloop
  endfacet
  facet normal -9.250872e-001 0.000000e+000 3.797547e-001
    outer loop
      vertex   -2.365352e+002 1.807655e+001 1.865387e+001
      vertex   -2.365352e+002 2.307655e+001 1.865387e+001
      vertex   -2.366872e+002 2.307655e+001 1.828361e+001
    endloop
  endfacet
  facet normal -9.250872e-001 3.480545e-018 3.797547e-001
    outer loop
      vertex   -2.365352e+002 1.807655e+001 1.865387e+001
      vertex   -2.366872e+002 2.307655e+001 1.828361e+001
      vertex   -2.366872e+002 1.807655e+001 1.828361e+001
    endloop
  endfacet
  facet normal -9.022799e-001 0.000000e+000 4.311508e-001
    outer loop
      vertex   -2.366872e+002 1.807655e+001 1.828361e+001
      vertex   -2.366872e+002 2.307655e+001 1.828361e+001
      vertex   -2.368598e+002 2.307655e+001 1.792249e+001
    endloop
  endfacet
  facet normal -9.022799e-001 0.000000e+000 4.311508e-001
    outer loop
      vertex   -2.366872e+002 1.807655e+001 1.828361e+001
      vertex   -2.368598e+002 2.307655e+001 1.792249e+001
      vertex   -2.368598e+002 1.807655e+001 1.792249e+001
    endloop
  endfacet
  facet normal -8.766249e-001 0.000000e+000 4.811744e-001
    outer loop
      vertex   -2.368598e+002 1.807655e+001 1.792249e+001
      vertex   -2.368598e+002 2.307655e+001 1.792249e+001
      vertex   -2.370524e+002 2.307655e+001 1.757163e+001
    endloop
  endfacet
  facet normal -8.766249e-001 0.000000e+000 4.811744e-001
    outer loop
      vertex   -2.368598e+002 1.807655e+001 1.792249e+001
      vertex   -2.370524e+002 2.307655e+001 1.757163e+001
      vertex   -2.370524e+002 1.807655e+001 1.757163e+001
    endloop
  endfacet
  facet normal -8.481643e-001 0.000000e+000 5.297334e-001
    outer loop
      vertex   -2.370524e+002 1.807655e+001 1.757163e+001
      vertex   -2.370524e+002 2.307655e+001 1.757163e+001
      vertex   -2.372644e+002 2.307655e+001 1.723216e+001
    endloop
  endfacet
  facet normal -8.481643e-001 0.000000e+000 5.297334e-001
    outer loop
      vertex   -2.370524e+002 1.807655e+001 1.757163e+001
      vertex   -2.372644e+002 2.307655e+001 1.723216e+001
      vertex   -2.372644e+002 1.807655e+001 1.723216e+001
    endloop
  endfacet
  facet normal -8.170550e-001 0.000000e+000 5.765597e-001
    outer loop
      vertex   -2.372644e+002 1.807655e+001 1.723216e+001
      vertex   -2.372644e+002 2.307655e+001 1.723216e+001
      vertex   -2.374951e+002 2.307655e+001 1.690515e+001
    endloop
  endfacet
  facet normal -8.170550e-001 0.000000e+000 5.765597e-001
    outer loop
      vertex   -2.372644e+002 1.807655e+001 1.723216e+001
      vertex   -2.374951e+002 2.307655e+001 1.690515e+001
      vertex   -2.374951e+002 1.807655e+001 1.690515e+001
    endloop
  endfacet
  facet normal -7.833472e-001 0.000000e+000 6.215844e-001
    outer loop
      vertex   -2.374951e+002 1.807655e+001 1.690515e+001
      vertex   -2.374951e+002 2.307655e+001 1.690515e+001
      vertex   -2.377439e+002 2.307655e+001 1.659163e+001
    endloop
  endfacet
  facet normal -7.833472e-001 6.961089e-018 6.215844e-001
    outer loop
      vertex   -2.374951e+002 1.807655e+001 1.690515e+001
      vertex   -2.377439e+002 2.307655e+001 1.659163e+001
      vertex   -2.377439e+002 1.807655e+001 1.659163e+001
    endloop
  endfacet
  facet normal -7.471485e-001 0.000000e+000 6.646572e-001
    outer loop
      vertex   -2.377439e+002 1.807655e+001 1.659163e+001
      vertex   -2.377439e+002 2.307655e+001 1.659163e+001
      vertex   -2.380099e+002 2.307655e+001 1.629259e+001
    endloop
  endfacet
  facet normal -7.471485e-001 0.000000e+000 6.646572e-001
    outer loop
      vertex   -2.377439e+002 1.807655e+001 1.659163e+001
      vertex   -2.380099e+002 2.307655e+001 1.629259e+001
      vertex   -2.380099e+002 1.807655e+001 1.629259e+001
    endloop
  endfacet
  facet normal -7.086230e-001 0.000000e+000 7.055873e-001
    outer loop
      vertex   -2.380099e+002 1.807655e+001 1.629259e+001
      vertex   -2.380099e+002 2.307655e+001 1.629259e+001
      vertex   -2.382923e+002 2.307655e+001 1.600898e+001
    endloop
  endfacet
  facet normal -7.086230e-001 0.000000e+000 7.055873e-001
    outer loop
      vertex   -2.380099e+002 1.807655e+001 1.629259e+001
      vertex   -2.382923e+002 2.307655e+001 1.600898e+001
      vertex   -2.382923e+002 1.807655e+001 1.600898e+001
    endloop
  endfacet
  facet normal -6.678086e-001 0.000000e+000 7.443330e-001
    outer loop
      vertex   -2.382923e+002 1.807655e+001 1.600898e+001
      vertex   -2.382923e+002 2.307655e+001 1.600898e+001
      vertex   -2.385902e+002 2.307655e+001 1.574170e+001
    endloop
  endfacet
  facet normal -6.678086e-001 6.961090e-018 7.443330e-001
    outer loop
      vertex   -2.382923e+002 1.807655e+001 1.600898e+001
      vertex   -2.385902e+002 2.307655e+001 1.574170e+001
      vertex   -2.385902e+002 1.807655e+001 1.574170e+001
    endloop
  endfacet
  facet normal -6.249037e-001 0.000000e+000 7.807019e-001
    outer loop
      vertex   -2.385902e+002 1.807655e+001 1.574170e+001
      vertex   -2.385902e+002 2.307655e+001 1.574170e+001
      vertex   -2.389027e+002 2.307655e+001 1.549158e+001
    endloop
  endfacet
  facet normal -6.249037e-001 0.000000e+000 7.807019e-001
    outer loop
      vertex   -2.385902e+002 1.807655e+001 1.574170e+001
      vertex   -2.389027e+002 2.307655e+001 1.549158e+001
      vertex   -2.389027e+002 1.807655e+001 1.549158e+001
    endloop
  endfacet
  facet normal -5.800434e-001 0.000000e+000 8.145856e-001
    outer loop
      vertex   -2.389027e+002 1.807655e+001 1.549158e+001
      vertex   -2.389027e+002 2.307655e+001 1.549158e+001
      vertex   -2.392287e+002 2.307655e+001 1.525943e+001
    endloop
  endfacet
  facet normal -5.800434e-001 -6.961088e-018 8.145856e-001
    outer loop
      vertex   -2.389027e+002 1.807655e+001 1.549158e+001
      vertex   -2.392287e+002 2.307655e+001 1.525943e+001
      vertex   -2.392287e+002 1.807655e+001 1.525943e+001
    endloop
  endfacet
  facet normal -5.333207e-001 0.000000e+000 8.459131e-001
    outer loop
      vertex   -2.392287e+002 1.807655e+001 1.525943e+001
      vertex   -2.392287e+002 2.307655e+001 1.525943e+001
      vertex   -2.395673e+002 2.307655e+001 1.504598e+001
    endloop
  endfacet
  facet normal -5.333207e-001 0.000000e+000 8.459131e-001
    outer loop
      vertex   -2.392287e+002 1.807655e+001 1.525943e+001
      vertex   -2.395673e+002 2.307655e+001 1.504598e+001
      vertex   -2.395673e+002 1.807655e+001 1.504598e+001
    endloop
  endfacet
  facet normal -4.849070e-001 0.000000e+000 8.745657e-001
    outer loop
      vertex   -2.395673e+002 1.807655e+001 1.504598e+001
      vertex   -2.395673e+002 2.307655e+001 1.504598e+001
      vertex   -2.399173e+002 2.307655e+001 1.485190e+001
    endloop
  endfacet
  facet normal -4.849070e-001 6.961090e-018 8.745657e-001
    outer loop
      vertex   -2.395673e+002 1.807655e+001 1.504598e+001
      vertex   -2.399173e+002 2.307655e+001 1.485190e+001
      vertex   -2.399173e+002 1.807655e+001 1.485190e+001
    endloop
  endfacet
  facet normal -4.349685e-001 0.000000e+000 9.004456e-001
    outer loop
      vertex   -2.399173e+002 1.807655e+001 1.485190e+001
      vertex   -2.399173e+002 2.307655e+001 1.485190e+001
      vertex   -2.402777e+002 2.307655e+001 1.467781e+001
    endloop
  endfacet
  facet normal -4.349685e-001 0.000000e+000 9.004456e-001
    outer loop
      vertex   -2.399173e+002 1.807655e+001 1.485190e+001
      vertex   -2.402777e+002 2.307655e+001 1.467781e+001
      vertex   -2.402777e+002 1.807655e+001 1.467781e+001
    endloop
  endfacet
  facet normal -3.836711e-001 0.000000e+000 9.234698e-001
    outer loop
      vertex   -2.402777e+002 1.807655e+001 1.467781e+001
      vertex   -2.402777e+002 2.307655e+001 1.467781e+001
      vertex   -2.406473e+002 2.307655e+001 1.452425e+001
    endloop
  endfacet
  facet normal -3.836711e-001 0.000000e+000 9.234698e-001
    outer loop
      vertex   -2.402777e+002 1.807655e+001 1.467781e+001
      vertex   -2.406473e+002 2.307655e+001 1.452425e+001
      vertex   -2.406473e+002 1.807655e+001 1.452425e+001
    endloop
  endfacet
  facet normal -3.311400e-001 0.000000e+000 9.435816e-001
    outer loop
      vertex   -2.406473e+002 1.807655e+001 1.452425e+001
      vertex   -2.406473e+002 2.307655e+001 1.452425e+001
      vertex   -2.410250e+002 2.307655e+001 1.439172e+001
    endloop
  endfacet
  facet normal -3.311400e-001 -3.480544e-018 9.435816e-001
    outer loop
      vertex   -2.406473e+002 1.807655e+001 1.452425e+001
      vertex   -2.410250e+002 2.307655e+001 1.439172e+001
      vertex   -2.410250e+002 1.807655e+001 1.439172e+001
    endloop
  endfacet
  facet normal -2.775652e-001 0.000000e+000 9.607068e-001
    outer loop
      vertex   -2.410250e+002 1.807655e+001 1.439172e+001
      vertex   -2.410250e+002 2.307655e+001 1.439172e+001
      vertex   -2.414095e+002 2.307655e+001 1.428063e+001
    endloop
  endfacet
  facet normal -2.775652e-001 -3.480544e-018 9.607068e-001
    outer loop
      vertex   -2.410250e+002 1.807655e+001 1.439172e+001
      vertex   -2.414095e+002 2.307655e+001 1.428063e+001
      vertex   -2.414095e+002 1.807655e+001 1.428063e+001
    endloop
  endfacet
  facet normal -2.231113e-001 0.000000e+000 9.747930e-001
    outer loop
      vertex   -2.414095e+002 1.807655e+001 1.428063e+001
      vertex   -2.414095e+002 2.307655e+001 1.428063e+001
      vertex   -2.417996e+002 2.307655e+001 1.419133e+001
    endloop
  endfacet
  facet normal -2.231113e-001 -3.480545e-018 9.747930e-001
    outer loop
      vertex   -2.414095e+002 1.807655e+001 1.428063e+001
      vertex   -2.417996e+002 2.307655e+001 1.419133e+001
      vertex   -2.417996e+002 1.807655e+001 1.419133e+001
    endloop
  endfacet
  facet normal -1.679567e-001 0.000000e+000 9.857944e-001
    outer loop
      vertex   -2.417996e+002 1.807655e+001 1.419133e+001
      vertex   -2.417996e+002 2.307655e+001 1.419133e+001
      vertex   -2.421942e+002 2.307655e+001 1.412411e+001
    endloop
  endfacet
  facet normal -1.679567e-001 1.740272e-018 9.857944e-001
    outer loop
      vertex   -2.417996e+002 1.807655e+001 1.419133e+001
      vertex   -2.421942e+002 2.307655e+001 1.412411e+001
      vertex   -2.421942e+002 1.807655e+001 1.412411e+001
    endloop
  endfacet
  facet normal -1.122649e-001 0.000000e+000 9.936783e-001
    outer loop
      vertex   -2.421942e+002 1.807655e+001 1.412411e+001
      vertex   -2.421942e+002 2.307655e+001 1.412411e+001
      vertex   -2.425919e+002 2.307655e+001 1.407918e+001
    endloop
  endfacet
  facet normal -1.122649e-001 0.000000e+000 9.936783e-001
    outer loop
      vertex   -2.421942e+002 1.807655e+001 1.412411e+001
      vertex   -2.425919e+002 2.307655e+001 1.407918e+001
      vertex   -2.425919e+002 1.807655e+001 1.407918e+001
    endloop
  endfacet
  facet normal -5.622036e-002 0.000000e+000 9.984184e-001
    outer loop
      vertex   -2.425919e+002 1.807655e+001 1.407918e+001
      vertex   -2.425919e+002 2.307655e+001 1.407918e+001
      vertex   -2.429915e+002 2.307655e+001 1.405667e+001
    endloop
  endfacet
  facet normal -5.622036e-002 0.000000e+000 9.984184e-001
    outer loop
      vertex   -2.425919e+002 1.807655e+001 1.407918e+001
      vertex   -2.429915e+002 2.307655e+001 1.405667e+001
      vertex   -2.429915e+002 1.807655e+001 1.405667e+001
    endloop
  endfacet
  facet normal 0.000000e+000 -0.000000e+000 1.000000e+000
    outer loop
      vertex   -2.429915e+002 1.807655e+001 1.405667e+001
      vertex   -2.429915e+002 2.307655e+001 1.405667e+001
      vertex   -2.433917e+002 2.307655e+001 1.405667e+001
    endloop
  endfacet
  facet normal 0.000000e+000 0.000000e+000 1.000000e+000
    outer loop
      vertex   -2.429915e+002 1.807655e+001 1.405667e+001
      vertex   -2.433917e+002 2.307655e+001 1.405667e+001
      vertex   -2.433917e+002 1.807655e+001 1.405667e+001
    endloop
  endfacet
  facet normal 5.622036e-002 -0.000000e+000 9.984184e-001
    outer loop
      vertex   -2.433917e+002 1.807655e+001 1.405667e+001
      vertex   -2.433917e+002 2.307655e+001 1.405667e+001
      vertex   -2.437913e+002 2.307655e+001 1.407918e+001
    endloop
  endfacet
  facet normal 5.622036e-002 0.000000e+000 9.984184e-001
    outer loop
      vertex   -2.433917e+002 1.807655e+001 1.405667e+001
      vertex   -2.437913e+002 2.307655e+001 1.407918e+001
      vertex   -2.437913e+002 1.807655e+001 1.407918e+001
    endloop
  endfacet
  facet normal 1.122649e-001 -0.000000e+000 9.936783e-001
    outer loop
      vertex   -2.437913e+002 1.807655e+001 1.407918e+001
      vertex   -2.437913e+002 2.307655e+001 1.407918e+001
      vertex   -2.441890e+002 2.307655e+001 1.412411e+001
    endloop
  endfacet
  facet normal 1.122649e-001 0.000000e+000 9.936783e-001
    outer loop
      vertex   -2.437913e+002 1.807655e+001 1.407918e+001
      vertex   -2.441890e+002 2.307655e+001 1.412411e+001
      vertex   -2.441890e+002 1.807655e+001 1.412411e+001
    endloop
  endfacet
  facet normal 1.679567e-001 -0.000000e+000 9.857944e-001
    outer loop
      vertex   -2.441890e+002 1.807655e+001 1.412411e+001
      vertex   -2.441890e+002 2.307655e+001 1.412411e+001
      vertex   -2.445836e+002 2.307655e+001 1.419133e+001
    endloop
  endfacet
  facet normal 1.679567e-001 -1.740272e-018 9.857944e-001
    outer loop
      vertex   -2.441890e+002 1.807655e+001 1.412411e+001
      vertex   -2.445836e+002 2.307655e+001 1.419133e+001
      vertex   -2.445836e+002 1.807655e+001 1.419133e+001
    endloop
  endfacet
  facet normal 2.231113e-001 -0.000000e+000 9.747930e-001
    outer loop
      vertex   -2.445836e+002 1.807655e+001 1.419133e+001
      vertex   -2.445836e+002 2.307655e+001 1.419133e+001
      vertex   -2.449737e+002 2.307655e+001 1.428063e+001
    endloop
  endfacet
  facet normal 2.231113e-001 3.480545e-018 9.747930e-001
    outer loop
      vertex   -2.445836e+002 1.807655e+001 1.419133e+001
      vertex   -2.449737e+002 2.307655e+001 1.428063e+001
      vertex   -2.449737e+002 1.807655e+001 1.428063e+001
    endloop
  endfacet
  facet normal 2.775652e-001 -0.000000e+000 9.607068e-001
    outer loop
      vertex   -2.449737e+002 1.807655e+001 1.428063e+001
      vertex   -2.449737e+002 2.307655e+001 1.428063e+001
      vertex   -2.453582e+002 2.307655e+001 1.439172e+001
    endloop
  endfacet
  facet normal 2.775652e-001 3.480544e-018 9.607068e-001
    outer loop
      vertex   -2.449737e+002 1.807655e+001 1.428063e+001
      vertex   -2.453582e+002 2.307655e+001 1.439172e+001
      vertex   -2.453582e+002 1.807655e+001 1.439172e+001
    endloop
  endfacet
  facet normal 3.311400e-001 -0.000000e+000 9.435816e-001
    outer loop
      vertex   -2.453582e+002 1.807655e+001 1.439172e+001
      vertex   -2.453582e+002 2.307655e+001 1.439172e+001
      vertex   -2.457359e+002 2.307655e+001 1.452425e+001
    endloop
  endfacet
  facet normal 3.311400e-001 3.480544e-018 9.435816e-001
    outer loop
      vertex   -2.453582e+002 1.807655e+001 1.439172e+001
      vertex   -2.457359e+002 2.307655e+001 1.452425e+001
      vertex   -2.457359e+002 1.807655e+001 1.452425e+001
    endloop
  endfacet
  facet normal 3.836711e-001 -0.000000e+000 9.234698e-001
    outer loop
      vertex   -2.457359e+002 1.807655e+001 1.452425e+001
      vertex   -2.457359e+002 2.307655e+001 1.452425e+001
      vertex   -2.461055e+002 2.307655e+001 1.467781e+001
    endloop
  endfacet
  facet normal 3.836711e-001 0.000000e+000 9.234698e-001
    outer loop
      vertex   -2.457359e+002 1.807655e+001 1.452425e+001
      vertex   -2.461055e+002 2.307655e+001 1.467781e+001
      vertex   -2.461055e+002 1.807655e+001 1.467781e+001
    endloop
  endfacet
  facet normal 4.349685e-001 -0.000000e+000 9.004456e-001
    outer loop
      vertex   -2.461055e+002 1.807655e+001 1.467781e+001
      vertex   -2.461055e+002 2.307655e+001 1.467781e+001
      vertex   -2.464659e+002 2.307655e+001 1.485190e+001
    endloop
  endfacet
  facet normal 4.349685e-001 0.000000e+000 9.004456e-001
    outer loop
      vertex   -2.461055e+002 1.807655e+001 1.467781e+001
      vertex   -2.464659e+002 2.307655e+001 1.485190e+001
      vertex   -2.464659e+002 1.807655e+001 1.485190e+001
    endloop
  endfacet
  facet normal 4.849231e-001 -0.000000e+000 8.745568e-001
    outer loop
      vertex   -2.464659e+002 1.807655e+001 1.485190e+001
      vertex   -2.464659e+002 2.307655e+001 1.485190e+001
      vertex   -2.468159e+002 2.307655e+001 1.504598e+001
    endloop
  endfacet
  facet normal 4.849231e-001 0.000000e+000 8.745568e-001
    outer loop
      vertex   -2.464659e+002 1.807655e+001 1.485190e+001
      vertex   -2.468159e+002 2.307655e+001 1.504598e+001
      vertex   -2.468159e+002 1.807655e+001 1.504598e+001
    endloop
  endfacet
  facet normal 5.333035e-001 -0.000000e+000 8.459240e-001
    outer loop
      vertex   -2.468159e+002 1.807655e+001 1.504598e+001
      vertex   -2.468159e+002 2.307655e+001 1.504598e+001
      vertex   -2.471545e+002 2.307655e+001 1.525943e+001
    endloop
  endfacet
  facet normal 5.333035e-001 -6.961090e-018 8.459240e-001
    outer loop
      vertex   -2.468159e+002 1.807655e+001 1.504598e+001
      vertex   -2.471545e+002 2.307655e+001 1.525943e+001
      vertex   -2.471545e+002 1.807655e+001 1.525943e+001
    endloop
  endfacet
  facet normal 5.800434e-001 -0.000000e+000 8.145856e-001
    outer loop
      vertex   -2.471545e+002 1.807655e+001 1.525943e+001
      vertex   -2.471545e+002 2.307655e+001 1.525943e+001
      vertex   -2.474805e+002 2.307655e+001 1.549158e+001
    endloop
  endfacet
  facet normal 5.800434e-001 6.961088e-018 8.145856e-001
    outer loop
      vertex   -2.471545e+002 1.807655e+001 1.525943e+001
      vertex   -2.474805e+002 2.307655e+001 1.549158e+001
      vertex   -2.474805e+002 1.807655e+001 1.549158e+001
    endloop
  endfacet
  facet normal 6.249037e-001 -0.000000e+000 7.807019e-001
    outer loop
      vertex   -2.474805e+002 1.807655e+001 1.549158e+001
      vertex   -2.474805e+002 2.307655e+001 1.549158e+001
      vertex   -2.477930e+002 2.307655e+001 1.574170e+001
    endloop
  endfacet
  facet normal 6.249037e-001 0.000000e+000 7.807019e-001
    outer loop
      vertex   -2.474805e+002 1.807655e+001 1.549158e+001
      vertex   -2.477930e+002 2.307655e+001 1.574170e+001
      vertex   -2.477930e+002 1.807655e+001 1.574170e+001
    endloop
  endfacet
  facet normal 6.678275e-001 -0.000000e+000 7.443160e-001
    outer loop
      vertex   -2.477930e+002 1.807655e+001 1.574170e+001
      vertex   -2.477930e+002 2.307655e+001 1.574170e+001
      vertex   -2.480909e+002 2.307655e+001 1.600898e+001
    endloop
  endfacet
  facet normal 6.678275e-001 6.961088e-018 7.443160e-001
    outer loop
      vertex   -2.477930e+002 1.807655e+001 1.574170e+001
      vertex   -2.480909e+002 2.307655e+001 1.600898e+001
      vertex   -2.480909e+002 1.807655e+001 1.600898e+001
    endloop
  endfacet
  facet normal 7.086040e-001 -0.000000e+000 7.056064e-001
    outer loop
      vertex   -2.480909e+002 1.807655e+001 1.600898e+001
      vertex   -2.480909e+002 2.307655e+001 1.600898e+001
      vertex   -2.483733e+002 2.307655e+001 1.629259e+001
    endloop
  endfacet
  facet normal 7.086040e-001 -6.961089e-018 7.056064e-001
    outer loop
      vertex   -2.480909e+002 1.807655e+001 1.600898e+001
      vertex   -2.483733e+002 2.307655e+001 1.629259e+001
      vertex   -2.483733e+002 1.807655e+001 1.629259e+001
    endloop
  endfacet
  facet normal 7.471485e-001 -0.000000e+000 6.646572e-001
    outer loop
      vertex   -2.483733e+002 1.807655e+001 1.629259e+001
      vertex   -2.483733e+002 2.307655e+001 1.629259e+001
      vertex   -2.486393e+002 2.307655e+001 1.659163e+001
    endloop
  endfacet
  facet normal 7.471485e-001 0.000000e+000 6.646572e-001
    outer loop
      vertex   -2.483733e+002 1.807655e+001 1.629259e+001
      vertex   -2.486393e+002 2.307655e+001 1.659163e+001
      vertex   -2.486393e+002 1.807655e+001 1.659163e+001
    endloop
  endfacet
  facet normal 7.833472e-001 -0.000000e+000 6.215844e-001
    outer loop
      vertex   -2.486393e+002 1.807655e+001 1.659163e+001
      vertex   -2.486393e+002 2.307655e+001 1.659163e+001
      vertex   -2.488881e+002 2.307655e+001 1.690515e+001
    endloop
  endfacet
  facet normal 7.833472e-001 -6.961089e-018 6.215844e-001
    outer loop
      vertex   -2.486393e+002 1.807655e+001 1.659163e+001
      vertex   -2.488881e+002 2.307655e+001 1.690515e+001
      vertex   -2.488881e+002 1.807655e+001 1.690515e+001
    endloop
  endfacet
  facet normal 8.170550e-001 -0.000000e+000 5.765597e-001
    outer loop
      vertex   -2.488881e+002 1.807655e+001 1.690515e+001
      vertex   -2.488881e+002 2.307655e+001 1.690515e+001
      vertex   -2.491189e+002 2.307655e+001 1.723216e+001
    endloop
  endfacet
  facet normal 8.170550e-001 0.000000e+000 5.765597e-001
    outer loop
      vertex   -2.488881e+002 1.807655e+001 1.690515e+001
      vertex   -2.491189e+002 2.307655e+001 1.723216e+001
      vertex   -2.491189e+002 1.807655e+001 1.723216e+001
    endloop
  endfacet
  facet normal 8.481643e-001 -0.000000e+000 5.297334e-001
    outer loop
      vertex   -2.491189e+002 1.807655e+001 1.723216e+001
      vertex   -2.491189e+002 2.307655e+001 1.723216e+001
      vertex   -2.493309e+002 2.307655e+001 1.757163e+001
    endloop
  endfacet
  facet normal 8.481643e-001 0.000000e+000 5.297334e-001
    outer loop
      vertex   -2.491189e+002 1.807655e+001 1.723216e+001
      vertex   -2.493309e+002 2.307655e+001 1.757163e+001
      vertex   -2.493309e+002 1.807655e+001 1.757163e+001
    endloop
  endfacet
  facet normal 8.766249e-001 -0.000000e+000 4.811744e-001
    outer loop
      vertex   -2.493309e+002 1.807655e+001 1.757163e+001
      vertex   -2.493309e+002 2.307655e+001 1.757163e+001
      vertex   -2.495235e+002 2.307655e+001 1.792249e+001
    endloop
  endfacet
  facet normal 8.766249e-001 0.000000e+000 4.811744e-001
    outer loop
      vertex   -2.493309e+002 1.807655e+001 1.757163e+001
      vertex   -2.495235e+002 2.307655e+001 1.792249e+001
      vertex   -2.495235e+002 1.807655e+001 1.792249e+001
    endloop
  endfacet
  facet normal 9.022799e-001 -0.000000e+000 4.311508e-001
    outer loop
      vertex   -2.495235e+002 1.807655e+001 1.792249e+001
      vertex   -2.495235e+002 2.307655e+001 1.792249e+001
      vertex   -2.496960e+002 2.307655e+001 1.828361e+001
    endloop
  endfacet
  facet normal 9.022799e-001 0.000000e+000 4.311508e-001
    outer loop
      vertex   -2.495235e+002 1.807655e+001 1.792249e+001
      vertex   -2.496960e+002 2.307655e+001 1.828361e+001
      vertex   -2.496960e+002 1.807655e+001 1.828361e+001
    endloop
  endfacet
  facet normal 9.250872e-001 -0.000000e+000 3.797547e-001
    outer loop
      vertex   -2.496960e+002 1.807655e+001 1.828361e+001
      vertex   -2.496960e+002 2.307655e+001 1.828361e+001
      vertex   -2.498480e+002 2.307655e+001 1.865387e+001
    endloop
  endfacet
  facet normal 9.250872e-001 -3.480545e-018 3.797547e-001
    outer loop
      vertex   -2.496960e+002 1.807655e+001 1.828361e+001
      vertex   -2.498480e+002 2.307655e+001 1.865387e+001
      vertex   -2.498480e+002 1.807655e+001 1.865387e+001
    endloop
  endfacet
  facet normal 9.449859e-001 -0.000000e+000 3.271111e-001
    outer loop
      vertex   -2.498480e+002 1.807655e+001 1.865387e+001
      vertex   -2.498480e+002 2.307655e+001 1.865387e+001
      vertex   -2.499789e+002 2.307655e+001 1.903208e+001
    endloop
  endfacet
  facet normal 9.449859e-001 3.480544e-018 3.271111e-001
    outer loop
      vertex   -2.498480e+002 1.807655e+001 1.865387e+001
      vertex   -2.499789e+002 2.307655e+001 1.903208e+001
      vertex   -2.499789e+002 1.807655e+001 1.903208e+001
    endloop
  endfacet
  facet normal 9.618810e-001 -0.000000e+000 2.734683e-001
    outer loop
      vertex   -2.499789e+002 1.807655e+001 1.903208e+001
      vertex   -2.499789e+002 2.307655e+001 1.903208e+001
      vertex   -2.500884e+002 2.307655e+001 1.941706e+001
    endloop
  endfacet
  facet normal 9.618810e-001 3.480544e-018 2.734683e-001
    outer loop
      vertex   -2.499789e+002 1.807655e+001 1.903208e+001
      vertex   -2.500884e+002 2.307655e+001 1.941706e+001
      vertex   -2.500884e+002 1.807655e+001 1.941706e+001
    endloop
  endfacet
  facet normal 9.757281e-001 -0.000000e+000 2.189857e-001
    outer loop
      vertex   -2.500884e+002 1.807655e+001 1.941706e+001
      vertex   -2.500884e+002 2.307655e+001 1.941706e+001
      vertex   -2.501760e+002 2.307655e+001 1.980758e+001
    endloop
  endfacet
  facet normal 9.757281e-001 0.000000e+000 2.189857e-001
    outer loop
      vertex   -2.500884e+002 1.807655e+001 1.941706e+001
      vertex   -2.501760e+002 2.307655e+001 1.980758e+001
      vertex   -2.501760e+002 1.807655e+001 1.980758e+001
    endloop
  endfacet
  facet normal 9.864965e-001 -0.000000e+000 1.637823e-001
    outer loop
      vertex   -2.501760e+002 1.807655e+001 1.980758e+001
      vertex   -2.501760e+002 2.307655e+001 1.980758e+001
      vertex   -2.502416e+002 2.307655e+001 2.020241e+001
    endloop
  endfacet
  facet normal 9.864965e-001 -1.740272e-018 1.637823e-001
    outer loop
      vertex   -2.501760e+002 1.807655e+001 1.980758e+001
      vertex   -2.502416e+002 2.307655e+001 2.020241e+001
      vertex   -2.502416e+002 1.807655e+001 2.020241e+001
    endloop
  endfacet
  facet normal 9.941501e-001 -0.000000e+000 1.080074e-001
    outer loop
      vertex   -2.502416e+002 1.807655e+001 2.020241e+001
      vertex   -2.502416e+002 2.307655e+001 2.020241e+001
      vertex   -2.502848e+002 2.307655e+001 2.060031e+001
    endloop
  endfacet
  facet normal 9.941501e-001 1.740272e-018 1.080074e-001
    outer loop
      vertex   -2.502416e+002 1.807655e+001 2.020241e+001
      vertex   -2.502848e+002 2.307655e+001 2.060031e+001
      vertex   -2.502848e+002 1.807655e+001 2.060031e+001
    endloop
  endfacet
  facet normal 9.986470e-001 -0.000000e+000 5.200179e-002
    outer loop
      vertex   -2.502848e+002 1.807655e+001 2.060031e+001
      vertex   -2.502848e+002 2.307655e+001 2.060031e+001
      vertex   -2.503056e+002 2.307655e+001 2.100000e+001
    endloop
  endfacet
  facet normal 9.986470e-001 0.000000e+000 5.200179e-002
    outer loop
      vertex   -2.502848e+002 1.807655e+001 2.060031e+001
      vertex   -2.503056e+002 2.307655e+001 2.100000e+001
      vertex   -2.503056e+002 1.807655e+001 2.100000e+001
    endloop
  endfacet
  facet normal 0.000000e+000 1.000000e+000 -0.000000e+000
    outer loop
      vertex   -2.201537e+002 2.307655e+001 2.000000e+000
      vertex   -2.366872e+002 2.307655e+001 1.828361e+001
      vertex   -2.201537e+002 2.307655e+001 2.700000e+001
    endloop
  endfacet
  facet normal 0.000000e+000 1.000000e+000 0.000000e+000
    outer loop
      vertex   -2.201537e+002 2.307655e+001 2.700000e+001
      vertex   -2.366872e+002 2.307655e+001 1.828361e+001
      vertex   -2.365352e+002 2.307655e+001 1.865387e+001
    endloop
  endfacet
  facet normal 0.000000e+000 1.000000e+000 0.000000e+000
    outer loop
      vertex   -2.201537e+002 2.307655e+001 2.700000e+001
      vertex   -2.365352e+002 2.307655e+001 1.865387e+001
      vertex   -2.364043e+002 2.307655e+001 1.903208e+001
    endloop
  endfacet
  facet normal 0.000000e+000 1.000000e+000 0.000000e+000
    outer loop
      vertex   -2.541537e+002 2.307655e+001 2.000000e+000
      vertex   -2.417996e+002 2.307655e+001 1.419133e+001
      vertex   -2.201537e+002 2.307655e+001 2.000000e+000
    endloop
  endfacet
  facet normal 0.000000e+000 1.000000e+000 0.000000e+000
    outer loop
      vertex   -2.201537e+002 2.307655e+001 2.000000e+000
      vertex   -2.417996e+002 2.307655e+001 1.419133e+001
      vertex   -2.414095e+002 2.307655e+001 1.428063e+001
    endloop
  endfacet
  facet normal 0.000000e+000 1.000000e+000 0.000000e+000
    outer loop
      vertex   -2.201537e+002 2.307655e+001 2.000000e+000
      vertex   -2.414095e+002 2.307655e+001 1.428063e+001
      vertex   -2.410250e+002 2.307655e+001 1.439172e+001
    endloop
  endfacet
  facet normal 0.000000e+000 1.000000e+000 0.000000e+000
    outer loop
      vertex   -2.541537e+002 2.307655e+001 2.700000e+001
      vertex   -2.500884e+002 2.307655e+001 1.941706e+001
      vertex   -2.541537e+002 2.307655e+001 2.000000e+000
    endloop
  endfacet
  facet normal 0.000000e+000 1.000000e+000 0.000000e+000
    outer loop
      vertex   -2.541537e+002 2.307655e+001 2.000000e+000
      vertex   -2.500884e+002 2.307655e+001 1.941706e+001
      vertex   -2.499789e+002 2.307655e+001 1.903208e+001
    endloop
  endfacet
  facet normal 0.000000e+000 1.000000e+000 0.000000e+000
    outer loop
      vertex   -2.541537e+002 2.307655e+001 2.000000e+000
      vertex   -2.499789e+002 2.307655e+001 1.903208e+001
      vertex   -2.498480e+002 2.307655e+001 1.865387e+001
    endloop
  endfacet
  facet normal 0.000000e+000 1.000000e+000 0.000000e+000
    outer loop
      vertex   -2.503056e+002 2.307655e+001 2.700000e+001
      vertex   -2.503056e+002 2.307655e+001 2.100000e+001
      vertex   -2.541537e+002 2.307655e+001 2.700000e+001
    endloop
  endfacet
  facet normal 0.000000e+000 1.000000e+000 0.000000e+000
    outer loop
      vertex   -2.541537e+002 2.307655e+001 2.700000e+001
      vertex   -2.503056e+002 2.307655e+001 2.100000e+001
      vertex   -2.502848e+002 2.307655e+001 2.060031e+001
    endloop
  endfacet
  facet normal 0.000000e+000 1.000000e+000 0.000000e+000
    outer loop
      vertex   -2.541537e+002 2.307655e+001 2.700000e+001
      vertex   -2.502848e+002 2.307655e+001 2.060031e+001
      vertex   -2.502416e+002 2.307655e+001 2.020241e+001
    endloop
  endfacet
  facet normal 0.000000e+000 1.000000e+000 0.000000e+000
    outer loop
      vertex   -2.502416e+002 2.307655e+001 2.020241e+001
      vertex   -2.501760e+002 2.307655e+001 1.980758e+001
      vertex   -2.541537e+002 2.307655e+001 2.700000e+001
    endloop
  endfacet
  facet normal 0.000000e+000 1.000000e+000 0.000000e+000
    outer loop
      vertex   -2.541537e+002 2.307655e+001 2.700000e+001
      vertex   -2.501760e+002 2.307655e+001 1.980758e+001
      vertex   -2.500884e+002 2.307655e+001 1.941706e+001
    endloop
  endfacet
  facet normal 0.000000e+000 1.000000e+000 0.000000e+000
    outer loop
      vertex   -2.498480e+002 2.307655e+001 1.865387e+001
      vertex   -2.496960e+002 2.307655e+001 1.828361e+001
      vertex   -2.541537e+002 2.307655e+001 2.000000e+000
    endloop
  endfacet
  facet normal 0.000000e+000 1.000000e+000 0.000000e+000
    outer loop
      vertex   -2.541537e+002 2.307655e+001 2.000000e+000
      vertex   -2.496960e+002 2.307655e+001 1.828361e+001
      vertex   -2.495235e+002 2.307655e+001 1.792249e+001
    endloop
  endfacet
  facet normal 0.000000e+000 1.000000e+000 0.000000e+000
    outer loop
      vertex   -2.541537e+002 2.307655e+001 2.000000e+000
      vertex   -2.495235e+002 2.307655e+001 1.792249e+001
      vertex   -2.493309e+002 2.307655e+001 1.757163e+001
    endloop
  endfacet
  facet normal 0.000000e+000 1.000000e+000 0.000000e+000
    outer loop
      vertex   -2.493309e+002 2.307655e+001 1.757163e+001
      vertex   -2.491189e+002 2.307655e+001 1.723216e+001
      vertex   -2.541537e+002 2.307655e+001 2.000000e+000
    endloop
  endfacet
  facet normal 0.000000e+000 1.000000e+000 0.000000e+000
    outer loop
      vertex   -2.541537e+002 2.307655e+001 2.000000e+000
      vertex   -2.491189e+002 2.307655e+001 1.723216e+001
      vertex   -2.488881e+002 2.307655e+001 1.690515e+001
    endloop
  endfacet
  facet normal 0.000000e+000 1.000000e+000 0.000000e+000
    outer loop
      vertex   -2.541537e+002 2.307655e+001 2.000000e+000
      vertex   -2.488881e+002 2.307655e+001 1.690515e+001
      vertex   -2.486393e+002 2.307655e+001 1.659163e+001
    endloop
  endfacet
  facet normal 0.000000e+000 1.000000e+000 0.000000e+000
    outer loop
      vertex   -2.486393e+002 2.307655e+001 1.659163e+001
      vertex   -2.483733e+002 2.307655e+001 1.629259e+001
      vertex   -2.541537e+002 2.307655e+001 2.000000e+000
    endloop
  endfacet
  facet normal 0.000000e+000 1.000000e+000 0.000000e+000
    outer loop
      vertex   -2.541537e+002 2.307655e+001 2.000000e+000
      vertex   -2.483733e+002 2.307655e+001 1.629259e+001
      vertex   -2.480909e+002 2.307655e+001 1.600898e+001
    endloop
  endfacet
  facet normal 0.000000e+000 1.000000e+000 0.000000e+000
    outer loop
      vertex   -2.541537e+002 2.307655e+001 2.000000e+000
      vertex   -2.480909e+002 2.307655e+001 1.600898e+001
      vertex   -2.477930e+002 2.307655e+001 1.574170e+001
    endloop
  endfacet
  facet normal 0.000000e+000 1.000000e+000 0.000000e+000
    outer loop
      vertex   -2.477930e+002 2.307655e+001 1.574170e+001
      vertex   -2.474805e+002 2.307655e+001 1.549158e+001
      vertex   -2.541537e+002 2.307655e+001 2.000000e+000
    endloop
  endfacet
  facet normal 0.000000e+000 1.000000e+000 0.000000e+000
    outer loop
      vertex   -2.541537e+002 2.307655e+001 2.000000e+000
      vertex   -2.474805e+002 2.307655e+001 1.549158e+001
      vertex   -2.471545e+002 2.307655e+001 1.525943e+001
    endloop
  endfacet
  facet normal 0.000000e+000 1.000000e+000 0.000000e+000
    outer loop
      vertex   -2.541537e+002 2.307655e+001 2.000000e+000
      vertex   -2.471545e+002 2.307655e+001 1.525943e+001
      vertex   -2.468159e+002 2.307655e+001 1.504598e+001
    endloop
  endfacet
  facet normal 0.000000e+000 1.000000e+000 0.000000e+000
    outer loop
      vertex   -2.468159e+002 2.307655e+001 1.504598e+001
      vertex   -2.464659e+002 2.307655e+001 1.485190e+001
      vertex   -2.541537e+002 2.307655e+001 2.000000e+000
    endloop
  endfacet
  facet normal 0.000000e+000 1.000000e+000 0.000000e+000
    outer loop
      vertex   -2.541537e+002 2.307655e+001 2.000000e+000
      vertex   -2.464659e+002 2.307655e+001 1.485190e+001
      vertex   -2.461055e+002 2.307655e+001 1.467781e+001
    endloop
  endfacet
  facet normal 0.000000e+000 1.000000e+000 0.000000e+000
    outer loop
      vertex   -2.541537e+002 2.307655e+001 2.000000e+000
      vertex   -2.461055e+002 2.307655e+001 1.467781e+001
      vertex   -2.457359e+002 2.307655e+001 1.452425e+001
    endloop
  endfacet
  facet normal 0.000000e+000 1.000000e+000 0.000000e+000
    outer loop
      vertex   -2.457359e+002 2.307655e+001 1.452425e+001
      vertex   -2.453582e+002 2.307655e+001 1.439172e+001
      vertex   -2.541537e+002 2.307655e+001 2.000000e+000
    endloop
  endfacet
  facet normal 0.000000e+000 1.000000e+000 0.000000e+000
    outer loop
      vertex   -2.541537e+002 2.307655e+001 2.000000e+000
      vertex   -2.453582e+002 2.307655e+001 1.439172e+001
      vertex   -2.449737e+002 2.307655e+001 1.428063e+001
    endloop
  endfacet
  facet normal 0.000000e+000 1.000000e+000 0.000000e+000
    outer loop
      vertex   -2.541537e+002 2.307655e+001 2.000000e+000
      vertex   -2.449737e+002 2.307655e+001 1.428063e+001
      vertex   -2.445836e+002 2.307655e+001 1.419133e+001
    endloop
  endfacet
  facet normal 0.000000e+000 1.000000e+000 0.000000e+000
    outer loop
      vertex   -2.445836e+002 2.307655e+001 1.419133e+001
      vertex   -2.441890e+002 2.307655e+001 1.412411e+001
      vertex   -2.541537e+002 2.307655e+001 2.000000e+000
    endloop
  endfacet
  facet normal 0.000000e+000 1.000000e+000 0.000000e+000
    outer loop
      vertex   -2.541537e+002 2.307655e+001 2.000000e+000
      vertex   -2.441890e+002 2.307655e+001 1.412411e+001
      vertex   -2.437913e+002 2.307655e+001 1.407918e+001
    endloop
  endfacet
  facet normal 0.000000e+000 1.000000e+000 0.000000e+000
    outer loop
      vertex   -2.541537e+002 2.307655e+001 2.000000e+000
      vertex   -2.437913e+002 2.307655e+001 1.407918e+001
      vertex   -2.433917e+002 2.307655e+001 1.405667e+001
    endloop
  endfacet
  facet normal -0.000000e+000 1.000000e+000 0.000000e+000
    outer loop
      vertex   -2.433917e+002 2.307655e+001 1.405667e+001
      vertex   -2.429915e+002 2.307655e+001 1.405667e+001
      vertex   -2.541537e+002 2.307655e+001 2.000000e+000
    endloop
  endfacet
  facet normal 0.000000e+000 1.000000e+000 0.000000e+000
    outer loop
      vertex   -2.541537e+002 2.307655e+001 2.000000e+000
      vertex   -2.429915e+002 2.307655e+001 1.405667e+001
      vertex   -2.425919e+002 2.307655e+001 1.407918e+001
    endloop
  endfacet
  facet normal 0.000000e+000 1.000000e+000 0.000000e+000
    outer loop
      vertex   -2.541537e+002 2.307655e+001 2.000000e+000
      vertex   -2.425919e+002 2.307655e+001 1.407918e+001
      vertex   -2.421942e+002 2.307655e+001 1.412411e+001
    endloop
  endfacet
  facet normal -0.000000e+000 1.000000e+000 0.000000e+000
    outer loop
      vertex   -2.421942e+002 2.307655e+001 1.412411e+001
      vertex   -2.417996e+002 2.307655e+001 1.419133e+001
      vertex   -2.541537e+002 2.307655e+001 2.000000e+000
    endloop
  endfacet
  facet normal -0.000000e+000 1.000000e+000 0.000000e+000
    outer loop
      vertex   -2.410250e+002 2.307655e+001 1.439172e+001
      vertex   -2.406473e+002 2.307655e+001 1.452425e+001
      vertex   -2.201537e+002 2.307655e+001 2.000000e+000
    endloop
  endfacet
  facet normal 0.000000e+000 1.000000e+000 0.000000e+000
    outer loop
      vertex   -2.201537e+002 2.307655e+001 2.000000e+000
      vertex   -2.406473e+002 2.307655e+001 1.452425e+001
      vertex   -2.402777e+002 2.307655e+001 1.467781e+001
    endloop
  endfacet
  facet normal 0.000000e+000 1.000000e+000 0.000000e+000
    outer loop
      vertex   -2.201537e+002 2.307655e+001 2.000000e+000
      vertex   -2.402777e+002 2.307655e+001 1.467781e+001
      vertex   -2.399173e+002 2.307655e+001 1.485190e+001
    endloop
  endfacet
  facet normal -0.000000e+000 1.000000e+000 0.000000e+000
    outer loop
      vertex   -2.399173e+002 2.307655e+001 1.485190e+001
      vertex   -2.395673e+002 2.307655e+001 1.504598e+001
      vertex   -2.201537e+002 2.307655e+001 2.000000e+000
    endloop
  endfacet
  facet normal 0.000000e+000 1.000000e+000 0.000000e+000
    outer loop
      vertex   -2.201537e+002 2.307655e+001 2.000000e+000
      vertex   -2.395673e+002 2.307655e+001 1.504598e+001
      vertex   -2.392287e+002 2.307655e+001 1.525943e+001
    endloop
  endfacet
  facet normal 0.000000e+000 1.000000e+000 0.000000e+000
    outer loop
      vertex   -2.201537e+002 2.307655e+001 2.000000e+000
      vertex   -2.392287e+002 2.307655e+001 1.525943e+001
      vertex   -2.389027e+002 2.307655e+001 1.549158e+001
    endloop
  endfacet
  facet normal -0.000000e+000 1.000000e+000 0.000000e+000
    outer loop
      vertex   -2.389027e+002 2.307655e+001 1.549158e+001
      vertex   -2.385902e+002 2.307655e+001 1.574170e+001
      vertex   -2.201537e+002 2.307655e+001 2.000000e+000
    endloop
  endfacet
  facet normal 0.000000e+000 1.000000e+000 0.000000e+000
    outer loop
      vertex   -2.201537e+002 2.307655e+001 2.000000e+000
      vertex   -2.385902e+002 2.307655e+001 1.574170e+001
      vertex   -2.382923e+002 2.307655e+001 1.600898e+001
    endloop
  endfacet
  facet normal 0.000000e+000 1.000000e+000 0.000000e+000
    outer loop
      vertex   -2.201537e+002 2.307655e+001 2.000000e+000
      vertex   -2.382923e+002 2.307655e+001 1.600898e+001
      vertex   -2.380099e+002 2.307655e+001 1.629259e+001
    endloop
  endfacet
  facet normal -0.000000e+000 1.000000e+000 0.000000e+000
    outer loop
      vertex   -2.380099e+002 2.307655e+001 1.629259e+001
      vertex   -2.377439e+002 2.307655e+001 1.659163e+001
      vertex   -2.201537e+002 2.307655e+001 2.000000e+000
    endloop
  endfacet
  facet normal 0.000000e+000 1.000000e+000 0.000000e+000
    outer loop
      vertex   -2.201537e+002 2.307655e+001 2.000000e+000
      vertex   -2.377439e+002 2.307655e+001 1.659163e+001
      vertex   -2.374951e+002 2.307655e+001 1.690515e+001
    endloop
  endfacet
  facet normal 0.000000e+000 1.000000e+000 0.000000e+000
    outer loop
      vertex   -2.201537e+002 2.307655e+001 2.000000e+000
      vertex   -2.374951e+002 2.307655e+001 1.690515e+001
      vertex   -2.372644e+002 2.307655e+001 1.723216e+001
    endloop
  endfacet
  facet normal -0.000000e+000 1.000000e+000 0.000000e+000
    outer loop
      vertex   -2.372644e+002 2.307655e+001 1.723216e+001
      vertex   -2.370524e+002 2.307655e+001 1.757163e+001
      vertex   -2.201537e+002 2.307655e+001 2.000000e+000
    endloop
  endfacet
  facet normal 0.000000e+000 1.000000e+000 0.000000e+000
    outer loop
      vertex   -2.201537e+002 2.307655e+001 2.000000e+000
      vertex   -2.370524e+002 2.307655e+001 1.757163e+001
      vertex   -2.368598e+002 2.307655e+001 1.792249e+001
    endloop
  endfacet
  facet normal 0.000000e+000 1.000000e+000 0.000000e+000
    outer loop
      vertex   -2.201537e+002 2.307655e+001 2.000000e+000
      vertex   -2.368598e+002 2.307655e+001 1.792249e+001
      vertex   -2.366872e+002 2.307655e+001 1.828361e+001
    endloop
  endfacet
  facet normal 0.000000e+000 1.000000e+000 0.000000e+000
    outer loop
      vertex   -2.364043e+002 2.307655e+001 1.903208e+001
      vertex   -2.362948e+002 2.307655e+001 1.941706e+001
      vertex   -2.201537e+002 2.307655e+001 2.700000e+001
    endloop
  endfacet
  facet normal 0.000000e+000 1.000000e+000 0.000000e+000
    outer loop
      vertex   -2.201537e+002 2.307655e+001 2.700000e+001
      vertex   -2.362948e+002 2.307655e+001 1.941706e+001
      vertex   -2.362072e+002 2.307655e+001 1.980758e+001
    endloop
  endfacet
  facet normal 0.000000e+000 1.000000e+000 0.000000e+000
    outer loop
      vertex   -2.201537e+002 2.307655e+001 2.700000e+001
      vertex   -2.362072e+002 2.307655e+001 1.980758e+001
      vertex   -2.361416e+002 2.307655e+001 2.020241e+001
    endloop
  endfacet
  facet normal 0.000000e+000 1.000000e+000 0.000000e+000
    outer loop
      vertex   -2.361416e+002 2.307655e+001 2.020241e+001
      vertex   -2.360984e+002 2.307655e+001 2.060031e+001
      vertex   -2.201537e+002 2.307655e+001 2.700000e+001
    endloop
  endfacet
  facet normal 0.000000e+000 1.000000e+000 0.000000e+000
    outer loop
      vertex   -2.201537e+002 2.307655e+001 2.700000e+001
      vertex   -2.360984e+002 2.307655e+001 2.060031e+001
      vertex   -2.360776e+002 2.307655e+001 2.100000e+001
    endloop
  endfacet
  facet normal 0.000000e+000 1.000000e+000 0.000000e+000
    outer loop
      vertex   -2.201537e+002 2.307655e+001 2.700000e+001
      vertex   -2.360776e+002 2.307655e+001 2.100000e+001
      vertex   -2.360776e+002 2.307655e+001 2.700000e+001
    endloop
  endfacet
  facet normal 0.000000e+000 1.000000e+000 0.000000e+000
    outer loop
      vertex   -2.541537e+002 8.399239e+001 1.700000e+001
      vertex   -2.541537e+002 8.399239e+001 2.700000e+001
      vertex   -2.496382e+002 8.399239e+001 1.700000e+001
    endloop
  endfacet
  facet normal 0.000000e+000 1.000000e+000 -0.000000e+000
    outer loop
      vertex   -2.496382e+002 8.399239e+001 1.700000e+001
      vertex   -2.541537e+002 8.399239e+001 2.700000e+001
      vertex   -2.496382e+002 8.399239e+001 2.700000e+001
    endloop
  endfacet
  facet normal -1.907349e-007 0.000000e+000 1.000000e+000
    outer loop
      vertex   -2.246682e+002 9.207655e+001 1.400000e+001
      vertex   -2.296682e+002 8.541936e+001 1.400000e+001
      vertex   -2.246682e+002 7.585055e+001 1.400000e+001
    endloop
  endfacet
  facet normal -7.417238e-008 6.090751e-008 1.000000e+000
    outer loop
      vertex   -2.246682e+002 7.585055e+001 1.400000e+001
      vertex   -2.296682e+002 8.541936e+001 1.400000e+001
      vertex   -2.296682e+002 6.976161e+001 1.400000e+001
    endloop
  endfacet
  facet normal 0.000000e+000 0.000000e+000 1.000000e+000
    outer loop
      vertex   -2.246682e+002 7.585055e+001 1.400000e+001
      vertex   -2.296682e+002 6.976161e+001 1.400000e+001
      vertex   -2.201537e+002 6.976161e+001 1.400000e+001
    endloop
  endfacet
  facet normal 0.000000e+000 -1.432548e-007 1.000000e+000
    outer loop
      vertex   -2.246682e+002 9.207655e+001 1.400000e+001
      vertex   -2.496382e+002 9.207655e+001 1.400000e+001
      vertex   -2.296682e+002 8.541936e+001 1.400000e+001
    endloop
  endfacet
  facet normal 0.000000e+000 -1.432548e-007 1.000000e+000
    outer loop
      vertex   -2.296682e+002 8.541936e+001 1.400000e+001
      vertex   -2.496382e+002 9.207655e+001 1.400000e+001
      vertex   -2.446682e+002 8.541936e+001 1.400000e+001
    endloop
  endfacet
  facet normal 1.918861e-007 0.000000e+000 1.000000e+000
    outer loop
      vertex   -2.446682e+002 8.541936e+001 1.400000e+001
      vertex   -2.496382e+002 9.207655e+001 1.400000e+001
      vertex   -2.496382e+002 7.585055e+001 1.400000e+001
    endloop
  endfacet
  facet normal 7.462009e-008 6.090751e-008 1.000000e+000
    outer loop
      vertex   -2.446682e+002 8.541936e+001 1.400000e+001
      vertex   -2.496382e+002 7.585055e+001 1.400000e+001
      vertex   -2.446682e+002 6.976161e+001 1.400000e+001
    endloop
  endfacet
  facet normal 0.000000e+000 0.000000e+000 1.000000e+000
    outer loop
      vertex   -2.446682e+002 6.976161e+001 1.400000e+001
      vertex   -2.496382e+002 7.585055e+001 1.400000e+001
      vertex   -2.541537e+002 6.976161e+001 1.400000e+001
    endloop
  endfacet
  facet normal 0.000000e+000 0.000000e+000 1.000000e+000
    outer loop
      vertex   -2.541537e+002 6.976161e+001 1.400000e+001
      vertex   -2.496382e+002 7.585055e+001 1.400000e+001
      vertex   -2.541537e+002 7.585055e+001 1.400000e+001
    endloop
  endfacet
  facet normal 0.000000e+000 -0.000000e+000 1.000000e+000
    outer loop
      vertex   -2.201537e+002 6.976161e+001 1.400000e+001
      vertex   -2.201537e+002 7.585055e+001 1.400000e+001
      vertex   -2.246682e+002 7.585055e+001 1.400000e+001
    endloop
  endfacet
  facet normal 0.000000e+000 0.000000e+000 1.000000e+000
    outer loop
      vertex   -2.541537e+002 7.585055e+001 2.700000e+001
      vertex   -2.496382e+002 7.585055e+001 2.700000e+001
      vertex   -2.541537e+002 8.399239e+001 2.700000e+001
    endloop
  endfacet
  facet normal -0.000000e+000 0.000000e+000 1.000000e+000
    outer loop
      vertex   -2.541537e+002 8.399239e+001 2.700000e+001
      vertex   -2.496382e+002 7.585055e+001 2.700000e+001
      vertex   -2.496382e+002 8.399239e+001 2.700000e+001
    endloop
  endfacet
  facet normal 1.000000e+000 0.000000e+000 0.000000e+000
    outer loop
      vertex   -2.496382e+002 9.207655e+001 1.700000e+001
      vertex   -2.496382e+002 8.399239e+001 1.700000e+001
      vertex   -2.496382e+002 9.207655e+001 1.400000e+001
    endloop
  endfacet
  facet normal 1.000000e+000 0.000000e+000 0.000000e+000
    outer loop
      vertex   -2.496382e+002 9.207655e+001 1.400000e+001
      vertex   -2.496382e+002 8.399239e+001 1.700000e+001
      vertex   -2.496382e+002 7.585055e+001 1.400000e+001
    endloop
  endfacet
  facet normal 1.000000e+000 0.000000e+000 0.000000e+000
    outer loop
      vertex   -2.496382e+002 7.585055e+001 1.400000e+001
      vertex   -2.496382e+002 8.399239e+001 1.700000e+001
      vertex   -2.496382e+002 7.585055e+001 2.700000e+001
    endloop
  endfacet
  facet normal 1.000000e+000 -0.000000e+000 0.000000e+000
    outer loop
      vertex   -2.496382e+002 7.585055e+001 2.700000e+001
      vertex   -2.496382e+002 8.399239e+001 1.700000e+001
      vertex   -2.496382e+002 8.399239e+001 2.700000e+001
    endloop
  endfacet
  facet normal 0.000000e+000 1.000000e+000 0.000000e+000
    outer loop
      vertex   -2.496382e+002 9.207655e+001 1.700000e+001
      vertex   -2.496382e+002 9.207655e+001 1.400000e+001
      vertex   -2.541537e+002 9.207655e+001 1.700000e+001
    endloop
  endfacet
  facet normal 0.000000e+000 1.000000e+000 0.000000e+000
    outer loop
      vertex   -2.541537e+002 9.207655e+001 1.700000e+001
      vertex   -2.496382e+002 9.207655e+001 1.400000e+001
      vertex   -2.541537e+002 9.207655e+001 0.000000e+000
    endloop
  endfacet
  facet normal 0.000000e+000 1.000000e+000 0.000000e+000
    outer loop
      vertex   -2.541537e+002 9.207655e+001 0.000000e+000
      vertex   -2.496382e+002 9.207655e+001 1.400000e+001
      vertex   -2.201537e+002 9.207655e+001 0.000000e+000
    endloop
  endfacet
  facet normal 0.000000e+000 1.000000e+000 0.000000e+000
    outer loop
      vertex   -2.201537e+002 9.207655e+001 0.000000e+000
      vertex   -2.496382e+002 9.207655e+001 1.400000e+001
      vertex   -2.246682e+002 9.207655e+001 1.400000e+001
    endloop
  endfacet
  facet normal 0.000000e+000 1.000000e+000 -0.000000e+000
    outer loop
      vertex   -2.201537e+002 9.207655e+001 0.000000e+000
      vertex   -2.246682e+002 9.207655e+001 1.400000e+001
      vertex   -2.201537e+002 9.207655e+001 1.700000e+001
    endloop
  endfacet
  facet normal 0.000000e+000 1.000000e+000 0.000000e+000
    outer loop
      vertex   -2.201537e+002 9.207655e+001 1.700000e+001
      vertex   -2.246682e+002 9.207655e+001 1.400000e+001
      vertex   -2.246682e+002 9.207655e+001 1.700000e+001
    endloop
  endfacet
  facet normal 0.000000e+000 -0.000000e+000 1.000000e+000
    outer loop
      vertex   -2.201537e+002 7.585055e+001 1.700000e+001
      vertex   -2.201537e+002 9.207655e+001 1.700000e+001
      vertex   -2.246682e+002 7.585055e+001 1.700000e+001
    endloop
  endfacet
  facet normal 0.000000e+000 0.000000e+000 1.000000e+000
    outer loop
      vertex   -2.246682e+002 7.585055e+001 1.700000e+001
      vertex   -2.201537e+002 9.207655e+001 1.700000e+001
      vertex   -2.246682e+002 9.207655e+001 1.700000e+001
    endloop
  endfacet
  facet normal 0.000000e+000 -1.000000e+000 0.000000e+000
    outer loop
      vertex   -2.296682e+002 6.976161e+001 2.000000e+000
      vertex   -2.201537e+002 6.976161e+001 2.000000e+000
      vertex   -2.296682e+002 6.976161e+001 1.400000e+001
    endloop
  endfacet
  facet normal 0.000000e+000 -1.000000e+000 0.000000e+000
    outer loop
      vertex   -2.296682e+002 6.976161e+001 1.400000e+001
      vertex   -2.201537e+002 6.976161e+001 2.000000e+000
      vertex   -2.201537e+002 6.976161e+001 1.400000e+001
    endloop
  endfacet
  facet normal 0.000000e+000 -1.000000e+000 0.000000e+000
    outer loop
      vertex   -2.541537e+002 6.976161e+001 2.000000e+000
      vertex   -2.446682e+002 6.976161e+001 2.000000e+000
      vertex   -2.541537e+002 6.976161e+001 1.400000e+001
    endloop
  endfacet
  facet normal 0.000000e+000 -1.000000e+000 0.000000e+000
    outer loop
      vertex   -2.541537e+002 6.976161e+001 1.400000e+001
      vertex   -2.446682e+002 6.976161e+001 2.000000e+000
      vertex   -2.446682e+002 6.976161e+001 1.400000e+001
    endloop
  endfacet
  facet normal 0.000000e+000 -1.000000e+000 0.000000e+000
    outer loop
      vertex   -2.446682e+002 8.541936e+001 2.000000e+000
      vertex   -2.296682e+002 8.541936e+001 2.000000e+000
      vertex   -2.446682e+002 8.541936e+001 1.400000e+001
    endloop
  endfacet
  facet normal 0.000000e+000 -1.000000e+000 0.000000e+000
    outer loop
      vertex   -2.446682e+002 8.541936e+001 1.400000e+001
      vertex   -2.296682e+002 8.541936e+001 2.000000e+000
      vertex   -2.296682e+002 8.541936e+001 1.400000e+001
    endloop
  endfacet
  facet normal -1.000000e+000 0.000000e+000 0.000000e+000
    outer loop
      vertex   -2.296682e+002 6.976161e+001 1.400000e+001
      vertex   -2.296682e+002 8.541936e+001 1.400000e+001
      vertex   -2.296682e+002 6.976161e+001 2.000000e+000
    endloop
  endfacet
  facet normal -1.000000e+000 0.000000e+000 0.000000e+000
    outer loop
      vertex   -2.296682e+002 6.976161e+001 2.000000e+000
      vertex   -2.296682e+002 8.541936e+001 1.400000e+001
      vertex   -2.296682e+002 8.541936e+001 2.000000e+000
    endloop
  endfacet
  facet normal 0.000000e+000 5.106956e-009 1.000000e+000
    outer loop
      vertex   -2.201537e+002 2.307655e+001 2.000000e+000
      vertex   -2.296682e+002 6.976161e+001 2.000000e+000
      vertex   -2.541537e+002 2.307655e+001 2.000000e+000
    endloop
  endfacet
  facet normal 0.000000e+000 5.106956e-009 1.000000e+000
    outer loop
      vertex   -2.541537e+002 2.307655e+001 2.000000e+000
      vertex   -2.296682e+002 6.976161e+001 2.000000e+000
      vertex   -2.446682e+002 6.976161e+001 2.000000e+000
    endloop
  endfacet
  facet normal 0.000000e+000 5.106956e-009 1.000000e+000
    outer loop
      vertex   -2.541537e+002 2.307655e+001 2.000000e+000
      vertex   -2.446682e+002 6.976161e+001 2.000000e+000
      vertex   -2.541537e+002 6.976161e+001 2.000000e+000
    endloop
  endfacet
  facet normal 0.000000e+000 5.106956e-009 1.000000e+000
    outer loop
      vertex   -2.201537e+002 2.307655e+001 2.000000e+000
      vertex   -2.201537e+002 6.976161e+001 2.000000e+000
      vertex   -2.296682e+002 6.976161e+001 2.000000e+000
    endloop
  endfacet
  facet normal 0.000000e+000 0.000000e+000 1.000000e+000
    outer loop
      vertex   -2.296682e+002 8.541936e+001 2.000000e+000
      vertex   -2.446682e+002 8.541936e+001 2.000000e+000
      vertex   -2.296682e+002 6.976161e+001 2.000000e+000
    endloop
  endfacet
  facet normal 0.000000e+000 0.000000e+000 1.000000e+000
    outer loop
      vertex   -2.296682e+002 6.976161e+001 2.000000e+000
      vertex   -2.446682e+002 8.541936e+001 2.000000e+000
      vertex   -2.446682e+002 6.976161e+001 2.000000e+000
    endloop
  endfacet
  facet normal 1.000000e+000 0.000000e+000 0.000000e+000
    outer loop
      vertex   -2.446682e+002 6.976161e+001 1.400000e+001
      vertex   -2.446682e+002 6.976161e+001 2.000000e+000
      vertex   -2.446682e+002 8.541936e+001 1.400000e+001
    endloop
  endfacet
  facet normal 1.000000e+000 0.000000e+000 0.000000e+000
    outer loop
      vertex   -2.446682e+002 8.541936e+001 1.400000e+001
      vertex   -2.446682e+002 6.976161e+001 2.000000e+000
      vertex   -2.446682e+002 8.541936e+001 2.000000e+000
    endloop
  endfacet
  facet normal -0.000000e+000 0.000000e+000 1.000000e+000
    outer loop
      vertex   -2.541537e+002 9.207655e+001 1.700000e+001
      vertex   -2.541537e+002 8.399239e+001 1.700000e+001
      vertex   -2.496382e+002 9.207655e+001 1.700000e+001
    endloop
  endfacet
  facet normal 0.000000e+000 0.000000e+000 1.000000e+000
    outer loop
      vertex   -2.496382e+002 9.207655e+001 1.700000e+001
      vertex   -2.541537e+002 8.399239e+001 1.700000e+001
      vertex   -2.496382e+002 8.399239e+001 1.700000e+001
    endloop
  endfacet
  facet normal -0.000000e+000 -1.000000e+000 -0.000000e+000
    outer loop
      vertex   -2.201537e+002 7.585055e+001 1.700000e+001
      vertex   -2.246682e+002 7.585055e+001 1.700000e+001
      vertex   -2.201537e+002 7.585055e+001 1.400000e+001
    endloop
  endfacet
  facet normal 0.000000e+000 -1.000000e+000 0.000000e+000
    outer loop
      vertex   -2.201537e+002 7.585055e+001 1.400000e+001
      vertex   -2.246682e+002 7.585055e+001 1.700000e+001
      vertex   -2.246682e+002 7.585055e+001 1.400000e+001
    endloop
  endfacet
  facet normal -0.000000e+000 -1.000000e+000 -0.000000e+000
    outer loop
      vertex   -2.496382e+002 7.585055e+001 2.700000e+001
      vertex   -2.541537e+002 7.585055e+001 2.700000e+001
      vertex   -2.496382e+002 7.585055e+001 1.400000e+001
    endloop
  endfacet
  facet normal 0.000000e+000 -1.000000e+000 0.000000e+000
    outer loop
      vertex   -2.496382e+002 7.585055e+001 1.400000e+001
      vertex   -2.541537e+002 7.585055e+001 2.700000e+001
      vertex   -2.541537e+002 7.585055e+001 1.400000e+001
    endloop
  endfacet
  facet normal -1.000000e+000 0.000000e+000 0.000000e+000
    outer loop
      vertex   -2.246682e+002 7.585055e+001 1.700000e+001
      vertex   -2.246682e+002 9.207655e+001 1.700000e+001
      vertex   -2.246682e+002 7.585055e+001 1.400000e+001
    endloop
  endfacet
  facet normal -1.000000e+000 0.000000e+000 0.000000e+000
    outer loop
      vertex   -2.246682e+002 7.585055e+001 1.400000e+001
      vertex   -2.246682e+002 9.207655e+001 1.700000e+001
      vertex   -2.246682e+002 9.207655e+001 1.400000e+001
    endloop
  endfacet
  facet normal 0.000000e+000 0.000000e+000 -1.000000e+000
    outer loop
      vertex   -2.541537e+002 9.207655e+001 0.000000e+000
      vertex   -2.201537e+002 9.207655e+001 0.000000e+000
      vertex   -2.541537e+002 5.507655e+001 0.000000e+000
    endloop
  endfacet
  facet normal 0.000000e+000 0.000000e+000 -1.000000e+000
    outer loop
      vertex   -2.541537e+002 5.507655e+001 0.000000e+000
      vertex   -2.201537e+002 9.207655e+001 0.000000e+000
      vertex   -2.201537e+002 5.507655e+001 0.000000e+000
    endloop
  endfacet
  facet normal 0.000000e+000 0.000000e+000 -1.000000e+000
    outer loop
      vertex   -2.541537e+002 5.507655e+001 0.000000e+000
      vertex   -2.201537e+002 5.507655e+001 0.000000e+000
      vertex   -2.541537e+002 1.807655e+001 0.000000e+000
    endloop
  endfacet
  facet normal 0.000000e+000 0.000000e+000 -1.000000e+000
    outer loop
      vertex   -2.541537e+002 1.807655e+001 0.000000e+000
      vertex   -2.201537e+002 5.507655e+001 0.000000e+000
      vertex   -2.201537e+002 1.807655e+001 0.000000e+000
    endloop
  endfacet
endsolid
